<?xml version="1.0" encoding="UTF-8" standalone="no"?>
<!DOCTYPE svg  PUBLIC '-//W3C//DTD SVG 1.1//EN'  'http://www.w3.org/Graphics/SVG/1.1/DTD/svg11.dtd'>
<svg version="1.1" xmlns="http://www.w3.org/2000/svg">
<defs>
<font id="PFDinTextCompPro-Regular" horiz-adv-x="1818">
<font-face panose-1="2 0 5 6 2 0 0 2 0 4" ascent="750" cap-height="696" underline-position="-220" x-height="493" font-weight="400" underline-thickness="60" unicode-range="U+0020-FB05" descent="-250" font-family="o" units-per-em="1000" bbox="-64 -251 1760 913"/>
<missing-glyph/>
<glyph glyph-name="fj" d="M141 432v-432h-80v432h-50v61h50v102q0 33 11 58.5t30.5 42.5t46 26t56.5 9q89 0 136 -51l-47 -56q-15 17 -38 24t-46 7q-38 0 -53.5 -18.5t-15.5 -44.5v-99h205v-562q0 -26 -5 -49.5t-18 -41.5t-35.5 -28.5t-56.5 -10.5h-30v75h14q34 0 43 15t9 44v497h-126z" unicode="fj" horiz-adv-x="392"/>
<glyph glyph-name="ffj" d="M205 732q29 0 52 -6.5t42 -17.5q19 20 46.5 29.5t62.5 9.5q90 0 137 -51l-48 -56q-16 14 -38.5 22.5t-45.5 8.5q-38 0 -53.5 -18.5t-15.5 -44.5v-114h205v-563q0 -26 -5.5 -49.5t-18.5 -41.5t-35.5 -28.5t-56.5 -10.5h-30v75h14q34 0 43 18.5t9 59.5v478h-125v-432h-80 v432h-123v-432h-80v432h-50v62h50v102q0 33 11 58.5t30.5 42.5t46 26t56.5 9zM264 494v117q0 7 0.5 15t3.5 16q-30 14 -58 14q-38 0 -53.5 -18.5t-15.5 -44.5v-99h123z" unicode="ffj" horiz-adv-x="595"/>
<glyph glyph-name="ff" d="M205 731q25 0 45.5 -5t37.5 -13q14 17 36 25t49 8h46v-74h-32q-23 0 -34 -13.5t-11 -34.5v-131h77v-61h-77v-432h-80v432h-121v-432h-80v432h-50v61h50v102q0 33 11 58.5t30.5 42.5t46 26t56.5 9zM262 493v120v15t2 17q-15 7 -28 9t-26 2q-38 0 -53.5 -18.5t-15.5 -44.5 v-100h121z" unicode="ff" horiz-adv-x="447"/>
<glyph glyph-name="fi" d="M267 0v432h-126v-432h-80v432h-50v61h50v102q0 33 11 58.5t30.5 42.5t46 26t56.5 9q89 0 136 -51l-47 -56q-15 17 -38 24t-46 7q-38 0 -53.5 -18.5t-15.5 -44.5v-99h205v-493h-79z" unicode="fi" horiz-adv-x="392"/>
<glyph glyph-name="fl" d="M266 655q-20 5 -33.5 6t-24.5 1q-38 0 -52.5 -20.5t-14.5 -55.5v-93h77v-61h-77v-432h-80v432h-50v61h50v101q0 66 38.5 105t104.5 39q17 0 51.5 -2t90.5 -16v-590q0 -34 8.5 -49.5t38.5 -15.5h12v-72h-16q-32 0 -55 5.5t-38 19t-22.5 37.5t-7.5 61v539z" unicode="fl" horiz-adv-x="427"/>
<glyph glyph-name="ffi" d="M205 732q29 0 52 -6.5t42 -17.5q19 20 46.5 29.5t62.5 9.5q50 0 82 -12.5t56 -38.5l-49 -56q-15 17 -38 24t-46 7q-38 0 -53.5 -18.5t-15.5 -44.5v-114h205v-494h-80v432h-125v-432h-80v432h-123v-432h-80v432h-50v62h50v102q0 33 11 58.5t30.5 42.5t46 26t56.5 9z M264 494v117v13.5t2 13.5q-29 18 -56 18q-38 0 -53.5 -18.5t-15.5 -44.5v-99h123z" unicode="ffi" horiz-adv-x="595"/>
<glyph glyph-name="ffl" d="M205 731q22 0 49.5 -5.5t47.5 -17.5q19 18 45 28t59 10q17 0 51.5 -2t90.5 -16v-598q0 -34 8.5 -49.5t38.5 -15.5h12v-72h-16q-32 0 -55 5.5t-38 19t-22.5 37.5t-7.5 61v547q-20 5 -33.5 6t-24.5 1q-38 0 -52.5 -20.5t-14.5 -55.5v-101h77v-61h-77v-432h-80v432h-122 v-432h-80v432h-50v61h50v102q0 33 11 58.5t30.5 42.5t46 26t56.5 9zM263 602q0 22 4 38q-17 9 -31 12t-26 3q-38 0 -53.5 -18.5t-15.5 -44.5v-99h122v109z" unicode="ffl" horiz-adv-x="629"/>
<glyph glyph-name="ft" d="M346 493h64v-61h-64v-298q0 -38 14.5 -49t37.5 -11h11v-75h-30q-32 0 -53.5 10t-35 26t-19 35.5t-5.5 38.5v323h-125v-432h-80v432h-50v61h50v121q0 56 30 84t81 28h46v-74h-32q-23 0 -34 -13.5t-11 -34.5v-111h125v131h80v-131z" unicode="ft" horiz-adv-x="434"/>
<glyph glyph-name="space" unicode=" " horiz-adv-x="195"/>
<glyph glyph-name="exclam" d="M147 177h-66l-7 519h80zM74 -1v80h80v-80h-80z" unicode="!" horiz-adv-x="228"/>
<glyph glyph-name="quotedbl" d="M153 503v193h60v-193h-60zM38 503v193h60v-193h-60z" unicode='&quot;' horiz-adv-x="250"/>
<glyph glyph-name="numbersign" d="M207 225h-87l-41 -225h-53l42 225h-61v52h71l27 150h-61v52h71l42 222h53l-42 -222h87l41 222h53l-42 -222h62v-52h-72l-27 -150h62v-52h-72l-42 -225h-53zM130 277h87l28 150h-87z" unicode="#" horiz-adv-x="380"/>
<glyph glyph-name="dollar" d="M350 190q0 -42 -7.5 -77t-24.5 -60.5t-44.5 -40.5t-66.5 -18v-88h-38v88q-76 5 -111 49t-35 109l79 16q0 -35 14 -63.5t53 -34.5v257q-46 21 -74 41.5t-43 44t-19.5 49.5t-4.5 57q0 75 34.5 124.5t106.5 57.5v79h38v-79q41 -2 68.5 -17t44 -36.5t23.5 -47.5t7 -51 l-78 -20q0 42 -15 67t-50 30v-230q48 -19 76.5 -39.5t43 -44.5t19 -54t4.5 -68zM272 189q0 27 -2 45t-9 31.5t-20 23.5t-34 21v-240q23 3 36 14t19.5 27t8 36t1.5 42zM107 520q0 -18 1.5 -32.5t7.5 -27t18.5 -23.5t34.5 -23v211q-20 -4 -32 -14.5t-18.5 -25.5t-9 -32 t-2.5 -33z" unicode="$" horiz-adv-x="380"/>
<glyph glyph-name="percent" d="M578 80q0 -41 -29 -62.5t-67 -21.5q-19 0 -36.5 5.5t-31 16t-21.5 26t-8 36.5v255q0 21 8 36.5t21.5 26t31 16t36.5 5.5q38 0 67 -21.5t29 -62.5v-255zM516 333q0 13 -9.5 22t-24.5 9q-16 0 -25.5 -9t-9.5 -22v-250q0 -14 9.5 -23t25.5 -9q15 0 24.5 9t9.5 23v250z M225 359q0 -41 -29 -62.5t-67 -21.5q-19 0 -36.5 5.5t-31 16t-21.5 26t-8 36.5v255q0 21 8 36.5t21.5 26t31 16t36.5 5.5q38 0 67 -21.5t29 -62.5v-255zM163 612q0 13 -9.5 22t-24.5 9q-16 0 -25.5 -9t-9.5 -22v-250q0 -14 9.5 -23t25.5 -9q15 0 24.5 9t9.5 23v250zM177 -17 h-51l314 731h51z" unicode="%" horiz-adv-x="610"/>
<glyph glyph-name="ampersand" d="M211 701q52 0 86 -17.5t52 -59.5l-71 -35q-16 41 -65 41q-16 0 -27 -7t-18 -18.5t-10 -25.5t-3 -27q0 -26 11.5 -58t32.5 -72l129 -223q8 23 12 48.5t6 52.5h72q-2 -40 -12 -88t-30 -89l72 -123h-91l-33 56q-33 -39 -69.5 -50.5t-74.5 -11.5q-29 0 -54.5 12.5t-45 35.5 t-30.5 55.5t-11 72.5q0 62 26.5 109t74.5 93q-8 12 -14 24t-11 21q-14 26 -25.5 63.5t-11.5 72.5q0 31 9.5 58t26.5 47t42 31.5t55 11.5zM177 308q-29 -33 -45.5 -65t-16.5 -69q0 -22 5.5 -41.5t16.5 -34.5t26.5 -23.5t35.5 -8.5q26 0 50.5 13.5t39.5 35.5z" unicode="&amp;" horiz-adv-x="461"/>
<glyph glyph-name="quotesingle" d="M57 503v193h61v-193h-61z" unicode="&apos;" horiz-adv-x="172"/>
<glyph glyph-name="parenleft" d="M169 -110q-27 40 -51.5 86t-42.5 98t-29 109.5t-11 120.5q0 64 10.5 121.5t28.5 109t42 97t51 85.5l38 -18q-47 -83 -73 -186.5t-26 -204.5q0 -109 26.5 -212t71.5 -184l-35 -22v0z" unicode="(" horiz-adv-x="210"/>
<glyph glyph-name="parenright" d="M36 -88q45 81 71.5 184t26.5 212q0 101 -26 204.5t-73 186.5l38 18q27 -40 51 -85.5t42 -97t28.5 -109t10.5 -121.5q0 -63 -11 -120.5t-29 -109.5t-42.5 -98t-51.5 -86z" unicode=")" horiz-adv-x="210"/>
<glyph glyph-name="asterisk" d="M277 442l-50 -34l-60 100l-61 -101l-49 35l75 92l-109 29l20 57l103 -43l-9 118h60l-9 -118l102 43l21 -57l-110 -29z" unicode="*" horiz-adv-x="351"/>
<glyph glyph-name="plus" d="M220 264v-164h-59v164h-152v60h152v164h59v-164h152v-60h-152z" unicode="+" horiz-adv-x="380"/>
<glyph glyph-name="comma" d="M93 -120h-44l24 112h-21v97h87v-95z" unicode="," horiz-adv-x="193"/>
<glyph glyph-name="hyphen" d="M49 253v67h259v-67h-259z" unicode="-" horiz-adv-x="346"/>
<glyph glyph-name="period" d="M52 0v91h87v-91h-87z" unicode="." horiz-adv-x="193"/>
<glyph glyph-name="slash" d="M66 -42h-60l186 767h60z" unicode="/" horiz-adv-x="256"/>
<glyph glyph-name="zero" d="M331 127q0 -33 -11.5 -58t-31 -42t-45 -25.5t-53.5 -8.5t-53.5 8.5t-45 25.5t-31 42t-11.5 58v439q0 33 11.5 58.5t31 42.5t45 26t53.5 9q62 0 101.5 -35t39.5 -101v-439zM252 569q0 26 -17.5 42t-44.5 16t-44.5 -16t-17.5 -42v-445q0 -26 17.5 -42t44.5 -16t44.5 16 t17.5 42v445z" unicode="0" horiz-adv-x="380"/>
<glyph glyph-name="one" d="M201 0v613l-101 -81v84l99 80h81v-696h-79z" unicode="1" horiz-adv-x="380"/>
<glyph glyph-name="two" d="M191 627q-34 -1 -48.5 -28.5t-14.5 -83.5v-6l-79 14v4q0 40 8 72t25.5 55t45 35.5t65.5 12.5q39 0 66 -11t44 -31t24.5 -48.5t7.5 -63.5q0 -83 -38 -160l-156 -315h189v-73h-279v69l181 361q14 27 17.5 57t3.5 60q0 14 -2 28.5t-8 26t-18.5 18.5t-33.5 7z" unicode="2" horiz-adv-x="380"/>
<glyph glyph-name="three" d="M329 143q0 -40 -12 -68.5t-31.5 -46.5t-45 -26.5t-54.5 -8.5q-41 0 -68.5 12t-44 33t-22.5 50.5t-4 65.5l79 11q-5 -45 9.5 -72t52.5 -27q26 0 44.5 16.5t18.5 57.5v105q0 42 -16.5 60.5t-54.5 18.5h-31v69h33q37 0 53 17t16 57v89q0 13 -2.5 26t-8.5 23t-17 16t-29 6 q-35 0 -51.5 -26.5t-16.5 -70.5l-79 11q1 34 11 63.5t28.5 51t46.5 34t66 12.5q37 0 62 -11.5t40.5 -31t22 -45.5t6.5 -54v-71q0 -20 -1.5 -38.5t-7 -34.5t-17 -29.5t-32.5 -24.5v-3q20 -9 31.5 -20.5t17.5 -27t7.5 -35t1.5 -43.5z" unicode="3" horiz-adv-x="380"/>
<glyph glyph-name="four" d="M307 110v-110h-79v110h-205v71l146 515h78l-147 -515h128v193h79v-193h49v-71h-49z" unicode="4" horiz-adv-x="380"/>
<glyph glyph-name="five" d="M187 -7q-41 0 -68 12.5t-43.5 34t-24 51t-8.5 63.5l79 11q0 -22 2 -40t9 -31t20 -20.5t36 -7.5q26 0 43 16.5t19 57.5v180q0 59 -58 59q-23 0 -39 -10.5t-24 -28.5h-69v356h270v-71h-200v-210h5q15 15 37 22.5t45 7.5q59 0 84.5 -33t25.5 -81v-188q0 -40 -11 -68.5 t-30.5 -46.5t-45 -26.5t-54.5 -8.5z" unicode="5" horiz-adv-x="380"/>
<glyph glyph-name="six" d="M166 388q21 16 52 16q33 0 54.5 -10.5t34.5 -28.5t18.5 -42t5.5 -50v-146q0 -33 -11.5 -58t-31 -42t-45 -25.5t-53.5 -8.5t-53.5 8.5t-45 25.5t-31 42t-11.5 58v116q0 45 6 75t15 53l129 325h80l-116 -305zM252 277q0 26 -17 40.5t-44 14.5q-18 0 -30 -6.5t-19.5 -17 t-10.5 -23.5t-3 -26v-138q0 -26 17.5 -40.5t44.5 -14.5t44.5 14.5t17.5 40.5v156z" unicode="6" horiz-adv-x="380"/>
<glyph glyph-name="seven" d="M154 0h-76l175 625h-138v-83h-69v154h287v-65z" unicode="7" horiz-adv-x="380"/>
<glyph glyph-name="eight" d="M331 474q0 -38 -15 -65t-39 -44q24 -17 39 -44.5t15 -65.5v-128q0 -33 -11.5 -58t-31 -42t-45 -25.5t-53.5 -8.5t-53.5 8.5t-45 25.5t-31 42t-11.5 58v128q0 38 14.5 65.5t39.5 44.5q-25 17 -39.5 44t-14.5 65v92q0 33 11.5 58.5t31 42.5t45 26t53.5 9t53.5 -9t45 -26 t31 -42.5t11.5 -58.5v-92zM252 273q0 26 -17.5 43t-44.5 17t-44.5 -17t-17.5 -43v-152q0 -26 17.5 -40.5t44.5 -14.5t44.5 14.5t17.5 40.5v152zM252 572q0 26 -17.5 41.5t-44.5 15.5t-44.5 -15.5t-17.5 -41.5v-114q0 -26 17.5 -42t44.5 -16t44.5 16t17.5 42v114z" unicode="8" horiz-adv-x="380"/>
<glyph glyph-name="nine" d="M128 419q0 -26 17 -41.5t44 -15.5q18 0 30 7t19.5 17.5t10.5 24t3 26.5v138q0 26 -17.5 40.5t-44.5 14.5t-44.5 -14.5t-17.5 -40.5v-156zM214 308q-21 -16 -52 -16q-33 0 -54.5 10.5t-34.5 28.5t-18.5 42t-5.5 50v146q0 33 11.5 58t31 42t45 25.5t53.5 8.5q67 0 104 -34 t37 -100v-116q0 -45 -6 -75t-15 -53l-129 -325h-80l116 305z" unicode="9" horiz-adv-x="380"/>
<glyph glyph-name="colon" d="M52 300v91h87v-91h-87zM52 0v91h87v-91h-87z" unicode=":" horiz-adv-x="193"/>
<glyph glyph-name="semicolon" d="M93 -120h-44l24 112h-21v97h87v-95zM52 300v91h87v-91h-87z" unicode=";" horiz-adv-x="193"/>
<glyph glyph-name="less" d="M11 268v53l357 183v-66l-296 -144l296 -143v-66z" unicode="&lt;" horiz-adv-x="380"/>
<glyph glyph-name="equal" d="M9 341v63h363v-63h-363zM9 188v63h363v-63h-363z" unicode="=" horiz-adv-x="380"/>
<glyph glyph-name="greater" d="M12 85v66l296 143l-296 144v66l357 -183v-53z" unicode="&gt;" horiz-adv-x="380"/>
<glyph glyph-name="question" d="M349 533q0 -26 -2 -44.5t-7 -34.5t-13.5 -32.5t-21.5 -38.5l-46 -79q-8 -13 -13.5 -27t-5.5 -31v-69h-78v83q0 20 6 39t17 36q27 43 43 69t25 45t12 36t3 43q0 20 -3 38t-11.5 31.5t-23.5 21.5t-39 8q-32 0 -54 -22t-22 -73l-80 9q0 41 12.5 71.5t33.5 50.5t49.5 29.5 t60.5 9.5q84 0 121 -44t37 -125zM161 0v80h78v-80h-78z" unicode="?" horiz-adv-x="371"/>
<glyph glyph-name="at" d="M486 259q0 -29 13 -44t31 -15q21 0 38.5 7t30 27.5t19.5 56t7 92.5q0 61 -17.5 109.5t-48.5 82t-74.5 51t-94.5 17.5q-69 0 -119.5 -24t-82.5 -65.5t-47.5 -98t-15.5 -120.5q0 -71 16.5 -128.5t50 -99t83.5 -64t117 -22.5q49 0 87 8.5t82 34.5l25 -57q-43 -20 -90.5 -33 t-98.5 -13q-79 0 -141.5 24t-106 71t-66.5 117t-23 162q0 82 21.5 150t63 116.5t102.5 75t140 26.5q75 0 132 -24t95.5 -66.5t58 -101.5t19.5 -128t-13 -115.5t-35.5 -75t-52.5 -41t-65 -12.5q-8 0 -21 3.5t-26 11t-23.5 19.5t-14.5 28l-1 -1q-12 -22 -41 -37t-62 -15 q-26 0 -43 10t-27.5 26t-15 36.5t-4.5 41.5q0 22 5.5 44.5t18.5 40.5t34 29.5t52 11.5h64v52q0 23 -12.5 36.5t-39.5 13.5q-17 0 -33 -9.5t-19 -30.5l-62 16q10 39 42.5 61t74.5 22q49 0 81.5 -24t32.5 -84v-182zM421 333h-47q-25 0 -44.5 -14.5t-19.5 -53.5q0 -24 13.5 -40 t42.5 -16q27 0 41 17.5t14 45.5v61z" unicode="@" horiz-adv-x="752"/>
<glyph glyph-name="A" d="M307 0l-32 155h-155l-31 -155h-76l148 696h74l150 -696h-78zM195 554l-29 -162l-33 -163h128l-34 165l-28 160h-4z" unicode="A" horiz-adv-x="395"/>
<glyph glyph-name="B" d="M291 365q46 -14 62.5 -56.5t16.5 -103.5q0 -108 -44.5 -156.5t-138.5 -48.5h-134v696h147q90 0 127 -48t37 -136q0 -55 -16 -87.5t-57 -55.5v-4zM294 213q0 57 -21.5 88t-82.5 31h-58v-261h62q33 0 52.5 11.5t30 31t14 45t3.5 54.5zM288 513q0 54 -23.5 82.5t-78.5 28.5 h-54v-223h53q55 0 79 29t24 83z" unicode="B" horiz-adv-x="414"/>
<glyph glyph-name="C" d="M204 702q81 0 117.5 -44t36.5 -115l-79 -14q1 46 -16.5 73t-59.5 27q-24 0 -39 -11t-23.5 -27.5t-11.5 -36.5t-3 -38v-351q0 -15 3 -32.5t11.5 -32t23 -24.5t38.5 -10q39 0 57.5 24t19.5 76l81 -14q-2 -75 -40.5 -117t-115.5 -42q-79 0 -118 44t-39 124v344 q0 37 6.5 72.5t23.5 63t48 44.5t79 17z" unicode="C" horiz-adv-x="384"/>
<glyph glyph-name="D" d="M215 696q62 0 98 -21.5t50 -72.5q11 -42 11 -104v-149v-145.5t-13 -100.5q-19 -59 -60.5 -81t-94.5 -22h-153v696h162zM294 522q0 47 -20 74t-71 27h-71v-551h71q49 0 70 27t21 77v346z" unicode="D" horiz-adv-x="423"/>
<glyph glyph-name="E" d="M53 0v696h298v-73h-219v-233h190v-73h-190v-245h219v-72h-298z" unicode="E" horiz-adv-x="366"/>
<glyph glyph-name="F" d="M53 0v696h298v-73h-219v-233h190v-73h-190v-317h-79z" unicode="F" horiz-adv-x="366"/>
<glyph glyph-name="G" d="M207 -7q-79 0 -118 44t-39 124v344q0 37 6.5 72.5t23.5 63t48 44.5t79 17q81 0 116.5 -41.5t37.5 -112.5l-79 -19q1 46 -16.5 73t-59.5 27q-24 0 -39 -11t-23.5 -27.5t-11.5 -36.5t-3 -38v-351q0 -15 3 -32.5t11.5 -32t23 -24.5t38.5 -10h1q38 0 60 20t22 55v166h-81v69 h160v-225q0 -39 -12.5 -68.5t-34 -49.5t-51 -30t-62.5 -10z" unicode="G" horiz-adv-x="414"/>
<glyph glyph-name="H" d="M294 0v321h-162v-321h-79v696h79v-306h162v306h79v-696h-79z" unicode="H" horiz-adv-x="427"/>
<glyph glyph-name="I" d="M56 0v696h80v-696h-80z" unicode="I" horiz-adv-x="192"/>
<glyph glyph-name="J" d="M297 696v-518q0 -91 -39.5 -138t-120.5 -47q-43 0 -77 16t-55 50l58 47q11 -16 31.5 -28.5t41.5 -12.5q44 0 63 28.5t19 73.5v529h79z" unicode="J" horiz-adv-x="363"/>
<glyph glyph-name="K" d="M326 0l-126 334l-68 -132v-202h-79v696h79v-347h2l168 347h79l-135 -275l160 -421h-80z" unicode="K" horiz-adv-x="414"/>
<glyph glyph-name="L" d="M53 0v696h79v-624h203v-72h-282z" unicode="L" horiz-adv-x="340"/>
<glyph glyph-name="M" d="M427 482l-55 -144l-72 -169h-37l-72 169l-55 144h-4v-482h-79v696h80l83 -217l64 -170h3l66 175l81 212h81v-696h-79v482h-5z" unicode="M" horiz-adv-x="564"/>
<glyph glyph-name="N" d="M129 476v-476h-79v696h75l144 -353l48 -127l4 1v479h79v-696h-74l-144 350l-50 126h-3z" unicode="N" horiz-adv-x="450"/>
<glyph glyph-name="O" d="M367 187q0 -93 -36.5 -143.5t-124.5 -50.5q-86 0 -122.5 47t-36.5 124v343q0 37 6.5 72t24 62.5t48.5 44t81 16.5q52 0 83.5 -14.5t48.5 -40.5t22.5 -61t5.5 -77v-322zM288 522q0 18 -2.5 37t-10.5 34.5t-24.5 26t-43.5 10.5q-30 0 -46 -14.5t-24 -34.5t-9.5 -42.5 t-1.5 -37.5v-338q0 -15 3 -32t12 -32t24.5 -24.5t40.5 -9.5t41 10t25 25.5t12.5 35.5t3.5 41v345z" unicode="O" horiz-adv-x="414"/>
<glyph glyph-name="P" d="M195 696q53 0 87 -14t54 -40.5t27.5 -65t7.5 -87.5q0 -44 -7 -82t-27 -66.5t-55.5 -44.5t-92.5 -16h-57v-280h-79v696h142zM132 354h54q36 0 57.5 11t33 29t14.5 42t3 51q0 28 -3.5 53t-14.5 43.5t-32 29t-56 10.5h-56v-269z" unicode="P" horiz-adv-x="395"/>
<glyph glyph-name="Q" d="M367 187q0 -69 -19 -113l56 -45l-39 -48l-54 43q-39 -31 -104 -31q-86 0 -123 47t-37 124v343q0 37 6.5 72t24 62.5t48.5 44t81 16.5q52 0 83.5 -14.5t48.5 -40.5t22.5 -61t5.5 -77v-322zM288 522q0 18 -2.5 37t-10.5 34.5t-24.5 26t-43.5 10.5q-30 0 -46 -14.5 t-24 -34.5t-9.5 -42.5t-1.5 -37.5v-338q0 -15 3 -32t12 -32t24.5 -24.5t40.5 -9.5q26 0 42 10l-59 49l39 47l54 -44q6 22 6 50v345z" unicode="Q" horiz-adv-x="414"/>
<glyph glyph-name="R" d="M306 0l-99 305h-75v-305h-79v696h153q85 0 125 -49t40 -149q0 -60 -18 -106t-72 -71l106 -321h-81zM291 498q0 28 -4 51t-15.5 39.5t-30.5 25.5t-49 9h-60v-245h67q27 0 45 8.5t28.5 24.5t14.5 38t4 49z" unicode="R" horiz-adv-x="414"/>
<glyph glyph-name="S" d="M360 190q0 -45 -8.5 -81t-28 -62t-50.5 -40t-77 -14q-42 0 -73 12t-51 33.5t-29.5 50.5t-9.5 63l79 16q0 -20 4 -37.5t13.5 -31.5t26 -22t40.5 -8q30 0 47.5 9.5t26 26t10.5 38.5t2 46q0 31 -3 50.5t-13 34t-28.5 25.5t-49.5 24q-49 21 -78.5 42.5t-45.5 45t-21 50 t-5 58.5q0 40 10 73.5t30.5 58t51.5 38t72 13.5q45 0 75.5 -14t49 -36.5t26 -49.5t7.5 -53l-78 -20q0 47 -19 72.5t-65 25.5q-26 0 -41.5 -10t-24.5 -25.5t-12 -34.5t-3 -37q0 -22 2.5 -38.5t13.5 -31t32.5 -28.5t60.5 -29q45 -18 71.5 -37.5t40.5 -43.5t18 -54t4 -68z" unicode="S" horiz-adv-x="394"/>
<glyph glyph-name="T" d="M200 624v-624h-80v624h-118v72h316v-72h-118z" unicode="T" horiz-adv-x="320"/>
<glyph glyph-name="U" d="M370 695v-508q0 -93 -36 -143.5t-124 -50.5q-86 0 -123 47t-37 124v531h79v-532q0 -15 3 -32t12 -32t24.5 -24.5t40.5 -9.5t41 10t25 25.5t12.5 35.5t3.5 41v518h79z" unicode="U" horiz-adv-x="420"/>
<glyph glyph-name="V" d="M239 -1h-86l-130 697h81l52 -294l39 -242h3l40 244l53 292h81z" unicode="V" horiz-adv-x="395"/>
<glyph glyph-name="W" d="M456 -1h-74l-61 329l-30 180h-3l-31 -184l-60 -325h-73l-101 697h82l37 -297l22 -200h3l32 198l55 299h73l53 -295l34 -202h3l22 204l35 293h83z" unicode="W" horiz-adv-x="581"/>
<glyph glyph-name="X" d="M285 -1l-97 276l-96 -276h-83l139 366l-128 331h83l85 -245l86 245h83l-131 -331l142 -366h-83z" unicode="X" horiz-adv-x="377"/>
<glyph glyph-name="Y" d="M190 408l90 288h83l-136 -402v-295h-78v295l-136 402h83l51 -163l39 -125h4z" unicode="Y" horiz-adv-x="376"/>
<glyph glyph-name="Z" d="M302 624l-201 -552h200v-72h-281v72l203 552h-193v72h272v-72z" unicode="Z" horiz-adv-x="321"/>
<glyph glyph-name="bracketleft" d="M63 -101v798h134v-49h-66v-700h66v-49h-134z" unicode="[" horiz-adv-x="210"/>
<glyph glyph-name="backslash" d="M136 -7l-125 709h60l125 -709h-60z" unicode="\" horiz-adv-x="210"/>
<glyph glyph-name="bracketright" d="M14 -102v50h66v700h-66v49h133v-799h-133z" unicode="]" horiz-adv-x="210"/>
<glyph glyph-name="asciicircum" d="M165 693h53l153 -357h-64l-116 284l-115 -284h-64z" unicode="^" horiz-adv-x="380"/>
<glyph glyph-name="underscore" d="M0 -131v61h500v-61h-500z" unicode="_" horiz-adv-x="500"/>
<glyph glyph-name="grave" d="M166 556l-96 160l71 25l68 -168z" unicode="`" horiz-adv-x="357"/>
<glyph glyph-name="a" d="M239 43q-20 -27 -45.5 -38t-57.5 -11q-31 0 -52 12.5t-33.5 33t-18 46t-5.5 52.5q0 28 6 56t21 51t41 37.5t67 14.5h78v66q0 29 -13.5 46t-51.5 17q-20 0 -39 -12t-24 -39l-75 21q11 49 48 77t94 28q67 0 104 -30.5t37 -106.5v-364h-80v43h-1zM240 228h-58 q-31 0 -54.5 -18.5t-23.5 -66.5q0 -35 15 -53.5t47 -18.5q37 0 55.5 21t18.5 58v78z" unicode="a" horiz-adv-x="361"/>
<glyph glyph-name="b" d="M212 -6q-39 0 -57 11.5t-34 33.5l-2 -1v-38h-79v726h79v-279h2q15 27 44 39.5t52 12.5q41 0 64.5 -15.5t35.5 -42.5t15.5 -63.5t3.5 -78.5q0 -43 -0.5 -89.5t-5.5 -94.5q-5 -41 -18.5 -65t-31.5 -36.5t-36.5 -16t-31.5 -3.5zM185 71q25 0 39 9.5t21.5 30.5t9.5 53.5 t2 78.5q0 48 -1.5 81.5t-8 55.5t-21 32t-41.5 10q-28 0 -47.5 -21t-19.5 -50v-202q0 -34 17 -56t50 -22z" unicode="b" horiz-adv-x="368"/>
<glyph glyph-name="c" d="M173 -7q-31 0 -53.5 8t-38.5 21t-25.5 30.5t-14.5 35.5q-3 12 -5 30t-2.5 39.5t-1 43.5t-0.5 41q0 25 1 51.5t2.5 50.5t4.5 43.5t8 31.5q14 38 46 60t88 22q74 0 105.5 -39.5t31.5 -106.5l-82 -11q0 45 -15.5 65t-42.5 20q-20 0 -34.5 -9t-23.5 -32q-6 -15 -8 -59 t-3 -104q0 -33 1 -64.5t6 -48.5q7 -22 21.5 -34.5t40.5 -12.5q31 0 44.5 22t13.5 60l81 -14q-2 -68 -36.5 -104t-108.5 -36z" unicode="c" horiz-adv-x="339"/>
<glyph glyph-name="d" d="M153 -6q-14 0 -32.5 3.5t-36 16t-32 36.5t-18.5 65q-3 30 -3.5 63t-0.5 62q0 54 2.5 101.5t15 82.5t38.5 55.5t73 20.5q29 0 50 -10.5t35 -30.5h2v267h79v-726h-79v38l-2 1q-16 -22 -34 -33.5t-57 -11.5zM180 71q33 0 50 22t17 56v196q0 35 -16 56t-51 21 q-22 0 -35.5 -8.5t-21 -29.5t-10.5 -55.5t-3 -85.5q0 -46 1.5 -78.5t8.5 -53.5t21 -30.5t39 -9.5z" unicode="d" horiz-adv-x="369"/>
<glyph glyph-name="e" d="M180 66q29 0 43.5 19.5t16.5 54.5l81 -15q-4 -64 -39.5 -98t-107.5 -34q-32 0 -55 8.5t-39 22t-25.5 30.5t-13.5 34q-3 12 -5 30t-3 39.5t-1.5 43.5t-0.5 41q0 25 0.5 50.5t2.5 48.5t5 42.5t8 32.5q14 39 46.5 62t88.5 23q74 0 107 -41t33 -113v-122h-212q0 -33 1.5 -65 t6.5 -49q14 -45 62 -45zM242 289v42q0 19 -2.5 36.5t-9.5 30.5t-19.5 20.5t-32.5 7.5q-18 0 -33 -8.5t-24 -31.5q-5 -14 -7 -38t-3 -59h131z" unicode="e" horiz-adv-x="357"/>
<glyph glyph-name="f" d="M141 427v-427h-80v427h-50v66h50v121q0 56 30 84t81 28h46v-74h-32q-23 0 -34 -13.5t-11 -34.5v-111h77v-66h-77z" unicode="f" horiz-adv-x="246"/>
<glyph glyph-name="g" d="M247 47q-15 -27 -44 -39.5t-52 -12.5q-41 0 -65 17.5t-36 47t-15.5 67.5t-3.5 80v83.5t5 88.5q4 41 18.5 65t32.5 36.5t36.5 16t32.5 3.5q39 0 57 -11.5t34 -33.5l2 1v38h79v-531q0 -30 -6 -59t-22 -52t-44.5 -37t-74.5 -14q-66 0 -101 32.5t-37 91.5l79 15 q1 -30 14.5 -48t48.5 -18q17 0 29.5 7t20 18.5t11 25.5t3.5 29v93h-2zM183 423q-25 0 -39 -9.5t-21.5 -30.5t-9.5 -53.5t-2 -78.5q0 -48 1.5 -81.5t8 -55.5t21 -32t41.5 -10q28 0 47.5 21t19.5 50v202q0 34 -17 56t-50 22z" unicode="g" horiz-adv-x="370"/>
<glyph glyph-name="h" d="M117 445h3q35 54 101 54q55 0 82.5 -35.5t27.5 -92.5v-371h-80v350q0 32 -17 50.5t-50 18.5q-32 0 -50 -19t-18 -54v-346h-78v726h79v-281z" unicode="h" horiz-adv-x="369"/>
<glyph glyph-name="i" d="M44 616v80h80v-80h-80zM44 0v494h80v-494h-80z" unicode="i" horiz-adv-x="170"/>
<glyph glyph-name="j" d="M48 617v80h80v-80h-80zM128 -69q0 -26 -5.5 -49.5t-18.5 -41.5t-35.5 -28.5t-56.5 -10.5h-30v75h14q34 0 43 15t9 56v547h80v-563z" unicode="j" horiz-adv-x="176"/>
<glyph glyph-name="k" d="M123 257l138 237h88l-114 -191l135 -303h-85l-101 234l-63 -114v-120h-79v726h79v-469h2z" unicode="k" horiz-adv-x="374"/>
<glyph glyph-name="l" d="M49 726h80v-596q0 -34 8.5 -49.5t38.5 -15.5h12v-72h-16q-32 0 -55 5.5t-38 19t-22.5 37.5t-7.5 61v610z" unicode="l" horiz-adv-x="210"/>
<glyph glyph-name="m" d="M538 0h-79v350q0 32 -16 50.5t-45 18.5q-27 0 -46.5 -19t-19.5 -51v-349h-79v350q0 32 -16 50.5t-45 18.5t-47.5 -21t-18.5 -56v-342h-78v494h79v-49h3q17 26 38.5 40t53.5 14q35 0 58.5 -14.5t36.5 -40.5q23 25 49 40t62 15q55 0 82.5 -35.5t27.5 -92.5v-371z" unicode="m" horiz-adv-x="586"/>
<glyph glyph-name="n" d="M114 445h3q35 54 101 54q55 0 82.5 -35.5t27.5 -92.5v-371h-80v350q0 32 -15 50.5t-48 18.5q-32 0 -52 -21t-20 -56v-342h-78v494h79v-49z" unicode="n" horiz-adv-x="366"/>
<glyph glyph-name="o" d="M186 501q42 0 68.5 -11t42.5 -30.5t23 -46t9 -57.5q2 -29 3 -62t1 -59q0 -57 -6 -114q-5 -40 -20 -65t-36.5 -39t-46.5 -19t-49 -5q-31 0 -53.5 8t-38.5 21t-26 30.5t-15 35.5q-3 12 -5 30t-2.5 39.5t-1 43.5t-0.5 41q0 25 1 51.5t3 50.5t5 43.5t8 31.5q14 38 47 60 t89 22zM184 429q-20 0 -36.5 -9t-25.5 -32q-6 -14 -8 -58.5t-3 -104.5q0 -33 1 -64.5t6 -48.5q14 -46 66 -46q21 0 37 12.5t24 32.5q2 5 4 18.5t3.5 32t2 39.5t0.5 42t-0.5 41.5t-1 39.5t-2 34t-4.5 24q-14 47 -63 47z" unicode="o" horiz-adv-x="362"/>
<glyph glyph-name="p" d="M205 501q13 0 32 -3.5t36.5 -16t31.5 -36.5t19 -65q3 -30 3.5 -63t0.5 -62q0 -54 -2.5 -101.5t-15 -82.5t-38.5 -55.5t-73 -20.5q-29 0 -50 10.5t-35 30.5h-2v-228h-79v687h79v-38l2 -1q16 22 34 33.5t57 11.5zM178 424q-33 0 -50 -22t-17 -56v-196q0 -35 16 -56t51 -21 q22 0 35.5 8.5t21 29.5t10.5 55.5t3 85.5q0 46 -1.5 78.5t-8.5 53.5t-21 30.5t-39 9.5z" unicode="p" horiz-adv-x="364"/>
<glyph glyph-name="q" d="M249 -194v241h-2q-15 -27 -44 -39.5t-52 -12.5q-41 0 -65 17.5t-36 47t-15.5 67.5t-3.5 80v83.5t5 88.5q4 41 18.5 65t32.5 36.5t36.5 16t32.5 3.5q39 0 57 -11.5t34 -33.5l2 1v38h79v-688h-79zM183 423q-25 0 -39 -9.5t-21.5 -30.5t-9.5 -53.5t-2 -78.5q0 -48 1.5 -81.5 t8 -55.5t21 -32t41.5 -10q28 0 47.5 21t19.5 50v202q0 34 -17 56t-50 22z" unicode="q" horiz-adv-x="368"/>
<glyph glyph-name="r" d="M131 438q19 38 44 50.5t63 12.5h9v-95q-8 1 -14.5 1.5t-13.5 0.5q-43 0 -66.5 -20.5t-23.5 -72.5v-315h-79v494h79v-56h2z" unicode="r" horiz-adv-x="257"/>
<glyph glyph-name="s" d="M111 140q-1 -34 14 -54t44 -20q37 0 51 17t14 54q0 17 -3 29.5t-11 22t-22 17.5t-37 17q-38 14 -62.5 30t-38 34t-18.5 38t-5 42q0 59 34.5 96.5t103.5 37.5q74 0 105.5 -36.5t31.5 -99.5l-82 -11q2 39 -14 56.5t-42 17.5q-18 0 -30 -5.5t-18.5 -14.5t-9 -20t-2.5 -21 q0 -12 3 -22.5t12 -20t25 -18.5t43 -18q37 -13 59.5 -28.5t34.5 -34t15.5 -40t3.5 -47.5q0 -66 -32.5 -105.5t-104.5 -39.5t-106.5 34.5t-36.5 99.5z" unicode="s" horiz-adv-x="339"/>
<glyph glyph-name="t" d="M142 494h64v-61h-64v-298q0 -38 12.5 -49t35.5 -11h15v-75h-40q-32 0 -52 10t-31.5 26t-15.5 35.5t-4 38.5v323h-52v61h54v121h78v-121z" unicode="t" horiz-adv-x="231"/>
<glyph glyph-name="u" d="M250 50h-3q-35 -54 -101 -54q-55 0 -82.5 35.5t-27.5 92.5v371h80v-350q0 -73 64 -73q29 0 50 21t21 56v346h78v-494h-79v49z" unicode="u" horiz-adv-x="369"/>
<glyph glyph-name="v" d="M214 0h-91l-118 494h84l43 -204l36 -173h3l37 177l41 200h83z" unicode="v" horiz-adv-x="337"/>
<glyph glyph-name="w" d="M429 0h-81l-34 150l-38 187h-4l-36 -180l-35 -157h-80l-111 494h83l35 -179l35 -190h3l34 192l36 177h81l33 -172l36 -200h3l34 196l34 176h83z" unicode="w" horiz-adv-x="550"/>
<glyph glyph-name="x" d="M239 0l-71 171l-75 -171h-87l121 252l-117 242h89l69 -163l65 163h92l-114 -241l116 -253h-88z" unicode="x" horiz-adv-x="332"/>
<glyph glyph-name="y" d="M191 -83q-12 -50 -38 -80.5t-79 -30.5h-30v68h20q28 0 40.5 18.5t23.5 68.5l8 35l-131 498h84l42 -189l40 -171h3l37 173l41 187h81z" unicode="y" horiz-adv-x="336"/>
<glyph glyph-name="z" d="M283 424l-174 -349h174v-75h-260v75l174 349h-161v69h247v-69z" unicode="z" horiz-adv-x="306"/>
<glyph glyph-name="braceleft" d="M170 -103q-37 0 -62 29t-25 78v140q0 53 -13 88t-51 40v51q19 3 31 14.5t19.5 29t10.5 40t3 46.5v137q0 50 25 79t62 29h44v-54h-19q-13 0 -21 -8t-13 -20.5t-7 -28t-2 -30.5v-126q0 -32 -6.5 -55.5t-16.5 -39.5t-20.5 -24.5t-17.5 -11.5v-3q7 -3 17.5 -11.5t20.5 -24.5 t16.5 -39t6.5 -54v-131q0 -15 2 -30.5t7 -28t13 -20.5t21 -8h19v-53h-44z" unicode="{" horiz-adv-x="230"/>
<glyph glyph-name="bar" d="M75 -162v878h63v-878h-63z" unicode="|" horiz-adv-x="210"/>
<glyph glyph-name="braceright" d="M20 -103v53h19q13 0 21 8t13 20.5t7 28t2 30.5v131q0 31 6.5 54t16.5 39t20 24.5t18 11.5v3q-8 3 -18 11.5t-20 24.5t-16.5 39.5t-6.5 55.5v126q0 15 -2 30.5t-7 28t-13 20.5t-21 8h-19v54h44q37 0 62 -29t25 -79v-137q0 -24 3 -46.5t10.5 -40t19.5 -29t31 -14.5v-51 q-38 -5 -51 -40t-13 -88v-140q0 -49 -25 -78t-62 -29h-44z" unicode="}" horiz-adv-x="230"/>
<glyph glyph-name="asciitilde" d="M112 299q24 0 44 -7t38.5 -15.5t36 -15.5t36.5 -7t28.5 9t27.5 30l45 -27q-18 -33 -42.5 -57t-59.5 -24q-19 0 -37.5 7.5t-38 16.5t-39 16.5t-40.5 7.5q-19 0 -30 -8.5t-30 -30.5l-41 29q17 30 42 53t60 23z" unicode="~" horiz-adv-x="380"/>
<glyph glyph-name="exclamdown" d="M81 323h66l7 -519h-80zM154 501v-80h-80v80h80z" unicode="¡" horiz-adv-x="228"/>
<glyph glyph-name="cent" d="M170 -117v111q-53 5 -79.5 32t-35.5 62q-3 12 -5 30t-2.5 39.5t-1 43.5t-0.5 41q0 25 1 51.5t2.5 50.5t4.5 43.5t8 31.5q12 33 38 54t70 26v102h35v-100q69 -3 98.5 -42t29.5 -104l-82 -11q0 39 -12 59t-34 25v-362q24 4 35 25t11 56l81 -14q-2 -64 -32.5 -99t-94.5 -40 v-111h-35zM131 112q5 -17 14 -28t25 -16v359q-22 -7 -35 -39q-11 -25 -11 -148q0 -45 1 -78t6 -50z" unicode="¢" horiz-adv-x="380"/>
<glyph glyph-name="sterling" d="M192 702q72 0 115.5 -40t41.5 -115l-79 -19q1 46 -17.5 73.5t-59.5 27.5q-31 0 -50.5 -21.5t-19.5 -55.5q0 -18 5 -36.5t11.5 -40t13.5 -48t12 -60.5h95v-65h-90v-17q0 -66 -14.5 -115t-37.5 -99h219v-71h-307v71q13 25 24.5 49t19.5 49t12.5 52t4.5 60q0 5 -0.5 10.5 t-0.5 10.5h-58v65h53q-5 31 -12 53.5t-14.5 41.5t-12.5 38.5t-5 45.5q0 71 40.5 113.5t110.5 42.5z" unicode="£" horiz-adv-x="380"/>
<glyph glyph-name="currency" d="M245 422q-45 0 -73 -31.5t-28 -75.5q0 -20 8.5 -37.5t23 -30.5t32.5 -21t37 -8q21 0 39.5 8t32.5 22t22.5 32t8.5 39q0 44 -29.5 73.5t-73.5 29.5zM51 467q11 11 23.5 24t23.5 24l54 -56q45 30 94 30q26 0 48.5 -7.5t45.5 -22.5l54 57l13.5 -13.5l10.5 -10.5t10.5 -11 t13.5 -14l-56 -54q30 -45 30 -94q0 -47 -30 -92q13 -12 28 -27.5t28 -26.5q-8 -8 -13.5 -14t-10.5 -11t-10.5 -11t-13.5 -13l-54 56q-42 -29 -94 -29q-50 0 -94 29l-55 -56l-47 49l56 54q-29 43 -29 92q0 50 29 94z" unicode="¤" horiz-adv-x="492"/>
<glyph glyph-name="yen" d="M238 333h103v-49h-115v-61h115v-50h-115v-174h-72v174h-113v50h113v61h-113v49h101l-118 363h77l87 -299h3l88 299h77z" unicode="¥" horiz-adv-x="380"/>
<glyph glyph-name="brokenbar" d="M75 294v422h63v-422h-63zM138 257v-419h-63v419h63z" unicode="¦" horiz-adv-x="210"/>
<glyph glyph-name="section" d="M386 293q0 -38 -17 -67.5t-48 -49.5q20 -24 31 -50t11 -55q0 -67 -45.5 -106t-123.5 -39q-42 0 -81.5 17t-66.5 43l44 49q29 -26 52.5 -35.5t53.5 -9.5q45 0 67.5 22t22.5 55q0 32 -27 60.5t-83 59.5q-33 18 -57.5 34.5t-40 34.5t-23.5 39.5t-8 50.5q0 35 19 65.5 t50 49.5q-23 22 -34.5 45.5t-11.5 55.5q0 30 11.5 56t31.5 44.5t48 29t61 10.5q47 0 84.5 -16t66.5 -43l-49 -50q-29 26 -53.5 35t-48.5 9q-35 0 -55 -20.5t-20 -48.5q0 -33 24.5 -55.5t66.5 -47.5q30 -18 57 -35.5t47 -38t32 -44.5t12 -54zM311 289q0 18 -7.5 33t-24 29.5 t-43 29.5t-64.5 33q-23 -5 -36 -22t-13 -40q0 -20 14.5 -38.5t36 -35t46.5 -30.5t46 -25q23 8 34 26.5t11 39.5z" unicode="§" horiz-adv-x="423"/>
<glyph glyph-name="dieresis" d="M225 589v80h68v-80h-68zM71 589v80h69v-80h-69z" unicode="¨" horiz-adv-x="362"/>
<glyph glyph-name="copyright" d="M349 -8q-75 0 -131.5 26.5t-94.5 73.5t-57.5 110.5t-19.5 138.5t19.5 139.5t57.5 111.5t95 73.5t131 26.5q73 0 129 -26.5t94.5 -73.5t58.5 -111.5t20 -139.5t-20 -138.5t-58.5 -110.5t-94.5 -73.5t-129 -26.5zM349 642q-63 0 -109 -23.5t-76.5 -64.5t-45.5 -96t-15 -117 t16 -116t47.5 -94.5t77.5 -64t105 -23.5q61 0 107 23.5t77 64t46 94.5t15 116t-16 117t-46.5 96t-76.5 64.5t-106 23.5zM353 542q23 0 44 -7t36.5 -21t24 -34t7.5 -47l-55 -13q1 32 -14.5 51t-44.5 19q-25 0 -40.5 -16.5t-15.5 -37.5v-209q0 -22 16 -37t40 -15q29 0 43 16.5 t16 52.5l55 -10q0 -59 -32.5 -85.5t-79.5 -26.5q-23 0 -44 7t-36.5 21t-24.5 35t-9 49v197q0 53 32.5 82t81.5 29z" unicode="©" horiz-adv-x="703"/>
<glyph glyph-name="ordfeminine" d="M20 534q8 35 35 56t68 21q48 0 75 -20.5t27 -73.5v-238h-66v22q-14 -14 -30 -20t-36 -6q-23 0 -38 8.5t-24 22.5t-13 31.5t-4 35.5t4 37t15 34.5t30 25t48 9.5h48v38q0 17 -7.5 26t-30.5 9q-12 0 -24 -8t-16 -27zM159 424h-33q-20 0 -34 -10.5t-14 -37.5q0 -41 37 -41 q23 0 33.5 12.5t10.5 33.5v43z" unicode="ª" horiz-adv-x="249"/>
<glyph glyph-name="guillemotleft" d="M313 46l-107 186l107 186h78l-105 -186l105 -186h-78zM151 46l-107 186l107 186h78l-106 -186l106 -186h-78z" unicode="«" horiz-adv-x="434"/>
<glyph glyph-name="logicalnot" d="M370 100h-59v164h-302v60h362z" unicode="¬" horiz-adv-x="380"/>
<glyph glyph-name="sfthyphen" d="M49 253v67h259v-67h-259z" unicode="­" horiz-adv-x="346"/>
<glyph glyph-name="registered" d="M243 271q-47 0 -83 16.5t-60 46t-36.5 69.5t-12.5 87q0 48 12.5 88.5t36.5 70t60 46t83 16.5q46 0 81.5 -16.5t59.5 -46t36.5 -70t12.5 -88.5q0 -47 -12.5 -87t-36.5 -69.5t-59.5 -46t-81.5 -16.5zM243 676q-39 0 -67 -14.5t-47 -39.5t-28 -58.5t-9 -71.5q0 -40 10 -73.5 t29 -57.5t47 -37.5t65 -13.5q39 0 67 14t46 38.5t26.5 58t8.5 71.5t-9.5 71.5t-28 58.5t-46.5 39.5t-64 14.5zM276 354l-37 108h-24v-108h-43v267h70q73 0 73 -81q0 -23 -7.5 -41.5t-27.5 -29.5q10 -29 21 -57.5t22 -57.5h-47zM272 540q0 20 -7.5 31.5t-28.5 11.5h-21v-84 h24q19 0 26 11.5t7 29.5z" unicode="®" horiz-adv-x="486"/>
<glyph glyph-name="macron" d="M71 588v67h239v-67h-239z" unicode="¯" horiz-adv-x="361"/>
<glyph glyph-name="degree" d="M245 600q0 -21 -8 -39.5t-21.5 -32.5t-32 -22t-39.5 -8t-39.5 8t-32 22t-21.5 32.5t-8 39.5t8 39.5t21.5 32.5t32 22t39.5 8t39.5 -8t32 -22t21.5 -32.5t8 -39.5zM144 657q-23 0 -39.5 -16.5t-16.5 -40.5t16.5 -40.5t39.5 -16.5t39.5 16.5t16.5 40.5t-16.5 40.5 t-39.5 16.5z" unicode="°" horiz-adv-x="281"/>
<glyph glyph-name="plusminus" d="M9 -1v60h363v-60h-363zM220 264v-164h-59v164h-152v60h152v164h59v-164h152v-60h-152z" unicode="±" horiz-adv-x="380"/>
<glyph glyph-name="twosuperior" d="M126 733q-38 0 -38 -71l-62 10q-1 53 22.5 84.5t78.5 31.5q51 0 74 -25.5t23 -68.5q0 -25 -6.5 -49.5t-20.5 -48.5q-25 -45 -48 -85t-49 -85h121v-57h-192v46l116 206q10 17 13 35.5t3 35.5q0 16 -6 28.5t-29 12.5z" unicode="²" horiz-adv-x="247"/>
<glyph glyph-name="threesuperior" d="M221 458q0 -50 -26.5 -71.5t-67.5 -21.5q-29 0 -48.5 8t-31 22t-16 33t-2.5 42l63 8q-3 -28 5.5 -44t30.5 -16q15 0 24 9.5t9 29.5v58q0 42 -44 42h-26v51h27q43 0 43 38v50q0 14 -7 25.5t-27 11.5q-22 0 -31 -16t-9 -43l-63 9q2 45 27.5 74.5t78.5 29.5q27 0 44.5 -7 t28 -19t14.5 -28t4 -34v-38q0 -23 -3 -41.5t-29 -33.5q23 -11 27.5 -28.5t4.5 -46.5v-53z" unicode="³" horiz-adv-x="247"/>
<glyph glyph-name="acute" d="M136 573l68 168l71 -25l-96 -160z" unicode="´" horiz-adv-x="357"/>
<glyph glyph-name="paragraph" d="M131 324h-11q-51 0 -79.5 51t-28.5 133q0 38 6.5 73.5t21 63t38.5 44t59 16.5h238v-81h-45v-706h-68v706h-62v-706h-69v406z" unicode="¶" horiz-adv-x="399"/>
<glyph glyph-name="periodcentered" d="M52 221v91h87v-91h-87z" unicode="·" horiz-adv-x="193"/>
<glyph glyph-name="cedilla" d="M201 17l-19 -72q23 -2 38 -9.5t23.5 -18.5t12 -23.5t3.5 -23.5q0 -12 -4.5 -25t-14 -24t-25.5 -18t-38 -7q-8 0 -33 2t-47 13l13 36q17 -8 31 -10t26 -2q15 0 26.5 8.5t11.5 25.5q0 19 -11.5 29.5t-40.5 8.5l-16 14l27 98z" unicode="¸" horiz-adv-x="431"/>
<glyph glyph-name="onesuperior" d="M104 369v353q-15 -11 -32.5 -24t-32.5 -24v63l66 48h60v-416h-61z" unicode="¹" horiz-adv-x="210"/>
<glyph glyph-name="ordmasculine" d="M128 611q44 0 66 -16.5t30 -39.5q3 -9 5 -24t3 -32.5t1.5 -35t0.5 -32.5q0 -19 -1 -35t-3 -34q-3 -27 -13.5 -44t-25 -27t-32 -13.5t-34.5 -3.5q-24 0 -42 6t-30 15.5t-19 21t-10 22.5q-4 15 -5 45t-1 55q0 33 3 66.5t9 48.5q11 28 34.5 42.5t63.5 14.5zM127 553 q-12 0 -22 -4.5t-15 -17.5q-3 -10 -5 -38t-2 -65v-40.5t4 -30.5q6 -26 40 -26q16 0 25 7.5t11 14.5q5 11 6.5 35.5t1.5 51.5q0 26 -1 51t-5 38q-8 24 -38 24z" unicode="º" horiz-adv-x="249"/>
<glyph glyph-name="guillemotright" d="M45 46l105 186l-105 186h78l107 -186l-107 -186h-78zM207 46l106 186l-106 186h78l107 -186l-107 -186h-78z" unicode="»" horiz-adv-x="434"/>
<glyph glyph-name="onequarter" d="M111 279v353q-15 -11 -32.5 -24t-32.5 -24v63l66 48h60v-416h-61zM160 -17h-51l314 731h51zM531 62v-62h-61v62h-132v51l94 303h62l-93 -300h69v113h61v-113h33v-54h-33z" unicode="¼" horiz-adv-x="610"/>
<glyph glyph-name="onehalf" d="M115 279v353q-15 -11 -32.5 -24t-32.5 -24v63l66 48h60v-416h-61zM165 -17h-51l314 731h51zM462 364q-38 0 -38 -71l-62 10q-1 53 22.5 84.5t78.5 31.5q51 0 74 -25.5t23 -68.5q0 -25 -6.5 -49.5t-20.5 -48.5q-25 -45 -48 -85t-49 -85h121v-57h-192v46l116 206 q10 17 13 35.5t3 35.5q0 16 -6 28.5t-29 12.5z" unicode="½" horiz-adv-x="610"/>
<glyph glyph-name="threequarters" d="M224 368q0 -50 -26.5 -71.5t-67.5 -21.5q-29 0 -48.5 8t-31 22t-16 33t-2.5 42l63 8q-3 -28 5.5 -44t30.5 -16q15 0 24 9.5t9 29.5v58q0 42 -44 42h-26v51h27q43 0 43 38v50q0 14 -7 25.5t-27 11.5q-22 0 -31 -16t-9 -43l-63 9q2 45 27.5 74.5t78.5 29.5q27 0 44.5 -7 t28 -19t14.5 -28t4 -34v-38q0 -23 -3 -41.5t-29 -33.5q23 -11 27.5 -28.5t4.5 -46.5v-53zM177 -17h-51l314 731h51zM549 62v-62h-61v62h-132v51l94 303h62l-93 -300h69v113h61v-113h33v-54h-33z" unicode="¾" horiz-adv-x="610"/>
<glyph glyph-name="questiondown" d="M29 -34q0 26 2 44.5t7 34.5t13.5 32.5t21.5 38.5l46 79q8 13 13 27t6 31v69h78v-83q0 -20 -6 -39t-17 -36q-27 -44 -43 -69.5t-25 -44.5t-12 -36t-3 -43q0 -20 3 -38t11.5 -31.5t23.5 -21.5t39 -8q32 0 54 22t22 73l80 -9q0 -41 -12.5 -71.5t-33.5 -50.5t-49.5 -29.5 t-60.5 -9.5q-84 0 -121 44t-37 125zM217 499v-80h-78v80h78z" unicode="¿" horiz-adv-x="371"/>
<glyph glyph-name="Agrave" d="M307 0l-32 155h-155l-31 -155h-76l148 696h74l150 -696h-78zM195 554l-29 -162l-33 -163h128l-34 165l-28 160h-4zM203 719l-162 92l49 57l142 -113z" unicode="À" horiz-adv-x="395"/>
<glyph glyph-name="Aacute" d="M307 0l-32 155h-155l-31 -155h-76l148 696h74l150 -696h-78zM195 554l-29 -162l-33 -163h128l-34 165l-28 160h-4zM162 753l142 113l49 -57l-162 -92z" unicode="Á" horiz-adv-x="395"/>
<glyph glyph-name="Acircumflex" d="M307 0l-32 155h-155l-31 -155h-76l148 696h74l150 -696h-78zM195 554l-29 -162l-33 -163h128l-34 165l-28 160h-4zM197 801l-116 -74l-34 28l130 119h47l123 -117l-34 -30z" unicode="Â" horiz-adv-x="395"/>
<glyph glyph-name="Atilde" d="M307 0l-32 155h-155l-31 -155h-76l148 696h74l150 -696h-78zM195 554l-29 -162l-33 -163h128l-34 165l-28 160h-4zM342 823q-19 -35 -43 -55t-46 -20q-15 0 -29.5 6t-28 12.5t-25.5 12.5t-24 6q-28 0 -53 -36l-40 25q6 13 15.5 26t20.5 24t24 18t27 7q15 0 28 -6 t26.5 -13t27.5 -13t29 -6q14 0 25.5 9.5t26.5 29.5z" unicode="Ã" horiz-adv-x="395"/>
<glyph glyph-name="Adieresis" d="M307 0l-32 155h-155l-31 -155h-76l148 696h74l150 -696h-78zM195 554l-29 -162l-33 -163h128l-34 165l-28 160h-4zM240 752v80h68v-80h-68zM86 752v80h69v-80h-69z" unicode="Ä" horiz-adv-x="395"/>
<glyph glyph-name="Aring" d="M307 0l-32 155h-155l-31 -155h-76l148 696h74l150 -696h-78zM195 554l-29 -162l-33 -163h128l-34 165l-28 160h-4zM198 710q-19 0 -35.5 7t-29 19t-19.5 28.5t-7 35.5t7 35.5t19.5 28.5t29 19t35.5 7q38 0 64 -26t26 -64t-26 -64t-64 -26zM198 846q-20 0 -34 -13.5 t-14 -33.5t14 -34t34 -14t33.5 14t13.5 34t-13.5 33.5t-33.5 13.5z" unicode="Å" horiz-adv-x="395"/>
<glyph glyph-name="AE" d="M300 182h-154l-62 -182h-80l250 696h344v-73h-219v-233h190v-73h-190v-244h219v-73h-298v182zM172 256h128v367h-3z" unicode="Æ" horiz-adv-x="624"/>
<glyph glyph-name="Ccedilla" d="M204 702q81 0 117.5 -44t36.5 -115l-79 -14q1 46 -16.5 73t-59.5 27q-24 0 -39 -11t-23.5 -27.5t-11.5 -36.5t-3 -38v-351q0 -15 3 -32.5t11.5 -32t23 -24.5t38.5 -10q39 0 57.5 24t19.5 76l81 -14q-2 -69 -34.5 -110t-97.5 -47l-13 -50q23 -2 38 -9.5t23.5 -18.5 t12 -23.5t3.5 -23.5q0 -12 -4.5 -25t-14 -24t-25.5 -18t-38 -7q-8 0 -33 2t-47 13l13 36q17 -8 31 -10t26 -2q15 0 26.5 8.5t11.5 25.5q0 19 -11.5 29.5t-40.5 8.5l-16 14l20 73q-72 4 -107.5 47.5t-35.5 119.5v344q0 37 6.5 72.5t23.5 63t48 44.5t79 17z" unicode="Ç" horiz-adv-x="384"/>
<glyph glyph-name="Egrave" d="M53 0v696h298v-73h-219v-233h190v-73h-190v-245h219v-72h-298zM219 719l-162 92l49 57l142 -113z" unicode="È" horiz-adv-x="366"/>
<glyph glyph-name="Eacute" d="M53 0v696h298v-73h-219v-233h190v-73h-190v-245h219v-72h-298zM134 753l142 113l49 -57l-162 -92z" unicode="É" horiz-adv-x="366"/>
<glyph glyph-name="Ecircumflex" d="M53 0v696h298v-73h-219v-233h190v-73h-190v-245h219v-72h-298zM199 801l-116 -74l-34 28l130 119h47l123 -117l-34 -30z" unicode="Ê" horiz-adv-x="366"/>
<glyph glyph-name="Edieresis" d="M53 0v696h298v-73h-219v-233h190v-73h-190v-245h219v-72h-298zM245 752v80h68v-80h-68zM91 752v80h69v-80h-69z" unicode="Ë" horiz-adv-x="366"/>
<glyph glyph-name="Igrave" d="M56 0v696h80v-696h-80zM113 719l-162 92l49 57l142 -113z" unicode="Ì" horiz-adv-x="192"/>
<glyph glyph-name="Iacute" d="M56 0v696h80v-696h-80zM53 753l142 113l49 -57l-162 -92z" unicode="Í" horiz-adv-x="192"/>
<glyph glyph-name="Icircumflex" d="M56 0v696h80v-696h-80zM96 801l-116 -74l-34 28l130 119h47l123 -117l-34 -30z" unicode="Î" horiz-adv-x="192"/>
<glyph glyph-name="Idieresis" d="M56 0v696h80v-696h-80zM139 752v80h68v-80h-68zM-15 752v80h69v-80h-69z" unicode="Ï" horiz-adv-x="192"/>
<glyph glyph-name="Eth" d="M6 391h47v305h162q62 0 98 -21.5t50 -72.5q11 -42 11 -104v-149v-145.5t-13 -100.5q-19 -59 -60.5 -81t-94.5 -22h-153v331h-47v60zM294 522q0 47 -20 74t-71 27h-71v-232h69v-60h-69v-259h71q49 0 70 27t21 77v346z" unicode="Ð" horiz-adv-x="423"/>
<glyph glyph-name="Ntilde" d="M129 476v-476h-79v696h75l144 -353l48 -127l4 1v479h79v-696h-74l-144 350l-50 126h-3zM371 814q-19 -35 -43 -55t-46 -20q-15 0 -29.5 6t-28 12.5t-25.5 12.5t-24 6q-28 0 -53 -36l-40 25q6 13 15.5 26t20.5 24t24 18t27 7q15 0 28 -6t26.5 -13t27.5 -13t29 -6 q14 0 25.5 9.5t26.5 29.5z" unicode="Ñ" horiz-adv-x="450"/>
<glyph glyph-name="Ograve" d="M367 187q0 -93 -36.5 -143.5t-124.5 -50.5q-86 0 -122.5 47t-36.5 124v343q0 37 6.5 72t24 62.5t48.5 44t81 16.5q52 0 83.5 -14.5t48.5 -40.5t22.5 -61t5.5 -77v-322zM288 522q0 18 -2.5 37t-10.5 34.5t-24.5 26t-43.5 10.5q-30 0 -46 -14.5t-24 -34.5t-9.5 -42.5 t-1.5 -37.5v-338q0 -15 3 -32t12 -32t24.5 -24.5t40.5 -9.5t41 10t25 25.5t12.5 35.5t3.5 41v345zM241 719l-162 92l49 57l142 -113z" unicode="Ò" horiz-adv-x="414"/>
<glyph glyph-name="Oacute" d="M367 187q0 -93 -36.5 -143.5t-124.5 -50.5q-86 0 -122.5 47t-36.5 124v343q0 37 6.5 72t24 62.5t48.5 44t81 16.5q52 0 83.5 -14.5t48.5 -40.5t22.5 -61t5.5 -77v-322zM288 522q0 18 -2.5 37t-10.5 34.5t-24.5 26t-43.5 10.5q-30 0 -46 -14.5t-24 -34.5t-9.5 -42.5 t-1.5 -37.5v-338q0 -15 3 -32t12 -32t24.5 -24.5t40.5 -9.5t41 10t25 25.5t12.5 35.5t3.5 41v345zM162 753l142 113l49 -57l-162 -92z" unicode="Ó" horiz-adv-x="414"/>
<glyph glyph-name="Ocircumflex" d="M367 187q0 -93 -36.5 -143.5t-124.5 -50.5q-86 0 -122.5 47t-36.5 124v343q0 37 6.5 72t24 62.5t48.5 44t81 16.5q52 0 83.5 -14.5t48.5 -40.5t22.5 -61t5.5 -77v-322zM288 522q0 18 -2.5 37t-10.5 34.5t-24.5 26t-43.5 10.5q-30 0 -46 -14.5t-24 -34.5t-9.5 -42.5 t-1.5 -37.5v-338q0 -15 3 -32t12 -32t24.5 -24.5t40.5 -9.5t41 10t25 25.5t12.5 35.5t3.5 41v345zM208 801l-116 -74l-34 28l130 119h47l123 -117l-34 -30z" unicode="Ô" horiz-adv-x="414"/>
<glyph glyph-name="Otilde" d="M367 187q0 -93 -36.5 -143.5t-124.5 -50.5q-86 0 -122.5 47t-36.5 124v343q0 37 6.5 72t24 62.5t48.5 44t81 16.5q52 0 83.5 -14.5t48.5 -40.5t22.5 -61t5.5 -77v-322zM288 522q0 18 -2.5 37t-10.5 34.5t-24.5 26t-43.5 10.5q-30 0 -46 -14.5t-24 -34.5t-9.5 -42.5 t-1.5 -37.5v-338q0 -15 3 -32t12 -32t24.5 -24.5t40.5 -9.5t41 10t25 25.5t12.5 35.5t3.5 41v345zM353 823q-19 -35 -43 -55t-46 -20q-15 0 -29.5 6t-28 12.5t-25.5 12.5t-24 6q-28 0 -53 -36l-40 25q6 13 15.5 26t20.5 24t24 18t27 7q15 0 28 -6t26.5 -13t27.5 -13t29 -6 q14 0 25.5 9.5t26.5 29.5z" unicode="Õ" horiz-adv-x="414"/>
<glyph glyph-name="Odieresis" d="M367 187q0 -93 -36.5 -143.5t-124.5 -50.5q-86 0 -122.5 47t-36.5 124v343q0 37 6.5 72t24 62.5t48.5 44t81 16.5q52 0 83.5 -14.5t48.5 -40.5t22.5 -61t5.5 -77v-322zM288 522q0 18 -2.5 37t-10.5 34.5t-24.5 26t-43.5 10.5q-30 0 -46 -14.5t-24 -34.5t-9.5 -42.5 t-1.5 -37.5v-338q0 -15 3 -32t12 -32t24.5 -24.5t40.5 -9.5t41 10t25 25.5t12.5 35.5t3.5 41v345zM250 752v80h68v-80h-68zM96 752v80h69v-80h-69z" unicode="Ö" horiz-adv-x="414"/>
<glyph glyph-name="multiply" d="M190 252l-137 -137l-42 42l138 137l-129 129l42 42l129 -129l137 138l42 -42l-137 -137l128 -129l-42 -42z" unicode="×" horiz-adv-x="380"/>
<glyph glyph-name="Oslash" d="M367 187q0 -93 -36.5 -143.5t-124.5 -50.5q-74 0 -113 37l-17 -39l-40 22l27 61q-16 38 -16 90v343q0 37 6.5 72t24 62.5t48.5 44t81 16.5q41 0 69 -9t46 -26l16 37l43 -21l-28 -64q8 -23 11 -50.5t3 -59.5v-322zM126 218l156 357q-7 23 -23.5 39t-51.5 16 q-30 0 -46 -14.5t-24 -34.5t-9.5 -42.5t-1.5 -37.5v-283zM288 472l-156 -353q7 -22 24 -38t50 -16q25 0 41 10t25 25.5t12.5 35.5t3.5 41v295z" unicode="Ø" horiz-adv-x="414"/>
<glyph glyph-name="Ugrave" d="M370 695v-508q0 -93 -36 -143.5t-124 -50.5q-86 0 -123 47t-37 124v531h79v-532q0 -15 3 -32t12 -32t24.5 -24.5t40.5 -9.5t41 10t25 25.5t12.5 35.5t3.5 41v518h79zM231 719l-162 92l49 57l142 -113z" unicode="Ù" horiz-adv-x="420"/>
<glyph glyph-name="Uacute" d="M370 695v-508q0 -93 -36 -143.5t-124 -50.5q-86 0 -123 47t-37 124v531h79v-532q0 -15 3 -32t12 -32t24.5 -24.5t40.5 -9.5t41 10t25 25.5t12.5 35.5t3.5 41v518h79zM170 753l142 113l49 -57l-162 -92z" unicode="Ú" horiz-adv-x="420"/>
<glyph glyph-name="Ucircumflex" d="M370 695v-508q0 -93 -36 -143.5t-124 -50.5q-86 0 -123 47t-37 124v531h79v-532q0 -15 3 -32t12 -32t24.5 -24.5t40.5 -9.5t41 10t25 25.5t12.5 35.5t3.5 41v518h79zM210 801l-116 -74l-34 28l130 119h47l123 -117l-34 -30z" unicode="Û" horiz-adv-x="420"/>
<glyph glyph-name="Udieresis" d="M370 695v-508q0 -93 -36 -143.5t-124 -50.5q-86 0 -123 47t-37 124v531h79v-532q0 -15 3 -32t12 -32t24.5 -24.5t40.5 -9.5t41 10t25 25.5t12.5 35.5t3.5 41v518h79zM256 752v80h68v-80h-68zM102 752v80h69v-80h-69z" unicode="Ü" horiz-adv-x="420"/>
<glyph glyph-name="Yacute" d="M190 408l90 288h83l-136 -402v-295h-78v295l-136 402h83l51 -163l39 -125h4zM153 753l142 113l49 -57l-162 -92z" unicode="Ý" horiz-adv-x="376"/>
<glyph glyph-name="Thorn" d="M52 696h78v-135h65q53 0 87 -14t54 -40.5t27.5 -65t7.5 -87.5q0 -44 -7 -82t-27 -66.5t-55.5 -44.5t-92.5 -16h-57v-145h-79zM132 219h54q36 0 57.5 11t33 29t14.5 42t3 51q0 28 -3.5 52.5t-14.5 43t-32 29t-56 10.5h-56v-268z" unicode="Þ" horiz-adv-x="395"/>
<glyph glyph-name="germandbls" d="M270 428q31 -11 47 -36.5t16 -55.5v-198q0 -26 -5.5 -51.5t-17.5 -46.5t-32.5 -34t-50.5 -13h-42v64h4q37 0 50.5 17.5t13.5 51.5v198q0 32 -15.5 49t-39.5 17h-13v69h8q28 0 39.5 19.5t11.5 47.5v60q0 32 -18 48.5t-44 16.5q-29 0 -46.5 -19t-17.5 -46v-586h-78v581 q0 66 40 105.5t103 39.5q61 0 101 -33.5t40 -101.5v-59q0 -35 -12 -61t-42 -40v-3z" unicode="ß" horiz-adv-x="375"/>
<glyph glyph-name="agrave" d="M239 43q-20 -27 -45.5 -38t-57.5 -11q-31 0 -52 12.5t-33.5 33t-18 46t-5.5 52.5q0 28 6 56t21 51t41 37.5t67 14.5h78v66q0 29 -13.5 46t-51.5 17q-20 0 -39 -12t-24 -39l-75 21q11 49 48 77t94 28q67 0 104 -30.5t37 -106.5v-364h-80v43h-1zM240 228h-58 q-31 0 -54.5 -18.5t-23.5 -66.5q0 -35 15 -53.5t47 -18.5q37 0 55.5 21t18.5 58v78zM166 556l-96 160l71 25l68 -168z" unicode="à" horiz-adv-x="361"/>
<glyph glyph-name="aacute" d="M239 43q-20 -27 -45.5 -38t-57.5 -11q-31 0 -52 12.5t-33.5 33t-18 46t-5.5 52.5q0 28 6 56t21 51t41 37.5t67 14.5h78v66q0 29 -13.5 46t-51.5 17q-20 0 -39 -12t-24 -39l-75 21q11 49 48 77t94 28q67 0 104 -30.5t37 -106.5v-364h-80v43h-1zM240 228h-58 q-31 0 -54.5 -18.5t-23.5 -66.5q0 -35 15 -53.5t47 -18.5q37 0 55.5 21t18.5 58v78zM136 573l68 168l71 -25l-96 -160z" unicode="á" horiz-adv-x="361"/>
<glyph glyph-name="acircumflex" d="M239 43q-20 -27 -45.5 -38t-57.5 -11q-31 0 -52 12.5t-33.5 33t-18 46t-5.5 52.5q0 28 6 56t21 51t41 37.5t67 14.5h78v66q0 29 -13.5 46t-51.5 17q-20 0 -39 -12t-24 -39l-75 21q11 49 48 77t94 28q67 0 104 -30.5t37 -106.5v-364h-80v43h-1zM240 228h-58 q-31 0 -54.5 -18.5t-23.5 -66.5q0 -35 15 -53.5t47 -18.5q37 0 55.5 21t18.5 58v78zM180 646l-116 -94l-34 28l130 139h47l123 -137l-34 -30z" unicode="â" horiz-adv-x="361"/>
<glyph glyph-name="atilde" d="M239 43q-20 -27 -45.5 -38t-57.5 -11q-31 0 -52 12.5t-33.5 33t-18 46t-5.5 52.5q0 28 6 56t21 51t41 37.5t67 14.5h78v66q0 29 -13.5 46t-51.5 17q-20 0 -39 -12t-24 -39l-75 21q11 49 48 77t94 28q67 0 104 -30.5t37 -106.5v-364h-80v43h-1zM240 228h-58 q-31 0 -54.5 -18.5t-23.5 -66.5q0 -35 15 -53.5t47 -18.5q37 0 55.5 21t18.5 58v78zM325 653q-19 -35 -43 -55t-46 -20q-15 0 -29.5 6t-28 12.5t-25.5 12.5t-24 6q-28 0 -53 -36l-40 25q6 13 15.5 26t20.5 24t24 18t27 7q15 0 28 -6t26.5 -13t27.5 -13t29 -6q14 0 25.5 9.5 t26.5 29.5z" unicode="ã" horiz-adv-x="361"/>
<glyph glyph-name="adieresis" d="M239 43q-20 -27 -45.5 -38t-57.5 -11q-31 0 -52 12.5t-33.5 33t-18 46t-5.5 52.5q0 28 6 56t21 51t41 37.5t67 14.5h78v66q0 29 -13.5 46t-51.5 17q-20 0 -39 -12t-24 -39l-75 21q11 49 48 77t94 28q67 0 104 -30.5t37 -106.5v-364h-80v43h-1zM240 228h-58 q-31 0 -54.5 -18.5t-23.5 -66.5q0 -35 15 -53.5t47 -18.5q37 0 55.5 21t18.5 58v78zM225 589v80h68v-80h-68zM71 589v80h69v-80h-69z" unicode="ä" horiz-adv-x="361"/>
<glyph glyph-name="aring" d="M239 43q-20 -27 -45.5 -38t-57.5 -11q-31 0 -52 12.5t-33.5 33t-18 46t-5.5 52.5q0 28 6 56t21 51t41 37.5t67 14.5h78v66q0 29 -13.5 46t-51.5 17q-20 0 -39 -12t-24 -39l-75 21q11 49 48 77t94 28q67 0 104 -30.5t37 -106.5v-364h-80v43h-1zM240 228h-58 q-31 0 -54.5 -18.5t-23.5 -66.5q0 -35 15 -53.5t47 -18.5q37 0 55.5 21t18.5 58v78zM192 542q-19 0 -35.5 7t-29 19t-19.5 28.5t-7 35.5t7 35.5t19.5 28.5t29 19t35.5 7q38 0 64 -26t26 -64t-26 -64t-64 -26zM192 678q-20 0 -34 -13.5t-14 -33.5t14 -34t34 -14t33.5 14 t13.5 34t-13.5 33.5t-33.5 13.5z" unicode="å" horiz-adv-x="361"/>
<glyph glyph-name="ae" d="M383 -7q-48 0 -76 17.5t-43 42.5q-28 -36 -58.5 -47.5t-53.5 -11.5q-39 0 -64 12.5t-39.5 33t-20 46t-5.5 52.5q0 28 7 55.5t23 50t41.5 36.5t63.5 14h78v69q0 29 -16 46t-49 17q-20 0 -39 -12t-24 -39l-75 21q11 49 51 77t91 28q45 0 69 -12.5t36 -30.5q18 20 45.5 31.5 t65.5 11.5q74 0 107 -41t33 -113v-118h-212q0 -33 1.5 -67t6.5 -51q14 -45 62 -45q31 0 45 20t17 47l79 -18q-5 -26 -14 -48.5t-26.5 -39t-43.5 -25.5t-63 -9zM236 230h-58q-31 0 -54.5 -19.5t-23.5 -67.5q0 -31 17 -51.5t52 -20.5q32 0 49.5 22t17.5 57v80zM451 293v38 q0 19 -2.5 36.5t-9.5 30.5t-19.5 20.5t-32.5 7.5q-18 0 -33 -8.5t-24 -31.5q-5 -14 -7 -36t-3 -57h131z" unicode="æ" horiz-adv-x="557"/>
<glyph glyph-name="ccedilla" d="M318 133q-2 -63 -31 -98.5t-92 -40.5l-13 -49q23 -2 38 -9.5t23.5 -18.5t12 -23.5t3.5 -23.5q0 -12 -4.5 -25t-14 -24t-25.5 -18t-38 -7q-8 0 -33 2t-47 13l13 36q17 -8 31 -10t26 -2q15 0 26.5 8.5t11.5 25.5q0 19 -11.5 29.5t-40.5 8.5l-16 14l20 73q-54 5 -80.5 32 t-35.5 62q-3 12 -5 30t-2.5 39.5t-1 43.5t-0.5 41q0 25 1 51.5t2.5 50.5t4.5 43.5t8 31.5q14 38 46 60t88 22q74 0 105.5 -39.5t31.5 -106.5l-82 -11q0 45 -15.5 65t-42.5 20q-20 0 -34.5 -9t-23.5 -32q-6 -15 -8 -59t-3 -104q0 -33 1 -64.5t6 -48.5q7 -22 21.5 -34.5 t40.5 -12.5q31 0 44.5 22t13.5 60l81 -14v0z" unicode="ç" horiz-adv-x="334"/>
<glyph glyph-name="egrave" d="M180 66q29 0 43.5 19.5t16.5 54.5l81 -15q-4 -64 -39.5 -98t-107.5 -34q-32 0 -55 8.5t-39 22t-25.5 30.5t-13.5 34q-3 12 -5 30t-3 39.5t-1.5 43.5t-0.5 41q0 25 0.5 50.5t2.5 48.5t5 42.5t8 32.5q14 39 46.5 62t88.5 23q74 0 107 -41t33 -113v-122h-212q0 -33 1.5 -65 t6.5 -49q14 -45 62 -45zM242 289v42q0 19 -2.5 36.5t-9.5 30.5t-19.5 20.5t-32.5 7.5q-18 0 -33 -8.5t-24 -31.5q-5 -14 -7 -38t-3 -59h131zM176 556l-96 160l71 25l68 -168z" unicode="è" horiz-adv-x="357"/>
<glyph glyph-name="eacute" d="M180 66q29 0 43.5 19.5t16.5 54.5l81 -15q-4 -64 -39.5 -98t-107.5 -34q-32 0 -55 8.5t-39 22t-25.5 30.5t-13.5 34q-3 12 -5 30t-3 39.5t-1.5 43.5t-0.5 41q0 25 0.5 50.5t2.5 48.5t5 42.5t8 32.5q14 39 46.5 62t88.5 23q74 0 107 -41t33 -113v-122h-212q0 -33 1.5 -65 t6.5 -49q14 -45 62 -45zM242 289v42q0 19 -2.5 36.5t-9.5 30.5t-19.5 20.5t-32.5 7.5q-18 0 -33 -8.5t-24 -31.5q-5 -14 -7 -38t-3 -59h131zM146 573l68 168l71 -25l-96 -160z" unicode="é" horiz-adv-x="357"/>
<glyph glyph-name="ecircumflex" d="M180 66q29 0 43.5 19.5t16.5 54.5l81 -15q-4 -64 -39.5 -98t-107.5 -34q-32 0 -55 8.5t-39 22t-25.5 30.5t-13.5 34q-3 12 -5 30t-3 39.5t-1.5 43.5t-0.5 41q0 25 0.5 50.5t2.5 48.5t5 42.5t8 32.5q14 39 46.5 62t88.5 23q74 0 107 -41t33 -113v-122h-212q0 -33 1.5 -65 t6.5 -49q14 -45 62 -45zM242 289v42q0 19 -2.5 36.5t-9.5 30.5t-19.5 20.5t-32.5 7.5q-18 0 -33 -8.5t-24 -31.5q-5 -14 -7 -38t-3 -59h131zM180 646l-116 -94l-34 28l130 139h47l123 -137l-34 -30z" unicode="ê" horiz-adv-x="357"/>
<glyph glyph-name="edieresis" d="M180 66q29 0 43.5 19.5t16.5 54.5l81 -15q-4 -64 -39.5 -98t-107.5 -34q-32 0 -55 8.5t-39 22t-25.5 30.5t-13.5 34q-3 12 -5 30t-3 39.5t-1.5 43.5t-0.5 41q0 25 0.5 50.5t2.5 48.5t5 42.5t8 32.5q14 39 46.5 62t88.5 23q74 0 107 -41t33 -113v-122h-212q0 -33 1.5 -65 t6.5 -49q14 -45 62 -45zM242 289v42q0 19 -2.5 36.5t-9.5 30.5t-19.5 20.5t-32.5 7.5q-18 0 -33 -8.5t-24 -31.5q-5 -14 -7 -38t-3 -59h131zM220 589v80h68v-80h-68zM66 589v80h69v-80h-69z" unicode="ë" horiz-adv-x="357"/>
<glyph glyph-name="igrave" d="M58 0v494h80v-494h-80zM82 556l-96 160l71 25l68 -168z" unicode="ì" horiz-adv-x="200"/>
<glyph glyph-name="iacute" d="M62 0v494h80v-494h-80zM74 573l68 168l71 -25l-96 -160z" unicode="í" horiz-adv-x="200"/>
<glyph glyph-name="icircumflex" d="M84 0v494h80v-494h-80zM125 646l-116 -94l-34 28l130 139h47l123 -137l-34 -30z" unicode="î" horiz-adv-x="250"/>
<glyph glyph-name="idieresis" d="M63 0v494h80v-494h-80zM144 589v80h68v-80h-68zM-10 589v80h69v-80h-69z" unicode="ï" horiz-adv-x="202"/>
<glyph glyph-name="eth" d="M332 255q0 -28 -1 -66.5t-4 -67.5q-5 -40 -20 -65t-36.5 -39t-46.5 -19t-49 -5q-31 0 -53.5 8t-38.5 21t-26 30.5t-15 35.5q-3 12 -5 29.5t-2.5 38.5t-1 42.5t-0.5 40.5q0 51 4.5 94t13.5 67q12 33 42 57t81 24q23 0 45 -7.5t39 -24.5h2q0 35 -2 63.5t-13 57.5l-63 -47 l-26 36l68 49q-9 15 -23.5 25.5t-31.5 17.5t-34.5 11t-32.5 6l11 62q54 -4 90.5 -18.5t54.5 -31.5q17 -15 26 -27l61 44l26 -33l-64 -48q7 -15 12 -35t8 -47.5t4 -63.5t1 -83v-132zM185 410q-20 0 -36.5 -9t-25.5 -32q-4 -9 -6 -19.5t-3.5 -25.5t-2 -35.5t-0.5 -50.5v-35.5 t1 -36.5t2 -32.5t4 -23.5q14 -46 66 -46q21 0 37 12.5t24 32.5q2 5 4 18t3.5 31t2 38.5t0.5 41.5q0 42 -1 74.5t-6 50.5q-14 47 -63 47z" unicode="ð" horiz-adv-x="371"/>
<glyph glyph-name="ntilde" d="M114 445h3q35 54 101 54q55 0 82.5 -35.5t27.5 -92.5v-371h-80v350q0 32 -15 50.5t-48 18.5q-32 0 -52 -21t-20 -56v-342h-78v494h79v-49zM317 653q-19 -35 -43 -55t-46 -20q-15 0 -29.5 6t-28 12.5t-25.5 12.5t-24 6q-28 0 -53 -36l-40 25q6 13 15.5 26t20.5 24t24 18 t27 7q15 0 28 -6t26.5 -13t27.5 -13t29 -6q14 0 25.5 9.5t26.5 29.5z" unicode="ñ" horiz-adv-x="366"/>
<glyph glyph-name="ograve" d="M186 501q42 0 68.5 -11t42.5 -30.5t23 -46t9 -57.5q2 -29 3 -62t1 -59q0 -57 -6 -114q-5 -40 -20 -65t-36.5 -39t-46.5 -19t-49 -5q-31 0 -53.5 8t-38.5 21t-26 30.5t-15 35.5q-3 12 -5 30t-2.5 39.5t-1 43.5t-0.5 41q0 25 1 51.5t3 50.5t5 43.5t8 31.5q14 38 47 60 t89 22zM184 429q-20 0 -36.5 -9t-25.5 -32q-6 -14 -8 -58.5t-3 -104.5q0 -33 1 -64.5t6 -48.5q14 -46 66 -46q21 0 37 12.5t24 32.5q2 5 4 18.5t3.5 32t2 39.5t0.5 42t-0.5 41.5t-1 39.5t-2 34t-4.5 24q-14 47 -63 47zM162 556l-96 160l71 25l68 -168z" unicode="ò" horiz-adv-x="362"/>
<glyph glyph-name="oacute" d="M186 501q42 0 68.5 -11t42.5 -30.5t23 -46t9 -57.5q2 -29 3 -62t1 -59q0 -57 -6 -114q-5 -40 -20 -65t-36.5 -39t-46.5 -19t-49 -5q-31 0 -53.5 8t-38.5 21t-26 30.5t-15 35.5q-3 12 -5 30t-2.5 39.5t-1 43.5t-0.5 41q0 25 1 51.5t3 50.5t5 43.5t8 31.5q14 38 47 60 t89 22zM184 429q-20 0 -36.5 -9t-25.5 -32q-6 -14 -8 -58.5t-3 -104.5q0 -33 1 -64.5t6 -48.5q14 -46 66 -46q21 0 37 12.5t24 32.5q2 5 4 18.5t3.5 32t2 39.5t0.5 42t-0.5 41.5t-1 39.5t-2 34t-4.5 24q-14 47 -63 47zM136 573l68 168l71 -25l-96 -160z" unicode="ó" horiz-adv-x="362"/>
<glyph glyph-name="ocircumflex" d="M186 501q42 0 68.5 -11t42.5 -30.5t23 -46t9 -57.5q2 -29 3 -62t1 -59q0 -57 -6 -114q-5 -40 -20 -65t-36.5 -39t-46.5 -19t-49 -5q-31 0 -53.5 8t-38.5 21t-26 30.5t-15 35.5q-3 12 -5 30t-2.5 39.5t-1 43.5t-0.5 41q0 25 1 51.5t3 50.5t5 43.5t8 31.5q14 38 47 60 t89 22zM184 429q-20 0 -36.5 -9t-25.5 -32q-6 -14 -8 -58.5t-3 -104.5q0 -33 1 -64.5t6 -48.5q14 -46 66 -46q21 0 37 12.5t24 32.5q2 5 4 18.5t3.5 32t2 39.5t0.5 42t-0.5 41.5t-1 39.5t-2 34t-4.5 24q-14 47 -63 47zM182 646l-116 -94l-34 28l130 139h47l123 -137l-34 -30 z" unicode="ô" horiz-adv-x="362"/>
<glyph glyph-name="otilde" d="M186 501q42 0 68.5 -11t42.5 -30.5t23 -46t9 -57.5q2 -29 3 -62t1 -59q0 -57 -6 -114q-5 -40 -20 -65t-36.5 -39t-46.5 -19t-49 -5q-31 0 -53.5 8t-38.5 21t-26 30.5t-15 35.5q-3 12 -5 30t-2.5 39.5t-1 43.5t-0.5 41q0 25 1 51.5t3 50.5t5 43.5t8 31.5q14 38 47 60 t89 22zM184 429q-20 0 -36.5 -9t-25.5 -32q-6 -14 -8 -58.5t-3 -104.5q0 -33 1 -64.5t6 -48.5q14 -46 66 -46q21 0 37 12.5t24 32.5q2 5 4 18.5t3.5 32t2 39.5t0.5 42t-0.5 41.5t-1 39.5t-2 34t-4.5 24q-14 47 -63 47zM327 653q-19 -35 -43 -55t-46 -20q-15 0 -29.5 6 t-28 12.5t-25.5 12.5t-24 6q-28 0 -53 -36l-40 25q6 13 15.5 26t20.5 24t24 18t27 7q15 0 28 -6t26.5 -13t27.5 -13t29 -6q14 0 25.5 9.5t26.5 29.5z" unicode="õ" horiz-adv-x="362"/>
<glyph glyph-name="odieresis" d="M186 501q42 0 68.5 -11t42.5 -30.5t23 -46t9 -57.5q2 -29 3 -62t1 -59q0 -57 -6 -114q-5 -40 -20 -65t-36.5 -39t-46.5 -19t-49 -5q-31 0 -53.5 8t-38.5 21t-26 30.5t-15 35.5q-3 12 -5 30t-2.5 39.5t-1 43.5t-0.5 41q0 25 1 51.5t3 50.5t5 43.5t8 31.5q14 38 47 60 t89 22zM184 429q-20 0 -36.5 -9t-25.5 -32q-6 -14 -8 -58.5t-3 -104.5q0 -33 1 -64.5t6 -48.5q14 -46 66 -46q21 0 37 12.5t24 32.5q2 5 4 18.5t3.5 32t2 39.5t0.5 42t-0.5 41.5t-1 39.5t-2 34t-4.5 24q-14 47 -63 47zM230 589v80h68v-80h-68zM76 589v80h69v-80h-69z" unicode="ö" horiz-adv-x="362"/>
<glyph glyph-name="divide" d="M243 453q0 -22 -15.5 -37.5t-36.5 -15.5q-22 0 -37.5 15.5t-15.5 37.5t15.5 37.5t37.5 15.5q21 0 36.5 -15.5t15.5 -37.5zM9 264v61h362v-61h-362zM191 187q21 0 36.5 -15.5t15.5 -37.5t-15.5 -37.5t-36.5 -15.5q-22 0 -37.5 15.5t-15.5 37.5t15.5 37.5t37.5 15.5z" unicode="÷" horiz-adv-x="380"/>
<glyph glyph-name="oslash" d="M186 501q32 0 55 -7t39 -19l14 27l34 -18l-21 -40q10 -18 15 -40.5t7 -47.5q2 -29 3 -62t1 -59q0 -57 -6 -114q-5 -40 -20 -65t-36.5 -39t-46.5 -19t-49 -5q-31 0 -53.5 7.5t-38.5 21.5l-17 -32l-31 18l22 43q-10 16 -15 37q-3 12 -5 30t-2.5 39.5t-1 43.5t-0.5 41 q0 25 1 51.5t3 50.5t5 43.5t8 31.5q14 38 47 60t89 22zM255 243q0 26 -0.5 51.5t-2.5 47.5l-129 -244q17 -32 61 -32q21 0 37 12.5t24 32.5q2 5 4 18.5t3.5 32t2 39.5t0.5 42zM184 429q-20 0 -36.5 -9t-25.5 -32q-6 -14 -8 -58.5t-3 -104.5v-36t1 -34l128 244q-18 30 -56 30 z" unicode="ø" horiz-adv-x="362"/>
<glyph glyph-name="ugrave" d="M250 50h-3q-35 -54 -101 -54q-55 0 -82.5 35.5t-27.5 92.5v371h80v-350q0 -73 64 -73q29 0 50 21t21 56v346h78v-494h-79v49zM166 556l-96 160l71 25l68 -168z" unicode="ù" horiz-adv-x="369"/>
<glyph glyph-name="uacute" d="M250 50h-3q-35 -54 -101 -54q-55 0 -82.5 35.5t-27.5 92.5v371h80v-350q0 -73 64 -73q29 0 50 21t21 56v346h78v-494h-79v49zM172 573l68 168l71 -25l-96 -160z" unicode="ú" horiz-adv-x="369"/>
<glyph glyph-name="ucircumflex" d="M250 50h-3q-35 -54 -101 -54q-55 0 -82.5 35.5t-27.5 92.5v371h80v-350q0 -73 64 -73q29 0 50 21t21 56v346h78v-494h-79v49zM180 646l-116 -94l-34 28l130 139h47l123 -137l-34 -30z" unicode="û" horiz-adv-x="369"/>
<glyph glyph-name="udieresis" d="M250 50h-3q-35 -54 -101 -54q-55 0 -82.5 35.5t-27.5 92.5v371h80v-350q0 -73 64 -73q29 0 50 21t21 56v346h78v-494h-79v49zM225 589v80h68v-80h-68zM71 589v80h69v-80h-69z" unicode="ü" horiz-adv-x="369"/>
<glyph glyph-name="yacute" d="M191 -83q-12 -50 -38 -80.5t-79 -30.5h-30v68h20q28 0 40.5 18.5t23.5 68.5l8 35l-131 498h84l42 -189l40 -171h3l37 173l41 187h81zM138 573l68 168l71 -25l-96 -160z" unicode="ý" horiz-adv-x="336"/>
<glyph glyph-name="thorn" d="M205 501q13 0 32 -3.5t36.5 -16t31.5 -36.5t19 -65q3 -30 3.5 -63t0.5 -62q0 -54 -2.5 -101.5t-15 -82.5t-38.5 -55.5t-73 -20.5q-29 0 -50 10.5t-35 30.5h-2v-228h-79v887h79v-238l2 -1q16 22 34 33.5t57 11.5zM178 424q-33 0 -50 -22t-17 -56v-196q0 -35 16 -56t51 -21 q22 0 35.5 8.5t21 29.5t10.5 55.5t3 85.5q0 46 -1.5 78.5t-8.5 53.5t-21 30.5t-39 9.5z" unicode="þ" horiz-adv-x="364"/>
<glyph glyph-name="afii10023" d="M53 0v696h298v-73h-219v-233h190v-73h-190v-245h219v-72h-298zM250 752v80h68v-80h-68zM96 752v80h69v-80h-69z" unicode="Ё" horiz-adv-x="366"/>
<glyph glyph-name="afii10051" d="M312 469q42 0 67 -13.5t38.5 -34t18 -44t4.5 -44.5v-179q0 -88 -33.5 -136.5t-112.5 -48.5h-16v70q49 0 65.5 32t16.5 82v154q0 16 -2 31t-9.5 27t-21.5 19.5t-38 7.5q-17 0 -42 -9.5t-47 -32.5v-350h-80v624h-108v72h358v-72h-170v-192h2q28 22 58.5 29.5t51.5 7.5z" unicode="Ђ" horiz-adv-x="491"/>
<glyph glyph-name="afii10052" d="M132 622v-622h-79v696h282v-74h-203zM126 753l142 113l49 -57l-162 -92z" unicode="Ѓ" horiz-adv-x="358"/>
<glyph glyph-name="afii10053" d="M359 131q-7 -66 -45 -102t-110 -36q-79 0 -118 44t-39 124v344q0 37 6.5 72.5t23.5 63t48 44.5t79 17q75 0 110 -35.5t42 -95.5l-78 -19q-1 36 -19.5 56.5t-55.5 20.5q-24 0 -39 -11t-23.5 -27.5t-11.5 -36.5t-3 -38v-121h161v-77h-161v-153q0 -15 3 -32.5t11.5 -32 t23 -24.5t38.5 -10q35 0 54.5 19.5t21.5 61.5z" unicode="Є" horiz-adv-x="376"/>
<glyph glyph-name="afii10054" d="M360 190q0 -45 -8.5 -81t-28 -62t-50.5 -40t-77 -14q-42 0 -73 12t-51 33.5t-29.5 50.5t-9.5 63l79 16q0 -20 4 -37.5t13.5 -31.5t26 -22t40.5 -8q30 0 47.5 9.5t26 26t10.5 38.5t2 46q0 31 -3 50.5t-13 34t-28.5 25.5t-49.5 24q-49 21 -78.5 42.5t-45.5 45t-21 50 t-5 58.5q0 40 10 73.5t30.5 58t51.5 38t72 13.5q45 0 75.5 -14t49 -36.5t26 -49.5t7.5 -53l-78 -20q0 47 -19 72.5t-65 25.5q-26 0 -41.5 -10t-24.5 -25.5t-12 -34.5t-3 -37q0 -22 2.5 -38.5t13.5 -31t32.5 -28.5t60.5 -29q45 -18 71.5 -37.5t40.5 -43.5t18 -54t4 -68z" unicode="Ѕ" horiz-adv-x="394"/>
<glyph glyph-name="afii10055" d="M56 0v696h80v-696h-80z" unicode="І" horiz-adv-x="192"/>
<glyph glyph-name="afii10056" d="M56 0v696h80v-696h-80zM138 768v80h68v-80h-68zM-16 768v80h69v-80h-69z" unicode="Ї" horiz-adv-x="192"/>
<glyph glyph-name="afii10057" d="M278 696v-518q0 -91 -39.5 -138t-120.5 -47q-43 0 -77 16t-55 50l58 47q11 -16 31.5 -28.5t41.5 -12.5q44 0 63 28.5t19 73.5v529h79z" unicode="Ј" horiz-adv-x="344"/>
<glyph glyph-name="afii10058" d="M362 74h56q35 0 56 11t32 29.5t14.5 43.5t3.5 53q0 27 -3 50.5t-14.5 41.5t-33 28.5t-57.5 10.5h-54v-268zM362 416h57q57 0 92.5 -15t55.5 -42t27 -64t7 -81q0 -49 -7.5 -88.5t-27.5 -67.5t-54 -43t-87 -15h-142v622h-118v-273q0 -96 -7 -158.5t-22.5 -103t-40.5 -64.5 t-62 -43l-36 57q22 16 40 32.5t31 43t19.5 68t6.5 107.5v408h268v-280z" unicode="Љ" horiz-adv-x="627"/>
<glyph glyph-name="afii10059" d="M289 0v327h-157v-327h-79v696h79v-295h157v295h79v-295h57q57 0 92.5 -13.5t55.5 -38.5t27 -60.5t7 -79.5q0 -49 -7.5 -87.5t-27.5 -65.5t-54 -41.5t-87 -14.5h-142zM368 74h56q35 0 56 10t32 28t14.5 42t3.5 52q0 27 -3 49t-14.5 38t-33 25t-57.5 9h-54v-253z" unicode="Њ" horiz-adv-x="633"/>
<glyph glyph-name="afii10060" d="M360 0v308q0 37 -14 60.5t-57 23.5q-17 0 -43 -10.5t-46 -31.5v-350h-80v624h-110v72h358v-72h-168v-192h2q29 22 59 29.5t51 7.5q128 0 128 -136v-333h-80z" unicode="Ћ" horiz-adv-x="491"/>
<glyph glyph-name="afii10061" d="M53 0v696h79v-303h36q15 0 31.5 3t32 13.5t29 30.5t21.5 55l48 201h72l-46 -204q-11 -51 -33 -85.5t-52 -45.5q39 -14 60 -49.5t32 -87.5l50 -224h-79l-45 210q-8 35 -20 56.5t-28 33t-33.5 15t-35.5 3.5h-40v-318h-79zM155 753l142 113l49 -57l-162 -92z" unicode="Ќ" horiz-adv-x="423"/>
<glyph glyph-name="afii10062" d="M190 307l92 389h76l-140 -535q-15 -59 -32 -92.5t-35 -50t-37 -21t-39 -5.5h-38v62h36q21 0 39.5 21.5t30.5 67.5l11 42l-151 510h78l105 -389zM123 830q1 -10 6 -21t13.5 -20.5t20.5 -15.5t27 -6q16 0 28.5 6t21.5 15.5t13.5 20.5t4.5 21h63q-2 -19 -10 -40.5t-24 -39.5 t-40 -30t-57 -12q-37 0 -62 12t-40.5 30t-22.5 39.5t-7 40.5h65z" unicode="Ў" horiz-adv-x="363"/>
<glyph glyph-name="afii10145" d="M371 696v-696h-118v-146h-74v146h-126v696h79v-621h160v621h79z" unicode="Џ" horiz-adv-x="424"/>
<glyph glyph-name="afii10017" d="M307 0l-32 155h-155l-31 -155h-76l148 696h74l150 -696h-78zM195 554l-29 -162l-33 -163h128l-34 165l-28 160h-4z" unicode="А" horiz-adv-x="395"/>
<glyph glyph-name="afii10018" d="M130 75h56q35 0 56 10.5t32 29t14.5 43.5t3.5 53q0 27 -3 50.5t-14.5 41.5t-33 28.5t-57.5 10.5h-54v-267zM130 416h57q57 0 92.5 -15t55.5 -42t27 -64t7 -81q0 -49 -7.5 -88.5t-27.5 -67.5t-54 -43t-87 -15h-142v696h281v-74h-202v-206z" unicode="Б" horiz-adv-x="395"/>
<glyph glyph-name="afii10019" d="M291 365q46 -14 62.5 -56.5t16.5 -103.5q0 -108 -44.5 -156.5t-138.5 -48.5h-134v696h147q90 0 127 -48t37 -136q0 -55 -16 -87.5t-57 -55.5v-4zM294 213q0 57 -21.5 88t-82.5 31h-58v-261h62q33 0 52.5 11.5t30 31t14 45t3.5 54.5zM288 513q0 54 -23.5 82.5t-78.5 28.5 h-54v-223h53q55 0 79 29t24 83z" unicode="В" horiz-adv-x="414"/>
<glyph glyph-name="afii10020" d="M132 622v-622h-79v696h282v-74h-203z" unicode="Г" horiz-adv-x="358"/>
<glyph glyph-name="afii10021" d="M76 -133h-70v197l30 5q13 8 23 22.5t17.5 38.5t11.5 60.5t6 87.5l12 418h295v-628h35v-201h-70v133h-290v-133zM322 68v559h-146l-11 -354q-2 -75 -11 -124t-30 -81h198z" unicode="Д" horiz-adv-x="449"/>
<glyph glyph-name="afii10022" d="M53 0v696h298v-73h-219v-233h190v-73h-190v-245h219v-72h-298z" unicode="Е" horiz-adv-x="366"/>
<glyph glyph-name="afii10024" d="M295 0v318h-34q-18 0 -35.5 -3.5t-33.5 -15t-28.5 -33t-19.5 -56.5l-45 -210h-79l50 224q11 52 32 87.5t60 49.5q-30 11 -52 45.5t-33 85.5l-46 204h72l48 -201q8 -35 21.5 -55t29 -30.5t32 -13.5t31.5 -3h30v303h79v-303h30q15 0 31.5 3t32 13.5t29 30.5t21.5 55l48 201 h72l-46 -204q-11 -51 -33 -85.5t-52 -45.5q39 -14 60 -49.5t32 -87.5l50 -224h-79l-45 210q-8 35 -20 56.5t-28 33t-33.5 15t-35.5 3.5h-34v-318h-79z" unicode="Ж" horiz-adv-x="669"/>
<glyph glyph-name="afii10025" d="M168 702q37 0 66.5 -8.5t50.5 -29t32.5 -55t11.5 -87.5q0 -18 -2.5 -41.5t-9.5 -46.5t-18.5 -42t-30.5 -29v-3q21 -12 33.5 -30.5t18.5 -40t7.5 -45t1.5 -45.5q0 -100 -38 -153t-123 -53q-35 0 -64 9.5t-50 29t-32 49t-9 70.5l77 15q0 -57 20 -78.5t59 -21.5q16 0 30.5 6 t25 21.5t17 41.5t6.5 66q0 25 -3.5 48t-12.5 39.5t-23.5 26.5t-36.5 10h-45v69h47q21 0 35.5 9.5t23.5 26.5t13 40t4 49q0 33 -6.5 54.5t-18 34t-26.5 17.5t-32 5q-42 0 -59.5 -29.5t-17.5 -71.5l-77 17q3 75 46 115.5t109 40.5z" unicode="З" horiz-adv-x="380"/>
<glyph glyph-name="afii10026" d="M300 489l-176 -489h-74v696h76v-492l4 -1l174 493h75v-696h-76v489h-3z" unicode="И" horiz-adv-x="429"/>
<glyph glyph-name="afii10027" d="M145 841q1 -10 6 -21t13.5 -20.5t20.5 -15.5t27 -6q16 0 28.5 6t21.5 15.5t13.5 20.5t4.5 21h63q-2 -19 -10 -40.5t-24 -39.5t-40 -30t-57 -12q-37 0 -62 12t-40.5 30t-22.5 39.5t-7 40.5h65zM300 489l-176 -489h-74v696h76v-492l4 -1l174 493h75v-696h-76v489h-3z" unicode="Й" horiz-adv-x="429"/>
<glyph glyph-name="afii10028" d="M53 0v696h79v-303h36q15 0 31.5 3t32 13.5t29 30.5t21.5 55l48 201h72l-46 -204q-11 -51 -33 -85.5t-52 -45.5q39 -14 60 -49.5t32 -87.5l50 -224h-79l-45 210q-8 35 -20 56.5t-28 33t-33.5 15t-35.5 3.5h-40v-318h-79z" unicode="К" horiz-adv-x="423"/>
<glyph glyph-name="afii10029" d="M163 349q0 -96 -7 -158.5t-22.5 -103t-40.5 -64.5t-62 -43l-36 57q22 16 40 32.5t31 43t19.5 68t6.5 107.5v408h290v-696h-79v622h-140v-273z" unicode="Л" horiz-adv-x="435"/>
<glyph glyph-name="afii10030" d="M427 482l-55 -144l-72 -169h-37l-72 169l-55 144h-4v-482h-79v696h80l83 -217l64 -170h3l66 175l81 212h81v-696h-79v482h-5z" unicode="М" horiz-adv-x="564"/>
<glyph glyph-name="afii10031" d="M294 0v321h-162v-321h-79v696h79v-306h162v306h79v-696h-79z" unicode="Н" horiz-adv-x="427"/>
<glyph glyph-name="afii10032" d="M367 187q0 -93 -36.5 -143.5t-124.5 -50.5q-86 0 -122.5 47t-36.5 124v343q0 37 6.5 72t24 62.5t48.5 44t81 16.5q52 0 83.5 -14.5t48.5 -40.5t22.5 -61t5.5 -77v-322zM288 522q0 18 -2.5 37t-10.5 34.5t-24.5 26t-43.5 10.5q-30 0 -46 -14.5t-24 -34.5t-9.5 -42.5 t-1.5 -37.5v-338q0 -15 3 -32t12 -32t24.5 -24.5t40.5 -9.5t41 10t25 25.5t12.5 35.5t3.5 41v345z" unicode="О" horiz-adv-x="414"/>
<glyph glyph-name="afii10033" d="M282 0v622h-150v-622h-79v696h308v-696h-79z" unicode="П" horiz-adv-x="414"/>
<glyph glyph-name="afii10034" d="M195 696q53 0 87 -14t54 -40.5t27.5 -65t7.5 -87.5q0 -44 -7 -82t-27 -66.5t-55.5 -44.5t-92.5 -16h-57v-280h-79v696h142zM132 354h54q36 0 57.5 11t33 29t14.5 42t3 51q0 28 -3.5 53t-14.5 43.5t-32 29t-56 10.5h-56v-269z" unicode="Р" horiz-adv-x="395"/>
<glyph glyph-name="afii10035" d="M204 702q81 0 117.5 -44t36.5 -115l-79 -14q1 46 -16.5 73t-59.5 27q-24 0 -39 -11t-23.5 -27.5t-11.5 -36.5t-3 -38v-351q0 -15 3 -32.5t11.5 -32t23 -24.5t38.5 -10q39 0 57.5 24t19.5 76l81 -14q-2 -75 -40.5 -117t-115.5 -42q-79 0 -118 44t-39 124v344 q0 37 6.5 72.5t23.5 63t48 44.5t79 17z" unicode="С" horiz-adv-x="384"/>
<glyph glyph-name="afii10036" d="M203 624v-624h-80v624h-118v72h316v-72h-118z" unicode="Т" horiz-adv-x="326"/>
<glyph glyph-name="afii10037" d="M190 307l92 389h76l-140 -535q-15 -59 -32 -92.5t-35 -50t-37 -21t-39 -5.5h-38v62h36q21 0 39.5 21.5t30.5 67.5l11 42l-151 510h78l105 -389z" unicode="У" horiz-adv-x="363"/>
<glyph glyph-name="afii10038" d="M455 216q0 -41 -15 -71t-39 -50t-53.5 -30.5t-58.5 -12.5v-52h-79v52q-31 1 -60.5 12t-53 31t-38 50t-14.5 71v277q0 41 14.5 71.5t37.5 50.5t53 30.5t60 12.5v38h80l1 -38q29 -2 58.5 -12.5t53 -30.5t38.5 -50.5t15 -71.5v-277zM379 493q0 42 -27 67.5t-63 27.5v-467 q37 2 63.5 27.5t26.5 67.5v277zM210 588q-39 -4 -64.5 -28.5t-25.5 -66.5v-277q0 -42 21 -66.5t69 -28.5v467z" unicode="Ф" horiz-adv-x="494"/>
<glyph glyph-name="afii10039" d="M285 -1l-97 276l-96 -276h-83l139 366l-128 331h83l85 -245l86 245h83l-131 -331l142 -366h-83z" unicode="Х" horiz-adv-x="377"/>
<glyph glyph-name="afii10040" d="M368 696v-621h36v-206h-70v131h-281v696h79v-621h157v621h79z" unicode="Ц" horiz-adv-x="424"/>
<glyph glyph-name="afii10041" d="M117 696v-255q0 -54 22 -74.5t68 -20.5q14 0 33.5 3t38.5 10v337h79v-696h-79v299q-20 -8 -44 -11t-46 -3q-31 0 -58 7.5t-47.5 25.5t-32 47.5t-11.5 73.5v257h77z" unicode="Ч" horiz-adv-x="412"/>
<glyph glyph-name="afii10042" d="M563 696v-696h-510v696h79v-620h136v620h79v-620h137v620h79z" unicode="Ш" horiz-adv-x="616"/>
<glyph glyph-name="afii10043" d="M563 75h37v-206h-70v131h-477v696h79v-621h136v621h79v-621h137v621h79v-621z" unicode="Щ" horiz-adv-x="625"/>
<glyph glyph-name="afii10044" d="M155 0v622h-138v74h217v-280h57q57 0 92.5 -15t55.5 -42t27 -64t7 -81q0 -49 -7.5 -88.5t-27.5 -67.5t-54 -43t-87 -15h-142zM234 75h56q35 0 56 10.5t32 29t14.5 43.5t3.5 53q0 27 -3 50.5t-14.5 41.5t-33 28.5t-57.5 10.5h-54v-267z" unicode="Ъ" horiz-adv-x="499"/>
<glyph glyph-name="afii10045" d="M51 0v696h79v-280h57q57 0 92.5 -15t55.5 -42t27 -64t7 -81q0 -49 -7.5 -88.5t-27.5 -67.5t-54 -43t-87 -15h-142zM130 75h56q35 0 56 10.5t32 29t14.5 43.5t3.5 53q0 27 -3 50.5t-14.5 41.5t-33 28.5t-57.5 10.5h-54v-267zM424 0v696h80v-696h-80z" unicode="Ы" horiz-adv-x="560"/>
<glyph glyph-name="afii10046" d="M51 0v696h79v-280h57q57 0 92.5 -15t55.5 -42t27 -64t7 -81q0 -49 -7.5 -88.5t-27.5 -67.5t-54 -43t-87 -15h-142zM130 75h56q35 0 56 10.5t32 29t14.5 43.5t3.5 53q0 27 -3 50.5t-14.5 41.5t-33 28.5t-57.5 10.5h-54v-267z" unicode="Ь" horiz-adv-x="395"/>
<glyph glyph-name="afii10047" d="M104 147q4 -83 76 -83q24 0 38.5 10t23 25.5t11.5 33t3 32.5v153h-161v77h161v130q0 47 -17.5 75.5t-62.5 28.5q-37 0 -55 -25t-21 -63l-78 18q7 66 45.5 104.5t113.5 38.5q50 0 80.5 -16.5t47 -43.5t21.5 -60t5 -66v-355q0 -80 -39 -124t-118 -44q-72 0 -110 36t-45 102 z" unicode="Э" horiz-adv-x="387"/>
<glyph glyph-name="afii10048" d="M521 187q0 -92 -36 -143t-120 -51q-41 0 -70 12.5t-47.5 35t-27 54t-8.5 69.5v157h-80v-321h-79v696h79v-306h80v117q0 37 6 72t23 62.5t47 44t77 16.5q49 0 80 -14.5t47.5 -40.5t22.5 -61t6 -77v-322zM442 522q0 18 -2 37t-10 34.5t-23.5 26t-41.5 10.5q-29 0 -44 -14.5 t-22 -34.5t-8 -42.5t-1 -37.5v-338q0 -15 2.5 -32t10.5 -32t22.5 -24.5t38.5 -9.5t39 10t23.5 25.5t12 35.5t3.5 41v345z" unicode="Ю" horiz-adv-x="568"/>
<glyph glyph-name="afii10049" d="M35 0l42 217q8 38 22 69.5t45 50.5q-26 7 -43 22t-27 35t-14 44.5t-4 52.5q0 100 42 152.5t127 52.5h153v-696h-79v311h-42q-13 0 -28.5 -3.5t-30 -15t-27 -32.5t-18.5 -57l-37 -203h-81zM136 491q0 -110 96 -110h67v241h-60q-30 0 -50 -10t-31.5 -27.5t-16.5 -41.5 t-5 -52z" unicode="Я" horiz-adv-x="428"/>
<glyph glyph-name="afii10065" d="M239 43q-20 -27 -45.5 -38t-57.5 -11q-31 0 -52 12.5t-33.5 33t-18 46t-5.5 52.5q0 28 6 56t21 51t41 37.5t67 14.5h78v66q0 29 -13.5 46t-51.5 17q-20 0 -39 -12t-24 -39l-75 21q11 49 48 77t94 28q67 0 104 -30.5t37 -106.5v-364h-80v43h-1zM240 228h-58 q-31 0 -54.5 -18.5t-23.5 -66.5q0 -35 15 -53.5t47 -18.5q37 0 55.5 21t18.5 58v78z" unicode="а" horiz-adv-x="361"/>
<glyph glyph-name="afii10066" d="M199 480q28 0 48 -6.5t33.5 -17.5t22.5 -25.5t15 -30.5q5 -14 7.5 -36t4 -47t2 -51t0.5 -48q0 -28 -1 -48t-4 -49q-5 -40 -20 -65t-36.5 -39t-46.5 -19t-49 -5q-31 0 -53.5 8t-38.5 21t-26 30.5t-15 35.5q-6 23 -7.5 64t-1.5 79v99q0 79 6.5 134.5t20.5 93t36.5 61 t55.5 39.5q19 9 34.5 15.5t31.5 12.5t34 13t42 18l27 -56q-23 -12 -39 -19t-31 -13t-32.5 -14t-42.5 -22q-35 -19 -49 -62t-14 -93h2q20 26 45 34t39 8zM184 409q-20 0 -37 -10t-26 -33q-8 -19 -8.5 -55.5t-1.5 -96.5q0 -33 1 -59t6 -43q7 -22 23.5 -34.5t42.5 -12.5 q21 0 37 13t24 33q5 11 7.5 45t2.5 76q0 13 -0.5 31t-1 36.5t-2 35t-4.5 25.5q-14 49 -63 49z" unicode="б" horiz-adv-x="362"/>
<glyph glyph-name="afii10067" d="M46 0v494h132q81 0 119 -35.5t38 -99.5q0 -35 -11.5 -57.5t-36.5 -39.5h1q30 -14 41.5 -43.5t11.5 -68.5q0 -78 -41 -114t-126 -36h-128zM265 156q0 34 -17 52.5t-67 18.5h-54v-152h56q27 0 43 6t25 16.5t11.5 25.5t2.5 33zM256 360q0 32 -18.5 48t-63.5 16h-47v-131h46 q45 0 64 17t19 50z" unicode="в" horiz-adv-x="379"/>
<glyph glyph-name="afii10068" d="M126 424v-424h-80v494h257v-70h-177z" unicode="г" horiz-adv-x="323"/>
<glyph glyph-name="afii10069" d="M93 -124h-73v183l27 9q10 9 17.5 20.5t13.5 29.5t9.5 44.5t5.5 66.5l10 265h266v-424h36v-194h-72v124h-240v-124zM290 424h-111l-10 -198q-3 -54 -9 -92.5t-20 -63.5h150v354z" unicode="д" horiz-adv-x="425"/>
<glyph glyph-name="afii10070" d="M180 66q29 0 43.5 19.5t16.5 54.5l81 -15q-4 -64 -39.5 -98t-107.5 -34q-32 0 -55 8.5t-39 22t-25.5 30.5t-13.5 34q-3 12 -5 30t-3 39.5t-1.5 43.5t-0.5 41q0 25 0.5 50.5t2.5 48.5t5 42.5t8 32.5q14 39 46.5 62t88.5 23q74 0 107 -41t33 -113v-122h-212q0 -33 1.5 -65 t6.5 -49q14 -45 62 -45zM242 289v42q0 19 -2.5 36.5t-9.5 30.5t-19.5 20.5t-32.5 7.5q-18 0 -33 -8.5t-24 -31.5q-5 -14 -7 -38t-3 -59h131z" unicode="е" horiz-adv-x="357"/>
<glyph glyph-name="afii10072" d="M250 0v213h-30q-16 0 -30.5 -3t-26.5 -11t-21 -23.5t-15 -39.5l-34 -136h-78l43 160q10 37 25.5 63t48.5 34q-26 8 -42.5 32.5t-26.5 60.5l-39 143h76l38 -142q6 -24 16.5 -38.5t23 -22t26 -9.5t27.5 -2h19v214h79v-214h19q13 0 27 2t26.5 9.5t23 22t16.5 38.5l38 142h76 l-39 -143q-10 -36 -26.5 -60.5t-42.5 -32.5q33 -8 48.5 -34t25.5 -63l43 -160h-78l-34 136q-6 24 -15 39.5t-21 23.5t-26.5 11t-30.5 3h-30v-213h-79z" unicode="ж" horiz-adv-x="579"/>
<glyph glyph-name="afii10073" d="M251 255q34 -11 43 -42.5t9 -70.5q0 -42 -12.5 -70t-33.5 -45t-48.5 -24.5t-57.5 -7.5q-60 0 -98 30t-44 97l77 12q2 -36 18.5 -52t48.5 -16q26 0 47.5 16.5t21.5 60.5q0 34 -12 56t-43 22h-44v69h46q29 0 41 18t12 52q0 29 -15.5 48t-49.5 19q-62 0 -66 -67l-75 16 q5 60 43 91.5t98 31.5q69 0 107.5 -33t38.5 -102q0 -17 -2.5 -34t-8.5 -31t-16 -25t-25 -17v-2z" unicode="з" horiz-adv-x="343"/>
<glyph glyph-name="afii10074" d="M269 0v325h-2l-146 -325h-76v494h77v-323h2l145 323h80v-494h-80z" unicode="и" horiz-adv-x="394"/>
<glyph glyph-name="afii10075" d="M125 690q1 -10 6 -21t13.5 -20.5t20.5 -15.5t27 -6q16 0 28.5 6t21.5 15.5t13.5 20.5t4.5 21h63q-2 -19 -10 -40.5t-24 -39.5t-40 -30t-57 -12q-37 0 -62 12t-40.5 30t-22.5 39.5t-7 40.5h65zM269 0v325h-2l-146 -325h-76v494h77v-323h2l145 323h80v-494h-80z" unicode="й" horiz-adv-x="394"/>
<glyph glyph-name="afii10076" d="M35 0v493h79v-214h34q13 0 27 2t26.5 9.5t23 22t16.5 38.5l38 142h76l-39 -143q-10 -36 -26.5 -60.5t-42.5 -32.5q33 -8 48.5 -34t25.5 -63l43 -160h-78l-34 136q-6 24 -15 39.5t-21 23.5t-26.5 11t-30.5 3h-45v-213h-79z" unicode="к" horiz-adv-x="375"/>
<glyph glyph-name="afii10077" d="M5 42q21 14 34.5 27t21.5 29.5t11 40.5t3 60v295h263v-494h-80v424h-111v-228q0 -47 -5.5 -80.5t-18 -58.5t-33 -42.5t-50.5 -31.5z" unicode="л" horiz-adv-x="373"/>
<glyph glyph-name="afii10078" d="M376 0v332h-2l-48 -103l-58 -113h-36l-58 111l-46 96h-2v-323h-81v494h78l73 -151l54 -107h2l52 107l75 151h78v-494h-81z" unicode="м" horiz-adv-x="502"/>
<glyph glyph-name="afii10079" d="M257 0v219h-130v-219h-81v494h81v-208h130v208h81v-494h-81z" unicode="н" horiz-adv-x="384"/>
<glyph glyph-name="afii10080" d="M186 501q42 0 68.5 -11t42.5 -30.5t23 -46t9 -57.5q2 -29 3 -62t1 -59q0 -57 -6 -114q-5 -40 -20 -65t-36.5 -39t-46.5 -19t-49 -5q-31 0 -53.5 8t-38.5 21t-26 30.5t-15 35.5q-3 12 -5 30t-2.5 39.5t-1 43.5t-0.5 41q0 25 1 51.5t3 50.5t5 43.5t8 31.5q14 38 47 60 t89 22zM184 429q-20 0 -36.5 -9t-25.5 -32q-6 -14 -8 -58.5t-3 -104.5q0 -33 1 -64.5t6 -48.5q14 -46 66 -46q21 0 37 12.5t24 32.5q2 5 4 18.5t3.5 32t2 39.5t0.5 42t-0.5 41.5t-1 39.5t-2 34t-4.5 24q-14 47 -63 47z" unicode="о" horiz-adv-x="362"/>
<glyph glyph-name="afii10081" d="M261 0v424h-134v-424h-79v494h292v-494h-79z" unicode="п" horiz-adv-x="387"/>
<glyph glyph-name="afii10082" d="M205 501q13 0 32 -3.5t36.5 -16t31.5 -36.5t19 -65q3 -30 3.5 -63t0.5 -62q0 -54 -2.5 -101.5t-15 -82.5t-38.5 -55.5t-73 -20.5q-29 0 -50 10.5t-35 30.5h-2v-228h-79v687h79v-38l2 -1q16 22 34 33.5t57 11.5zM178 424q-33 0 -50 -22t-17 -56v-196q0 -35 16 -56t51 -21 q22 0 35.5 8.5t21 29.5t10.5 55.5t3 85.5q0 46 -1.5 78.5t-8.5 53.5t-21 30.5t-39 9.5z" unicode="р" horiz-adv-x="364"/>
<glyph glyph-name="afii10083" d="M173 -7q-31 0 -53.5 8t-38.5 21t-25.5 30.5t-14.5 35.5q-3 12 -5 30t-2.5 39.5t-1 43.5t-0.5 41q0 25 1 51.5t2.5 50.5t4.5 43.5t8 31.5q14 38 46 60t88 22q74 0 105.5 -39.5t31.5 -106.5l-82 -11q0 45 -15.5 65t-42.5 20q-20 0 -34.5 -9t-23.5 -32q-6 -15 -8 -59 t-3 -104q0 -33 1 -64.5t6 -48.5q7 -22 21.5 -34.5t40.5 -12.5q31 0 44.5 22t13.5 60l81 -14q-2 -68 -36.5 -104t-108.5 -36z" unicode="с" horiz-adv-x="334"/>
<glyph glyph-name="afii10084" d="M183 424v-424h-78v424h-104v70h287v-70h-105z" unicode="т" horiz-adv-x="288"/>
<glyph glyph-name="afii10085" d="M191 -83q-12 -50 -38 -80.5t-79 -30.5h-30v68h20q28 0 40.5 18.5t23.5 68.5l8 35l-131 498h84l42 -189l40 -171h3l37 173l41 187h81z" unicode="у" horiz-adv-x="336"/>
<glyph glyph-name="afii10086" d="M194 -7q-56 5 -88.5 22.5t-48.5 47.5q-18 33 -21 79t-3 100q0 50 2 93.5t15 76.5q15 40 49 63t94 26v185h78v-185q66 -3 101 -29t49 -72q3 -12 5.5 -30t3.5 -39t1.5 -44t0.5 -45q0 -58 -4.5 -107.5t-29.5 -83.5q-33 -45 -127 -58v-186h-77v186zM193 425 q-27 -3 -45.5 -13.5t-26.5 -31.5q-3 -9 -5 -25t-3 -37t-1.5 -45t-0.5 -48q0 -17 0.5 -35t1.5 -34.5t3 -30t5 -20.5q16 -33 71 -39zM271 66q52 4 71 40q10 20 11.5 52t1.5 67q0 24 -0.5 48t-1 44.5t-2 36t-4.5 23.5q-8 23 -26.5 34t-49.5 14v-359z" unicode="ф" horiz-adv-x="463"/>
<glyph glyph-name="afii10087" d="M239 0l-71 171l-75 -171h-87l121 252l-117 242h89l69 -163l65 163h92l-114 -241l116 -253h-88z" unicode="х" horiz-adv-x="332"/>
<glyph glyph-name="afii10088" d="M337 494v-419h33v-199h-73v124h-251v494h81v-419h130v419h80z" unicode="ц" horiz-adv-x="385"/>
<glyph glyph-name="afii10089" d="M240 211q-53 -28 -102 -28q-53 0 -82.5 28t-29.5 91v192h80v-171q0 -68 60 -68q17 0 37 6.5t38 17.5v215h78v-494h-79v211z" unicode="ч" horiz-adv-x="355"/>
<glyph glyph-name="afii10090" d="M514 494v-494h-466v494h78v-419h115v419h79v-419h117v419h77z" unicode="ш" horiz-adv-x="562"/>
<glyph glyph-name="afii10091" d="M513 494v-419h34v-183h-71v108h-428v494h77v-419h115v419h79v-419h116v419h78z" unicode="щ" horiz-adv-x="579"/>
<glyph glyph-name="afii10092" d="M217 75h43q28 0 45 7.5t26 19t12 25.5t3 28q0 15 -3 29.5t-12.5 25t-27 17t-45.5 6.5h-41v-158zM135 0v424h-119v70h201v-187h43q52 0 84 -12.5t50 -33t24.5 -47.5t6.5 -57q0 -36 -7 -65t-25 -49.5t-49 -31.5t-79 -11h-130z" unicode="ъ" horiz-adv-x="449"/>
<glyph glyph-name="afii10093" d="M126 75h43q28 0 45 7.5t26 19t12 25.5t3 28q0 15 -3 29.5t-12.5 25t-27 17t-45.5 6.5h-41v-158zM376 0v494h82v-494h-82zM44 0v494h82v-187h43q52 0 84 -12.5t50 -33t24.5 -47.5t6.5 -57q0 -36 -7 -65t-25 -49.5t-49 -31.5t-79 -11h-130z" unicode="ы" horiz-adv-x="508"/>
<glyph glyph-name="afii10094" d="M126 75h43q28 0 45 7.5t26 19t12 25.5t3 28q0 15 -3 29.5t-12.5 25t-27 17t-45.5 6.5h-41v-158zM44 0v494h82v-187h43q52 0 84 -12.5t50 -33t24.5 -47.5t6.5 -57q0 -36 -7 -65t-25 -49.5t-49 -31.5t-79 -11h-130z" unicode="ь" horiz-adv-x="355"/>
<glyph glyph-name="afii10095" d="M91 286h140q-1 37 -3 62.5t-7 39.5q-9 23 -23.5 32t-34.5 9q-26 0 -41.5 -17t-16.5 -49l-82 13q3 55 38 90t106 35q56 0 84.5 -22t42.5 -60q4 -12 7.5 -31.5t5 -43.5t2.5 -50.5t1 -51.5q0 -19 -0.5 -41t-1 -43.5t-2.5 -39.5t-5 -30q-5 -18 -14.5 -35.5t-25.5 -30.5 t-38.5 -21t-53.5 -8q-72 0 -107 33.5t-38 91.5l81 10q2 -28 15.5 -45.5t42.5 -17.5q26 0 40.5 12.5t21.5 34.5q5 16 6 44.5t1 58.5h-141v71z" unicode="э" horiz-adv-x="345"/>
<glyph glyph-name="afii10096" d="M321 498q40 0 65 -11t40 -30.5t22 -46t9 -56.5q2 -29 3 -61.5t1 -58.5q0 -28 -1 -56.5t-4 -57.5q-4 -39 -19 -64t-35.5 -39t-44.5 -19t-46 -5q-29 0 -51 8t-37 21t-24.5 30.5t-13.5 35.5q-5 20 -7 57.5t-2 73.5h-61v-219h-80v494h80v-208h61q2 40 5 75.5t10 54.5 q13 38 45 60t85 22zM319 426q-18 0 -33.5 -9t-23.5 -32q-6 -14 -7.5 -58t-2.5 -103q0 -33 0.5 -64t5.5 -48q13 -46 61 -46q20 0 35.5 12.5t22.5 32.5q2 5 3.5 18.5t2 31.5t1 39t0.5 42v41t-1 39.5t-2 33t-4 23.5q-12 47 -58 47z" unicode="ю" horiz-adv-x="491"/>
<glyph glyph-name="afii10097" d="M45 347q0 69 38 108t116 39h140v-494h-80v208h-43q-29 0 -45.5 -16t-27.5 -61l-33 -131h-80l42 155q6 23 17.5 44t30.5 32q-42 15 -58.5 46.5t-16.5 69.5zM212 424q-47 0 -66.5 -22.5t-19.5 -58.5q0 -32 20.5 -50t58.5 -18h54v149h-47z" unicode="я" horiz-adv-x="379"/>
<glyph glyph-name="afii10071" d="M180 66q29 0 43.5 19.5t16.5 54.5l81 -15q-4 -64 -39.5 -98t-107.5 -34q-32 0 -55 8.5t-39 22t-25.5 30.5t-13.5 34q-3 12 -5 30t-3 39.5t-1.5 43.5t-0.5 41q0 25 0.5 50.5t2.5 48.5t5 42.5t8 32.5q14 39 46.5 62t88.5 23q74 0 107 -41t33 -113v-122h-212q0 -33 1.5 -65 t6.5 -49q14 -45 62 -45zM242 289v42q0 19 -2.5 36.5t-9.5 30.5t-19.5 20.5t-32.5 7.5q-18 0 -33 -8.5t-24 -31.5q-5 -14 -7 -38t-3 -59h131zM224 596v80h68v-80h-68zM70 596v80h69v-80h-69z" unicode="ё" horiz-adv-x="357"/>
<glyph glyph-name="afii10099" d="M229 492q43 0 68 -20t36 -55q4 -12 6.5 -33.5t3.5 -47t1.5 -53t0.5 -51.5q0 -19 -0.5 -43.5t-2 -49t-3.5 -45t-5 -32.5q-5 -18 -15 -35t-26 -30t-38.5 -21t-53.5 -8h-14v71h8q26 0 40.5 12.5t21.5 34.5q3 9 4 24t2 33t1 36.5v35.5q0 54 -1.5 95.5t-6.5 62.5 q-5 17 -17.5 28t-39.5 11q-40 0 -57 -26t-17 -62v-324h-78v575h-47v61h47v90h79v-90h137v-61h-137v-140h3q13 23 39 40t61 17z" unicode="ђ" horiz-adv-x="386"/>
<glyph glyph-name="afii10100" d="M110 573l68 168l71 -25l-96 -160zM126 424v-424h-80v494h257v-70h-177z" unicode="ѓ" horiz-adv-x="323"/>
<glyph glyph-name="afii10101" d="M330 118q-3 -58 -38 -91.5t-107 -33.5q-31 0 -53.5 8t-38.5 21t-25.5 30.5t-14.5 35.5q-3 12 -5 30t-2.5 39.5t-1 43.5t-0.5 41q0 25 1 51.5t2.5 50.5t4.5 43.5t8 31.5q14 38 47 60t89 22q36 0 61 -9.5t41 -26t24 -39.5t9 -51l-82 -8q-2 30 -17.5 46t-40.5 16 q-20 0 -34.5 -9t-23.5 -32q-6 -14 -8 -40.5t-3 -64.5h139v-68h-139q0 -31 1 -59t6 -44q7 -22 21.5 -34.5t40.5 -12.5q29 0 42.5 17.5t15.5 45.5z" unicode="є" horiz-adv-x="355"/>
<glyph glyph-name="afii10102" d="M111 140q-1 -34 14 -54t44 -20q37 0 51 17t14 54q0 17 -3 29.5t-11 22t-22 17.5t-37 17q-38 14 -62.5 30t-38 34t-18.5 38t-5 42q0 59 34.5 96.5t103.5 37.5q74 0 105.5 -36.5t31.5 -99.5l-82 -11q2 39 -14 56.5t-42 17.5q-18 0 -30 -5.5t-18.5 -14.5t-9 -20t-2.5 -21 q0 -12 3 -22.5t12 -20t25 -18.5t43 -18q37 -13 59.5 -28.5t34.5 -34t15.5 -40t3.5 -47.5q0 -66 -32.5 -105.5t-104.5 -39.5t-106.5 34.5t-36.5 99.5z" unicode="ѕ" horiz-adv-x="339"/>
<glyph glyph-name="afii10103" d="M44 616v80h80v-80h-80zM44 0v494h80v-494h-80z" unicode="і" horiz-adv-x="170"/>
<glyph glyph-name="afii10104" d="M126 589v80h68v-80h-68zM-28 589v80h69v-80h-69zM44 0v494h80v-494h-80z" unicode="ї" horiz-adv-x="170"/>
<glyph glyph-name="afii10105" d="M48 617v80h80v-80h-80zM128 -69q0 -26 -5.5 -49.5t-18.5 -41.5t-35.5 -28.5t-56.5 -10.5h-30v75h14q34 0 43 15t9 56v547h80v-563z" unicode="ј" horiz-adv-x="176"/>
<glyph glyph-name="afii10106" d="M147 424v-228q0 -47 -5.5 -80.5t-18 -58.5t-33 -42.5t-50.5 -31.5l-35 59q21 14 34.5 27t21.5 29.5t11 40.5t3 60v295h245v-187h43q52 0 84 -12.5t50 -33t24.5 -47.5t6.5 -57q0 -36 -7 -65t-25 -49.5t-49 -31.5t-79 -11h-130v424h-91zM320 75h43q28 0 45 7.5t26 19 t12 25.5t3 28q0 15 -3 29.5t-12.5 25t-27 17t-45.5 6.5h-41v-158z" unicode="љ" horiz-adv-x="553"/>
<glyph glyph-name="afii10107" d="M334 75h43q28 0 45 7.5t26 19t12 25.5t3 28t-3 26.5t-12.5 21.5t-27 14.5t-45.5 5.5h-41v-148zM252 0v223h-122v-223h-81v494h81v-195h122v195h82v-195h43q52 0 84 -11.5t50 -31t24.5 -45.5t6.5 -54q0 -36 -7 -65t-25 -49.5t-49 -31.5t-79 -11h-130z" unicode="њ" horiz-adv-x="570"/>
<glyph glyph-name="afii10108" d="M127 636h137v-61h-137v-137h3q35 54 101 54q55 0 82.5 -35.5t27.5 -92.5v-364h-80v343q0 32 -17 50.5t-50 18.5q-32 0 -50 -19t-18 -54v-339h-78v575h-47v61h47v90h79v-90z" unicode="ћ" horiz-adv-x="386"/>
<glyph glyph-name="afii10109" d="M135 573l68 168l71 -25l-96 -160zM35 0v493h79v-214h34q13 0 27 2t26.5 9.5t23 22t16.5 38.5l38 142h76l-39 -143q-10 -36 -26.5 -60.5t-42.5 -32.5q33 -8 48.5 -34t25.5 -63l43 -160h-78l-34 136q-6 24 -15 39.5t-21 23.5t-26.5 11t-30.5 3h-45v-213h-79z" unicode="ќ" horiz-adv-x="375"/>
<glyph glyph-name="afii10110" d="M191 -83q-12 -50 -38 -80.5t-79 -30.5h-30v68h20q28 0 40.5 18.5t23.5 68.5l8 35l-131 498h84l42 -189l40 -171h3l37 173l41 187h81zM107 690q1 -10 6 -21t13.5 -20.5t20.5 -15.5t27 -6q16 0 28.5 6t21.5 15.5t13.5 20.5t4.5 21h63q-2 -19 -10 -40.5t-24 -39.5t-40 -30 t-57 -12q-37 0 -62 12t-40.5 30t-22.5 39.5t-7 40.5h65z" unicode="ў" horiz-adv-x="336"/>
<glyph glyph-name="afii10193" d="M338 494v-494h-107v-128h-75v128h-108v494h81v-418h130v418h79z" unicode="џ" horiz-adv-x="386"/>
<glyph glyph-name="afii10050" d="M132 622v-622h-79v696h211l-1 123h72v-197h-203z" unicode="Ґ" horiz-adv-x="358"/>
<glyph glyph-name="afii10098" d="M126 424v-424h-80v494h186v115h71v-185h-177z" unicode="ґ" horiz-adv-x="323"/>
<glyph glyph-name="schwacyrillic" d="M174 428q-29 0 -43.5 -19.5t-16.5 -54.5l-81 15q4 64 39.5 98t107.5 34q32 0 55 -8.5t39 -22t25 -30.5t14 -34q3 -12 5 -30t3 -39.5t1.5 -43.5t0.5 -41q0 -25 -0.5 -50.5t-2.5 -48.5t-5 -42.5t-8 -32.5q-14 -39 -46.5 -62t-88.5 -23q-74 0 -107 41t-33 113v122h212 q0 33 -1.5 65t-6.5 49q-14 45 -62 45zM112 205v-42q0 -20 2.5 -37t9.5 -30t19.5 -20.5t32.5 -7.5q18 0 33 8.5t24 31.5q5 14 7 38t3 59h-131z" unicode="ә" horiz-adv-x="357"/>
<glyph glyph-name="zero.text" d="M331 127q0 -33 -11.5 -58t-31 -42t-45 -25.5t-53.5 -8.5t-53.5 8.5t-45 25.5t-31 42t-11.5 58v439q0 33 11.5 58.5t31 42.5t45 26t53.5 9q62 0 101.5 -35t39.5 -101v-439zM252 569q0 26 -17.5 42t-44.5 16t-44.5 -16t-17.5 -42v-445q0 -26 17.5 -42t44.5 -16t44.5 16 t17.5 42v445z" unicode="" horiz-adv-x="380"/>
<glyph glyph-name="one.text" d="M157 0v613l-101 -81v84l99 80h81v-696h-79z" unicode="" horiz-adv-x="322"/>
<glyph glyph-name="two.text" d="M191 627q-34 -1 -48.5 -28.5t-14.5 -83.5v-6l-79 14v4q0 40 8 72t25.5 55t45 35.5t65.5 12.5q39 0 66 -11t44 -31t24.5 -48.5t7.5 -63.5q0 -83 -38 -160l-156 -315h189v-73h-279v69l181 361q14 27 17.5 57t3.5 60q0 14 -2 28.5t-8 26t-18.5 18.5t-33.5 7z" unicode="" horiz-adv-x="380"/>
<glyph glyph-name="three.text" d="M329 143q0 -40 -12 -68.5t-31.5 -46.5t-45 -26.5t-54.5 -8.5q-41 0 -68.5 12t-44 33t-22.5 50.5t-4 65.5l79 11q-5 -45 9.5 -72t52.5 -27q26 0 44.5 16.5t18.5 57.5v105q0 42 -16.5 60.5t-54.5 18.5h-31v69h33q37 0 53 17t16 57v89q0 13 -2.5 26t-8.5 23t-17 16t-29 6 q-35 0 -51.5 -26.5t-16.5 -70.5l-79 11q1 34 11 63.5t28.5 51t46.5 34t66 12.5q37 0 62 -11.5t40.5 -31t22 -45.5t6.5 -54v-71q0 -20 -1.5 -38.5t-7 -34.5t-17 -29.5t-32.5 -24.5v-3q20 -9 31.5 -20.5t17.5 -27t7.5 -35t1.5 -43.5z" unicode="" horiz-adv-x="380"/>
<glyph glyph-name="four.text" d="M307 110v-110h-79v110h-205v71l146 515h78l-147 -515h128v193h79v-193h49v-71h-49z" unicode="" horiz-adv-x="380"/>
<glyph glyph-name="five.text" d="M187 -7q-41 0 -68 12.5t-43.5 34t-24 51t-8.5 63.5l79 11q0 -22 2 -40t9 -31t20 -20.5t36 -7.5q26 0 43 16.5t19 57.5v180q0 59 -58 59q-23 0 -39 -10.5t-24 -28.5h-69v356h270v-71h-200v-210h5q15 15 37 22.5t45 7.5q59 0 84.5 -33t25.5 -81v-188q0 -40 -11 -68.5 t-30.5 -46.5t-45 -26.5t-54.5 -8.5z" unicode="" horiz-adv-x="380"/>
<glyph glyph-name="six.text" d="M166 388q21 16 52 16q33 0 54.5 -10.5t34.5 -28.5t18.5 -42t5.5 -50v-146q0 -33 -11.5 -58t-31 -42t-45 -25.5t-53.5 -8.5t-53.5 8.5t-45 25.5t-31 42t-11.5 58v116q0 45 6 75t15 53l129 325h80l-116 -305zM252 277q0 26 -17 40.5t-44 14.5q-18 0 -30 -6.5t-19.5 -17 t-10.5 -23.5t-3 -26v-138q0 -26 17.5 -40.5t44.5 -14.5t44.5 14.5t17.5 40.5v156z" unicode="" horiz-adv-x="380"/>
<glyph glyph-name="seven.text" d="M145 0h-76l175 625h-138v-83h-69v154h287v-65z" unicode="" horiz-adv-x="351"/>
<glyph glyph-name="eight.text" d="M331 474q0 -38 -15 -65t-39 -44q24 -17 39 -44.5t15 -65.5v-128q0 -33 -11.5 -58t-31 -42t-45 -25.5t-53.5 -8.5t-53.5 8.5t-45 25.5t-31 42t-11.5 58v128q0 38 14.5 65.5t39.5 44.5q-25 17 -39.5 44t-14.5 65v92q0 33 11.5 58.5t31 42.5t45 26t53.5 9t53.5 -9t45 -26 t31 -42.5t11.5 -58.5v-92zM252 273q0 26 -17.5 43t-44.5 17t-44.5 -17t-17.5 -43v-152q0 -26 17.5 -40.5t44.5 -14.5t44.5 14.5t17.5 40.5v152zM252 572q0 26 -17.5 41.5t-44.5 15.5t-44.5 -15.5t-17.5 -41.5v-114q0 -26 17.5 -42t44.5 -16t44.5 16t17.5 42v114z" unicode="" horiz-adv-x="380"/>
<glyph glyph-name="nine.text" d="M128 419q0 -26 17 -41.5t44 -15.5q18 0 30 7t19.5 17.5t10.5 24t3 26.5v138q0 26 -17.5 40.5t-44.5 14.5t-44.5 -14.5t-17.5 -40.5v-156zM214 308q-21 -16 -52 -16q-33 0 -54.5 10.5t-34.5 28.5t-18.5 42t-5.5 50v146q0 33 11.5 58t31 42t45 25.5t53.5 8.5q67 0 104 -34 t37 -100v-116q0 -45 -6 -75t-15 -53l-129 -325h-80l116 305z" unicode="" horiz-adv-x="380"/>
<glyph glyph-name="numbersign.text" d="M207 225h-87l-41 -225h-53l42 225h-61v52h71l27 150h-61v52h71l42 222h53l-42 -222h87l41 222h53l-42 -222h62v-52h-72l-27 -150h62v-52h-72l-42 -225h-53zM130 277h87l28 150h-87z" unicode="" horiz-adv-x="380"/>
<glyph glyph-name="dollar.text" d="M350 190q0 -42 -7.5 -77t-24.5 -60.5t-44.5 -40.5t-66.5 -18v-88h-38v88q-76 5 -111 49t-35 109l79 16q0 -35 14 -63.5t53 -34.5v257q-46 21 -74 41.5t-43 44t-19.5 49.5t-4.5 57q0 75 34.5 124.5t106.5 57.5v79h38v-79q41 -2 68.5 -17t44 -36.5t23.5 -47.5t7 -51 l-78 -20q0 42 -15 67t-50 30v-230q48 -19 76.5 -39.5t43 -44.5t19 -54t4.5 -68zM272 189q0 27 -2 45t-9 31.5t-20 23.5t-34 21v-240q23 3 36 14t19.5 27t8 36t1.5 42zM107 520q0 -18 1.5 -32.5t7.5 -27t18.5 -23.5t34.5 -23v211q-20 -4 -32 -14.5t-18.5 -25.5t-9 -32 t-2.5 -33z" unicode="" horiz-adv-x="380"/>
<glyph glyph-name="euro.text" d="M18 319h32v63h-32v47h32v76q0 37 6.5 72.5t23.5 63t48 44.5t79 17q75 0 113.5 -38t39.5 -101l-79 -13q-4 79 -75 79q-24 0 -39 -11t-23.5 -27.5t-11.5 -36.5t-3 -38v-87h142v-47h-142v-63h142v-49h-142v-105q0 -15 3 -32.5t11.5 -32t23 -24.5t38.5 -10q35 0 53.5 19.5 t22.5 61.5l81 -12q-6 -67 -44.5 -104.5t-110.5 -37.5q-79 0 -118 44t-39 124v109h-32v49z" unicode="" horiz-adv-x="380"/>
<glyph glyph-name="florin.text" d="M93 417h78l12 91q4 34 12 68t24 60t41.5 42.5t64.5 16.5q17 0 33.5 -3t28.5 -9q-4 -20 -7.5 -35t-7.5 -35q-11 5 -25.5 7.5t-25.5 2.5q-35 0 -49.5 -31t-19.5 -79l-13 -96h82v-69h-90l-29 -243q-5 -48 -13.5 -84t-23.5 -61t-37.5 -37.5t-54.5 -12.5q-17 0 -37 4.5 t-37 12.5q5 20 9.5 31t10.5 30q13 -6 24.5 -8t21.5 -2q33 0 46.5 31.5t20.5 94.5l30 244h-69v69z" unicode="" horiz-adv-x="380"/>
<glyph glyph-name="sterling.text" d="M192 702q72 0 115.5 -40t41.5 -115l-79 -19q1 46 -17.5 73.5t-59.5 27.5q-31 0 -50.5 -21.5t-19.5 -55.5q0 -18 5 -36.5t11.5 -40t13.5 -48t12 -60.5h95v-65h-90v-17q0 -66 -14.5 -115t-37.5 -99h219v-71h-307v71q13 25 24.5 49t19.5 49t12.5 52t4.5 60q0 5 -0.5 10.5 t-0.5 10.5h-58v65h53q-5 31 -12 53.5t-14.5 41.5t-12.5 38.5t-5 45.5q0 71 40.5 113.5t110.5 42.5z" unicode="" horiz-adv-x="401"/>
<glyph glyph-name="cent.text" d="M160 -117v111q-55 3 -82.5 31t-36.5 63q-3 12 -5 30t-2.5 39.5t-1 43.5t-0.5 41q0 25 1 51.5t2.5 50.5t4.5 43.5t8 31.5q12 34 39 55t73 26v101h41v-101q64 -5 91 -43.5t27 -101.5l-82 -11q0 35 -9.5 54t-26.5 27v-357q19 8 27.5 28t8.5 51l81 -14q-2 -61 -30 -96.5 t-87 -41.5v-112h-41zM117 112q5 -17 15.5 -29t27.5 -16v360q-26 -8 -39 -39q-6 -15 -8 -59t-3 -104q0 -33 1 -64.5t6 -48.5z" unicode="" horiz-adv-x="334"/>
<glyph glyph-name="yen.text" d="M238 333h103v-49h-115v-61h115v-50h-115v-174h-72v174h-113v50h113v61h-113v49h101l-118 363h77l87 -299h3l88 299h77z" unicode="" horiz-adv-x="380"/>
<glyph glyph-name="zero.taboldstyle" d="M331 127q0 -33 -11.5 -58t-31 -42t-45 -25.5t-53.5 -8.5t-53.5 8.5t-45 25.5t-31 42t-11.5 58v238q0 33 11.5 58.5t31 42.5t45 26t53.5 9t53.5 -9t45 -26t31 -42.5t11.5 -58.5v-238zM252 371q0 26 -17.5 40.5t-44.5 14.5t-44.5 -14.5t-17.5 -40.5v-250q0 -26 17.5 -39.5 t44.5 -13.5t44.5 13.5t17.5 39.5v250z" unicode="" horiz-adv-x="380"/>
<glyph glyph-name="one.taboldstyle" d="M153 72v339l-101 -81v84l99 80h81v-422h96v-72h-268v72h93z" unicode="" horiz-adv-x="380"/>
<glyph glyph-name="two.taboldstyle" d="M337 356q0 -34 -13 -67t-37 -61l-139 -156h189v-72h-292v69l182 210q14 16 21 36.5t7 39.5q0 29 -15.5 50t-51.5 21q-35 0 -50.5 -30t-14.5 -79l-79 14q0 36 8.5 67t27 54t46.5 36t67 13t66 -11t44.5 -30.5t25.5 -46t8 -57.5z" unicode="" horiz-adv-x="380"/>
<glyph glyph-name="three.taboldstyle" d="M327 -25q0 -38 -11 -64.5t-30.5 -43.5t-45 -25t-53.5 -8q-39 0 -66 11t-43 31.5t-22 48.5t-4 62l78 10q-5 -42 9.5 -67.5t49.5 -25.5q24 0 42 15.5t18 52.5v99q0 39 -15.5 56t-51.5 17h-31v66h33q35 0 50 16t15 53v84q0 12 -2 23.5t-8 21t-16.5 15t-27.5 5.5 q-33 0 -49 -24.5t-16 -66.5l-78 10q1 33 10.5 61t28 48.5t45.5 32.5t64 12q36 0 60.5 -11t39.5 -29.5t21.5 -43t6.5 -51.5v-66q0 -19 -1.5 -36.5t-7 -33t-16.5 -28.5t-30 -24q19 -9 30 -20t16 -25t6.5 -32.5t1.5 -40.5v-85z" unicode="" horiz-adv-x="380"/>
<glyph glyph-name="four.taboldstyle" d="M305 0v-160h-79v160h-199v68l142 426h78l-143 -425h122v181h79v-181h47v-69h-47z" unicode="" horiz-adv-x="380"/>
<glyph glyph-name="five.taboldstyle" d="M189 -166q-39 0 -65.5 11.5t-42.5 32t-23.5 48t-8.5 60.5l78 10q0 -20 2 -37t8.5 -29.5t19.5 -19.5t34 -7q24 0 42 15.5t18 53.5v169q0 54 -56 54q-23 0 -38 -9.5t-23 -26.5h-68v335h264v-68h-194v-196h3q14 13 36 20.5t44 7.5q59 0 85 -31t26 -76v-176 q0 -38 -11.5 -64.5t-30.5 -43.5t-45 -25t-54 -8z" unicode="" horiz-adv-x="380"/>
<glyph glyph-name="six.taboldstyle" d="M167 367q10 6 22.5 10t26.5 4q32 0 53.5 -10t34 -27t18 -39.5t5.5 -47.5v-137q0 -31 -11 -55t-30 -40t-44 -24t-53 -8q-27 0 -52 8t-44 24t-30 40t-11 55v108q0 43 6 71.5t14 49.5l125 305h80l-88 -224l-25 -61zM248 260q0 24 -16 37.5t-42 13.5q-33 0 -46.5 -21.5 t-13.5 -46.5v-128q0 -24 16.5 -37.5t42.5 -13.5t42.5 13.5t16.5 37.5v145z" unicode="" horiz-adv-x="380"/>
<glyph glyph-name="seven.taboldstyle" d="M156 -160h-75l169 586h-131v-78h-69v146h280v-62z" unicode="" horiz-adv-x="380"/>
<glyph glyph-name="eight.taboldstyle" d="M327 446q0 -36 -13.5 -61.5t-36.5 -41.5q23 -17 36.5 -42.5t13.5 -60.5v-120q0 -31 -11 -55t-30 -40t-44 -24t-53 -8q-27 0 -52 8t-44 24t-30 40t-11 55v120q0 35 13.5 60.5t36.5 42.5q-23 16 -36.5 41.5t-13.5 61.5v85q0 31 11 55.5t30 40.5t44 24.5t52 8.5 q28 0 53 -8.5t44 -24.5t30 -40.5t11 -55.5v-85zM248 257q0 24 -16.5 39.5t-42.5 15.5t-42.5 -15.5t-16.5 -39.5v-142q0 -24 16.5 -37.5t42.5 -13.5t42.5 13.5t16.5 37.5v142zM248 537q0 24 -16.5 38t-42.5 14t-42.5 -14t-16.5 -38v-106q0 -24 16.5 -39t42.5 -15t42.5 15 t16.5 39v106z" unicode="" horiz-adv-x="380"/>
<glyph glyph-name="nine.taboldstyle" d="M214 126q-10 -5 -24 -9t-28 -4q-32 0 -53 10t-34 27t-18 39.5t-5 47.5v137q0 31 11 55t30 40t44 24t52 8q66 0 102 -32t36 -95v-109q0 -43 -6 -70.5t-14 -49.5l-125 -305h-80zM130 233q0 -24 16 -38t42 -14q17 0 28.5 6t18.5 16t10 22.5t3 24.5v129q0 24 -16.5 37.5 t-42.5 13.5t-42.5 -13.5t-16.5 -37.5v-146z" unicode="" horiz-adv-x="380"/>
<glyph glyph-name="numbersign.taboldstyle" d="M207 191h-78l-37 -191h-48l38 191h-55v44h64l25 128h-55v44h64l37 189h48l-38 -189h79l36 189h48l-38 -189h56v-44h-65l-24 -128h56v-44h-65l-38 -191h-47zM138 235h78l26 128h-79z" unicode="" horiz-adv-x="380"/>
<glyph glyph-name="dollar.taboldstyle" d="M338 163q0 -72 -30 -116t-99 -52v-75h-36v75q-68 5 -99.5 43t-31.5 93l73 14q0 -29 13 -53.5t45 -29.5v215q-39 17 -64 35t-39 38t-19 42.5t-5 48.5q0 62 32.5 104.5t94.5 50.5v67h36v-67q36 -3 60.5 -15.5t40 -31t22 -40.5t6.5 -43l-72 -17q0 34 -13.5 55t-43.5 26v-192 q39 -15 64 -32t39.5 -38t20 -47t5.5 -58zM266 162q0 21 -2 36.5t-8 26.5t-17.5 20t-29.5 18v-201q19 3 30 12.5t17 22.5t8 30t2 35zM119 442q0 -29 10.5 -49.5t43.5 -38.5v175q-16 -3 -26.5 -12t-16.5 -21t-8.5 -26.5t-2.5 -27.5z" unicode="" horiz-adv-x="380"/>
<glyph glyph-name="euro.taboldstyle" d="M34 272h29v52h-29v42h29v63q0 32 5.5 62t21.5 53.5t43.5 38t71.5 14.5q69 0 103.5 -33t35.5 -86l-73 -11q-2 34 -18 50t-49 16q-21 0 -34 -9t-20.5 -22.5t-10.5 -30.5t-3 -32v-73h128v-42h-128v-52h128v-43h-128v-88q0 -13 2.5 -27.5t10 -27t21 -20.5t34.5 -8 q31 0 47 16.5t20 52.5l75 -10q-5 -58 -40 -90.5t-101 -32.5q-72 0 -107 37.5t-35 106.5v91h-29v43z" unicode="" horiz-adv-x="380"/>
<glyph glyph-name="florin.taboldstyle" d="M93 354h76l12 86q3 32 11 63.5t23 56.5t40 40.5t63 15.5q37 0 60 -12l-14 -65q-11 5 -25 7t-25 2q-34 0 -48 -29t-19 -74l-12 -91h79v-64h-87l-28 -229q-5 -45 -13.5 -79t-23 -57t-36 -35t-52.5 -12q-17 0 -36.5 4t-35.5 12l19 57q13 -5 24 -7t21 -2q32 0 45 29.5 t20 88.5l29 230h-67v64z" unicode="" horiz-adv-x="380"/>
<glyph glyph-name="sterling.taboldstyle" d="M192 597q65 0 104 -35t38 -98l-73 -16q1 39 -16 61t-52 24q-27 0 -44.5 -18t-17.5 -46q0 -15 4.5 -30.5t10.5 -33.5q6 -19 12 -41t11 -51h85v-57h-81v-14q0 -55 -13 -96.5t-33 -83.5h196v-62h-278v61q12 22 22 42t17.5 41t11.5 44.5t4 50.5v17h-53v57h48q-4 24 -10 41.5 t-12 32.5q-7 18 -12.5 35.5t-5.5 41.5q0 60 36.5 96.5t100.5 36.5z" unicode="" horiz-adv-x="380"/>
<glyph glyph-name="cent.taboldstyle" d="M171 -59v94q-45 5 -70 29t-33 52q-3 10 -5 25.5t-2.5 33.5t-1 36.5t-0.5 34.5q0 21 1 43t2.5 42.5t4.5 37t7 27.5q11 28 35.5 46.5t61.5 22.5v87h34v-85q61 -4 88 -37.5t27 -88.5l-76 -10q0 33 -10.5 50.5t-28.5 21.5v-305q20 3 29.5 21.5t9.5 47.5l75 -12 q-3 -111 -114 -120v-94h-34zM138 136q5 -13 12.5 -22.5t20.5 -13.5v300q-8 -2 -16 -10.5t-13 -19.5q-6 -13 -7 -51.5t-2 -89.5v-52.5t5 -40.5z" unicode="" horiz-adv-x="380"/>
<glyph glyph-name="yen.taboldstyle" d="M234 284h93v-44h-104v-49h104v-44h-104v-148h-66v148h-102v44h102v49h-102v44h91l-106 308h71l80 -252l78 252h71z" unicode="" horiz-adv-x="380"/>
<glyph glyph-name="zero.textoldstyle" d="M321 127q0 -33 -11.5 -58t-31 -42t-45 -25.5t-53.5 -8.5t-53.5 8.5t-45 25.5t-31 42t-11.5 58v238q0 33 11.5 58.5t31 42.5t45 26t53.5 9t53.5 -9t45 -26t31 -42.5t11.5 -58.5v-238zM242 371q0 26 -17.5 40.5t-44.5 14.5t-44.5 -14.5t-17.5 -40.5v-250q0 -26 17.5 -39.5 t44.5 -13.5t44.5 13.5t17.5 39.5v250z" unicode="" horiz-adv-x="360"/>
<glyph glyph-name="one.textoldstyle" d="M145 72v339l-101 -81v84l99 80h81v-422h96v-72h-268v72h93z" unicode="" horiz-adv-x="360"/>
<glyph glyph-name="two.textoldstyle" d="M323 356q0 -34 -13 -67t-37 -61l-136 -156h188v-72h-292v69l182 210q14 16 21 36.5t7 39.5q0 29 -15.5 50t-51.5 21q-35 0 -50.5 -30t-14.5 -79l-79 14q0 36 8.5 67t27 54t46.5 36t67 13t66 -11t44 -30.5t24.5 -46t7.5 -57.5z" unicode="" horiz-adv-x="361"/>
<glyph glyph-name="three.textoldstyle" d="M304 -25q0 -38 -11 -64.5t-30.5 -43.5t-45 -25t-53.5 -8q-39 0 -66 11t-43 31.5t-22 48.5t-4 62l78 10q-5 -42 9.5 -67.5t49.5 -25.5q24 0 42 15.5t18 52.5v99q0 39 -15.5 56t-51.5 17h-31v66h33q35 0 50 16t15 53v84q0 12 -2 23.5t-8 21t-16.5 15t-27.5 5.5 q-33 0 -49 -24.5t-16 -66.5l-78 10q1 33 10.5 61t28 48.5t45.5 32.5t64 12q36 0 60.5 -11t39.5 -29.5t21.5 -43t6.5 -51.5v-66q0 -19 -1.5 -36.5t-7 -33t-16.5 -28.5t-30 -24q19 -9 30 -20t16 -25t6.5 -32.5t1.5 -40.5v-85z" unicode="" horiz-adv-x="344"/>
<glyph glyph-name="four.textoldstyle" d="M301 0v-160h-79v160h-199v68l142 426h78l-143 -425h122v181h79v-181h47v-69h-47z" unicode="" horiz-adv-x="367"/>
<glyph glyph-name="five.textoldstyle" d="M168 -166q-39 0 -65.5 11.5t-42.5 32t-23.5 48t-8.5 60.5l78 10q0 -20 2 -37t8.5 -29.5t19.5 -19.5t34 -7q24 0 42 15.5t18 53.5v169q0 54 -56 54q-23 0 -38 -9.5t-23 -26.5h-68v335h264v-68h-194v-196h3q14 13 36 20.5t44 7.5q59 0 85 -31t26 -76v-176 q0 -38 -11.5 -64.5t-30.5 -43.5t-45 -25t-54 -8z" unicode="" horiz-adv-x="350"/>
<glyph glyph-name="six.textoldstyle" d="M161 367q10 6 22.5 10t26.5 4q32 0 53.5 -10t34 -27t18 -39.5t5.5 -47.5v-137q0 -31 -11 -55t-30 -40t-44 -24t-53 -8q-27 0 -52 8t-44 24t-30 40t-11 55v108q0 43 6 71.5t14 49.5l125 305h80l-88 -224l-25 -61zM242 260q0 24 -16 37.5t-42 13.5q-33 0 -46.5 -21.5 t-13.5 -46.5v-128q0 -24 16.5 -37.5t42.5 -13.5t42.5 13.5t16.5 37.5v145z" unicode="" horiz-adv-x="367"/>
<glyph glyph-name="seven.textoldstyle" d="M149 -160h-75l169 586h-131v-78h-69v146h280v-62z" unicode="" horiz-adv-x="361"/>
<glyph glyph-name="eight.textoldstyle" d="M317 446q0 -36 -13.5 -61.5t-36.5 -41.5q23 -17 36.5 -42.5t13.5 -60.5v-120q0 -31 -11 -55t-30 -40t-44 -24t-53 -8q-27 0 -52 8t-44 24t-30 40t-11 55v120q0 35 13.5 60.5t36.5 42.5q-23 16 -36.5 41.5t-13.5 61.5v85q0 31 11 55.5t30 40.5t44 24.5t52 8.5 q28 0 53 -8.5t44 -24.5t30 -40.5t11 -55.5v-85zM238 257q0 24 -16.5 39.5t-42.5 15.5t-42.5 -15.5t-16.5 -39.5v-142q0 -24 16.5 -37.5t42.5 -13.5t42.5 13.5t16.5 37.5v142zM238 537q0 24 -16.5 38t-42.5 14t-42.5 -14t-16.5 -38v-106q0 -24 16.5 -39t42.5 -15t42.5 15 t16.5 39v106z" unicode="" horiz-adv-x="355"/>
<glyph glyph-name="nine.textoldstyle" d="M208 126q-10 -5 -24 -9t-28 -4q-32 0 -53 10t-34 27t-18 39.5t-5 47.5v137q0 31 11 55t30 40t44 24t52 8q66 0 102 -32t36 -95v-109q0 -43 -6 -70.5t-14 -49.5l-125 -305h-80zM124 233q0 -24 16 -38t42 -14q17 0 28.5 6t18.5 16t10 22.5t3 24.5v129q0 24 -16.5 37.5 t-42.5 13.5t-42.5 -13.5t-16.5 -37.5v-146z" unicode="" horiz-adv-x="367"/>
<glyph glyph-name="numbersign.textoldstyle" d="M194 191h-78l-37 -191h-48l38 191h-55v44h64l25 128h-55v44h64l37 189h48l-38 -189h79l36 189h48l-38 -189h56v-44h-65l-24 -128h56v-44h-65l-38 -191h-47zM125 235h78l26 128h-79z" unicode="" horiz-adv-x="355"/>
<glyph glyph-name="dollar.textoldstyle" d="M318 163q0 -72 -30 -116t-99 -52v-75h-36v75q-68 5 -99.5 43t-31.5 93l73 14q0 -29 13 -53.5t45 -29.5v215q-39 17 -64 35t-39 38t-19 42.5t-5 48.5q0 62 32.5 104.5t94.5 50.5v67h36v-67q36 -3 60.5 -15.5t40 -31t22 -40.5t6.5 -43l-72 -17q0 34 -13.5 55t-43.5 26v-192 q39 -15 64 -32t39.5 -38t20 -47t5.5 -58zM246 162q0 21 -2 36.5t-8 26.5t-17.5 20t-29.5 18v-201q19 3 30 12.5t17 22.5t8 30t2 35zM99 442q0 -29 10.5 -49.5t43.5 -38.5v175q-16 -3 -26.5 -12t-16.5 -21t-8.5 -26.5t-2.5 -27.5z" unicode="" horiz-adv-x="344"/>
<glyph glyph-name="euro.textoldstyle" d="M24 272h29v52h-29v42h29v63q0 32 5.5 62t21.5 53.5t43.5 38t71.5 14.5q69 0 103.5 -33t35.5 -86l-73 -11q-2 34 -18 50t-49 16q-21 0 -34 -9t-20.5 -22.5t-10.5 -30.5t-3 -32v-73h128v-42h-128v-52h128v-43h-128v-88q0 -13 2.5 -27.5t10 -27t21 -20.5t34.5 -8 q31 0 47 16.5t20 52.5l75 -10q-5 -58 -40 -90.5t-101 -32.5q-72 0 -107 37.5t-35 106.5v91h-29v43z" unicode="" horiz-adv-x="361"/>
<glyph glyph-name="florin.textoldstyle" d="M78 354h76l12 86q3 32 11 63.5t23 56.5t40 40.5t63 15.5q37 0 60 -12l-14 -65q-11 5 -25 7t-25 2q-34 0 -48 -29t-19 -74l-12 -91h79v-64h-87l-28 -229q-5 -45 -13.5 -79t-23 -57t-36 -35t-52.5 -12q-17 0 -36.5 4t-35.5 12l19 57q13 -5 24 -7t21 -2q32 0 45 29.5 t20 88.5l29 230h-67v64z" unicode="" horiz-adv-x="350"/>
<glyph glyph-name="sterling.textoldstyle" d="M190 597q65 0 104.5 -34.5t37.5 -98.5l-73 -16q1 39 -16 61t-52 24q-27 0 -44.5 -18t-17.5 -46q0 -15 4.5 -30.5t10.5 -33.5q6 -19 12 -41t11 -51h85v-57h-81v-14q0 -55 -13 -96.5t-33 -83.5h196v-62h-278v61q12 22 22 42t17.5 41t11.5 44.5t4 50.5v17h-53v57h48 q-4 24 -10 41.5t-12 32.5q-7 18 -12.5 35.5t-5.5 41.5q0 60 36.5 96.5t100.5 36.5z" unicode="" horiz-adv-x="350"/>
<glyph glyph-name="cent.textoldstyle" d="M153 -59v94q-45 5 -70 29t-33 52q-3 10 -5 25.5t-2.5 33.5t-1 36.5t-0.5 34.5q0 21 1 43t2.5 42.5t4.5 37t7 27.5q11 28 35.5 46.5t61.5 22.5v87h34v-85q61 -4 88 -37.5t27 -88.5l-76 -10q0 33 -10.5 50.5t-28.5 21.5v-305q20 3 29.5 21.5t9.5 47.5l75 -12 q-3 -111 -114 -120v-94h-34zM120 136q5 -13 12.5 -22.5t20.5 -13.5v300q-18 -7 -29 -30q-6 -13 -7 -51.5t-2 -89.5v-52.5t5 -40.5z" unicode="" horiz-adv-x="333"/>
<glyph glyph-name="yen.textoldstyle" d="M219 284h93v-44h-104v-49h104v-44h-104v-148h-66v148h-102v44h102v49h-102v44h91l-106 308h71l80 -252l78 252h71z" unicode="" horiz-adv-x="350"/>
<glyph glyph-name="percent.text" d="M159 -14h-46l283 621h46zM207 314q0 -39 -27.5 -59.5t-63.5 -20.5q-37 0 -64.5 20.5t-27.5 59.5v199q0 40 27.5 60t64.5 20q36 0 63.5 -20t27.5 -60v-199zM148 512q0 12 -9 21.5t-23 9.5q-15 0 -24 -9.5t-9 -21.5v-197q0 -13 9 -21.5t24 -8.5q14 0 23 8.5t9 21.5v197z M525 78q0 -39 -27.5 -59.5t-63.5 -20.5q-37 0 -64.5 20.5t-27.5 59.5v199q0 40 27.5 60t64.5 20q36 0 63.5 -20t27.5 -60v-199zM466 276q0 12 -9 21.5t-23 9.5q-15 0 -24 -9.5t-9 -21.5v-197q0 -13 9 -21.5t24 -8.5q14 0 23 8.5t9 21.5v197z" unicode="" horiz-adv-x="549"/>
<glyph glyph-name="perthousand.text" d="M520 68q0 -35 -25.5 -53t-60.5 -18t-61 18t-26 53v217q0 35 26 53t61 18t60.5 -18t25.5 -53v-217zM464 288q0 11 -8 17t-22 6t-23 -6t-9 -17v-223q0 -12 9 -17.5t23 -5.5t22 5.5t8 17.5v223zM203 305q0 -35 -26 -53t-61 -18t-61 18t-26 53v217q0 35 26 53t61 18t61 -18 t26 -53v-217zM147 525q0 11 -8.5 17t-22.5 6q-31 0 -31 -23v-223q0 -23 31 -23q14 0 22.5 5.5t8.5 17.5v223zM159 -14h-46l283 621h46zM750 68q0 -35 -26 -53t-61 -18t-61 18t-26 53v217q0 35 26 53t61 18t61 -18t26 -53v-217zM694 288q0 11 -8.5 17t-22.5 6q-31 0 -31 -23 v-223q0 -23 31 -23q14 0 22.5 5.5t8.5 17.5v223z" unicode="" horiz-adv-x="779"/>
<glyph glyph-name="asuperior" d="M20 534q8 35 35 56t68 21q48 0 75 -20.5t27 -73.5v-238h-66v22q-14 -14 -30 -20t-36 -6q-23 0 -38 8.5t-24 22.5t-13 31.5t-4 35.5t4 37t15 34.5t30 25t48 9.5h48v38q0 17 -7.5 26t-30.5 9q-12 0 -24 -8t-16 -27zM159 424h-33q-20 0 -34 -10.5t-14 -37.5q0 -41 37 -41 q23 0 33.5 12.5t10.5 33.5v43z" unicode="" horiz-adv-x="249"/>
<glyph glyph-name="bsuperior" d="M146 275q-17 0 -32.5 6t-24.5 17v-19h-66v476h67v-172q12 14 30.5 20t29.5 6q30 0 47 -10.5t25.5 -28.5t11 -42.5t2.5 -52.5v-18q0 -25 -0.5 -49t-3.5 -50q-3 -29 -13 -45.5t-23 -24.5t-26.5 -10.5t-23.5 -2.5zM128 335q30 0 36 24.5t6 80.5q0 29 -0.5 49.5t-4.5 34 t-12.5 20t-24.5 6.5q-17 0 -28.5 -12t-11.5 -29v-129q0 -20 9.5 -32.5t30.5 -12.5z" unicode="" horiz-adv-x="254"/>
<glyph glyph-name="dsuperior" d="M125 335q20 0 29 12.5t9 32.5v125q0 20 -9 32.5t-29 12.5q-27 0 -35 -24t-8 -86q0 -56 6.5 -80.5t36.5 -24.5zM106 275q-10 0 -23.5 2.5t-26.5 10.5t-23.5 24.5t-13.5 45.5q-2 20 -2 40.5v39.5q0 36 1.5 67.5t10.5 54.5t28 36.5t53 13.5q35 0 53 -22v167h66v-476h-66v20 q-9 -14 -21 -19t-36 -5z" unicode="" horiz-adv-x="255"/>
<glyph glyph-name="esuperior" d="M125 331q33 0 35 50l66 -13q-3 -45 -29 -69.5t-77 -24.5q-23 0 -39.5 6t-28.5 15.5t-19 21t-10 22.5q-5 18 -5.5 46.5t-0.5 53.5q0 33 2 65t9 49q11 26 34 42t64 16q54 0 77.5 -28t23.5 -77v-84h-145v-38.5t5 -26.5q10 -26 38 -26zM160 475v21q0 11 -1 21.5t-5 18 t-11.5 12t-20.5 4.5q-10 0 -19 -5.5t-14 -16.5q-4 -9 -5.5 -23.5t-1.5 -31.5h78z" unicode="" horiz-adv-x="246"/>
<glyph glyph-name="egravesuperior" d="M119 637l-68 109l55 19l49 -115zM125 331q33 0 35 50l66 -13q-3 -45 -29 -69.5t-77 -24.5q-23 0 -39.5 6t-28.5 15.5t-19 21t-10 22.5q-5 18 -5.5 46.5t-0.5 53.5q0 33 2 65t9 49q11 26 34 42t64 16q54 0 77.5 -28t23.5 -77v-84h-145v-38.5t5 -26.5q10 -26 38 -26z M160 475v21q0 11 -1 21.5t-5 18t-11.5 12t-20.5 4.5q-10 0 -19 -5.5t-14 -16.5q-4 -9 -5.5 -23.5t-1.5 -31.5h78z" unicode="" horiz-adv-x="246"/>
<glyph glyph-name="hsuperior" d="M88 582q19 27 61 27q39 0 61 -24.5t22 -62.5v-243h-65v225q0 19 -10 31.5t-30 12.5t-30 -13t-10 -33v-223h-65v476h66v-173z" unicode="" horiz-adv-x="255"/>
<glyph glyph-name="isuperior" d="M24 279v328h67v-328h-67zM24 673v63h67v-63h-67z" unicode="" horiz-adv-x="117"/>
<glyph glyph-name="lsuperior" d="M29 755h66v-388q0 -18 4 -27t21 -9h15v-57h-16q-46 0 -68 17t-22 67v397z" unicode="" horiz-adv-x="145"/>
<glyph glyph-name="msuperior" d="M375 279h-65v226q0 19 -9.5 31t-26.5 12q-18 0 -28 -12.5t-11 -31.5v-225h-66v226q0 19 -9 31t-27 12q-17 0 -28.5 -13.5t-11.5 -34.5v-221h-63v328h65v-25q11 12 25.5 19.5t34.5 7.5q45 0 65 -31q15 14 33 22.5t41 8.5q40 0 60.5 -24.5t20.5 -62.5v-243z" unicode="" horiz-adv-x="404"/>
<glyph glyph-name="osuperior" d="M128 611q44 0 66 -16.5t30 -39.5q3 -9 5 -24t3 -32.5t1.5 -35t0.5 -32.5q0 -19 -1 -35t-3 -34q-3 -27 -13.5 -44t-25 -27t-32 -13.5t-34.5 -3.5q-24 0 -42 6t-30 15.5t-19 21t-10 22.5q-4 15 -5 45t-1 55q0 33 3 66.5t9 48.5q11 28 34.5 42.5t63.5 14.5zM127 553 q-12 0 -22 -4.5t-15 -17.5q-3 -10 -5 -38t-2 -65v-40.5t4 -30.5q6 -26 40 -26q16 0 25 7.5t11 14.5q5 11 6.5 35.5t1.5 51.5q0 26 -1 51t-5 38q-8 24 -38 24z" unicode="" horiz-adv-x="249"/>
<glyph glyph-name="rsuperior" d="M95 570q12 20 30 30.5t38 10.5h12v-74q-8 2 -14.5 3t-10.5 1q-26 0 -40.5 -12.5t-14.5 -42.5v-207h-65v328h65v-37z" unicode="" horiz-adv-x="177"/>
<glyph glyph-name="ssuperior" d="M82 381q-1 -23 8 -36.5t27 -13.5q22 0 30.5 10t8.5 31q0 19 -8.5 29t-38.5 20q-53 19 -70.5 43.5t-17.5 55.5q0 39 24.5 65t75.5 26q54 0 76 -26.5t22 -71.5l-66 -9q2 26 -7.5 37.5t-25.5 11.5q-22 0 -28.5 -11t-6.5 -22q0 -13 10.5 -24t42.5 -21q50 -18 65 -43t15 -59 q0 -44 -23 -71.5t-76 -27.5q-51 0 -76 25t-26 72z" unicode="" horiz-adv-x="234"/>
<glyph glyph-name="tsuperior" d="M103 607h44v-52h-44v-184q0 -21 7 -27.5t20 -6.5h16v-58h-33q-23 0 -38 7t-23.5 17.5t-11.5 24t-3 27.5v200h-35v52h37v77h64v-77z" unicode="" horiz-adv-x="159"/>
<glyph glyph-name="Parenleft" d="M169 -80q-27 40 -51.5 86t-42.5 98t-29 109.5t-11 120.5q0 64 10.5 121.5t28.5 109t42 97t51 85.5l38 -18q-47 -83 -73 -186.5t-26 -204.5q0 -109 26.5 -212t71.5 -184l-35 -22v0z" unicode="" horiz-adv-x="210"/>
<glyph glyph-name="Parenright" d="M36 -58q45 81 71.5 184t26.5 212q0 101 -26 204.5t-73 186.5l38 18q27 -40 51 -85.5t42 -97t28.5 -109t10.5 -121.5q0 -63 -11 -120.5t-29 -109.5t-42.5 -98t-51.5 -86z" unicode="" horiz-adv-x="210"/>
<glyph glyph-name="Hyphen" d="M49 283v67h259v-67h-259z" unicode="" horiz-adv-x="346"/>
<glyph glyph-name="Bracketleft" d="M63 -71v798h134v-49h-66v-700h66v-49h-134z" unicode="" horiz-adv-x="210"/>
<glyph glyph-name="Bracketright" d="M14 -72v50h66v700h-66v49h133v-799h-133z" unicode="" horiz-adv-x="210"/>
<glyph glyph-name="Braceleft" d="M170 -73q-37 0 -62 29t-25 78v140q0 53 -13 88t-51 40v51q19 3 31 14.5t19.5 29t10.5 40t3 46.5v137q0 50 25 79t62 29h44v-54h-19q-13 0 -21 -8t-13 -20.5t-7 -28t-2 -30.5v-126q0 -32 -6.5 -55.5t-16.5 -39.5t-20.5 -24.5t-17.5 -11.5v-3q7 -3 17.5 -11.5t20.5 -24.5 t16.5 -39t6.5 -54v-131q0 -15 2 -30.5t7 -28t13 -20.5t21 -8h19v-53h-44z" unicode="" horiz-adv-x="230"/>
<glyph glyph-name="Braceright" d="M20 -73v53h19q13 0 21 8t13 20.5t7 28t2 30.5v131q0 31 6.5 54t16.5 39t20 24.5t18 11.5v3q-8 3 -18 11.5t-20 24.5t-16.5 39.5t-6.5 55.5v126q0 15 -2 30.5t-7 28t-13 20.5t-21 8h-19v54h44q37 0 62 -29t25 -79v-137q0 -24 3 -46.5t10.5 -40t19.5 -29t31 -14.5v-51 q-38 -5 -51 -40t-13 -88v-140q0 -49 -25 -78t-62 -29h-44z" unicode="" horiz-adv-x="230"/>
<glyph glyph-name="Endash" d="M20 260v75h460v-75h-460z" unicode="" horiz-adv-x="500"/>
<glyph glyph-name="Emdash" d="M20 260v75h960v-75h-960z" unicode="" horiz-adv-x="1000"/>
<glyph glyph-name="Exclamdown" d="M81 353h66l7 -519h-80zM154 531v-80h-80v80h80z" unicode="" horiz-adv-x="228"/>
<glyph glyph-name="Questiondown" d="M29 -4q0 26 2 44.5t7 34.5t13.5 32.5t21.5 38.5l46 79q8 13 13 27t6 31v69h78v-83q0 -20 -6 -39t-17 -36q-27 -44 -43 -69.5t-25 -44.5t-12 -36t-3 -43q0 -20 3 -38t11.5 -31.5t23.5 -21.5t39 -8q32 0 54 22t22 73l80 -9q0 -41 -12.5 -71.5t-33.5 -50.5t-49.5 -29.5 t-60.5 -9.5q-84 0 -121 44t-37 125zM217 529v-80h-78v80h78z" unicode="" horiz-adv-x="371"/>
<glyph glyph-name="Guillemotleft" d="M313 76l-107 186l107 186h78l-105 -186l105 -186h-78zM151 76l-107 186l107 186h78l-106 -186l106 -186h-78z" unicode="" horiz-adv-x="434"/>
<glyph glyph-name="Guillemotright" d="M45 76l105 186l-105 186h78l107 -186l-107 -186h-78zM207 76l106 186l-106 186h78l107 -186l-107 -186h-78z" unicode="" horiz-adv-x="434"/>
<glyph glyph-name="ampersandsmall" d="M208 524q18 0 37 -2t37.5 -8.5t35.5 -19t29 -33.5l-66 -43q-16 37 -63 37q-35 0 -48.5 -16t-13.5 -33q0 -14 12.5 -37.5t29.5 -49.5l121 -159q8 17 11 36t5 39h76q-3 -33 -13 -70.5t-28 -65.5q17 -22 39 -50t38 -49h-99l-32 41q-33 -29 -68 -37t-70 -8q-28 0 -52.5 9.5 t-43 27.5t-29.5 43t-11 56q0 46 24.5 81.5t66.5 67.5q-4 6 -8.5 11.5t-9.5 11.5q-17 20 -26.5 47.5t-9.5 55.5q0 50 34.5 83.5t94.5 33.5zM174 224q-26 -23 -40.5 -44.5t-14.5 -44.5q0 -28 20 -48t57 -20q23 0 44.5 7t34.5 19z" unicode="" horiz-adv-x="452"/>
<glyph glyph-name="exclamsmall" d="M145 127h-67l-6 393h80zM72 -1v77h80v-77h-80z" unicode="" horiz-adv-x="223"/>
<glyph glyph-name="questionsmall" d="M340 393q0 -17 -2 -31t-7 -27t-13 -26.5t-20 -29.5l-44 -56q-8 -10 -12.5 -19.5t-5.5 -17.5v-59h-78v69q0 18 6 33t15 28q24 27 39.5 45.5t24.5 33t12.5 27t3.5 27.5q0 13 -3 24t-11 19t-22 13t-36 5q-30 0 -50 -15.5t-20 -52.5l-77 8q5 69 45 101t102 32q81 0 117 -34 t36 -97zM157 0v77h78v-77h-78z" unicode="" horiz-adv-x="364"/>
<glyph glyph-name="Asmall" d="M276 0l-28 112h-135l-28 -112h-75l137 521h67l139 -521h-77zM178 395l-24 -103l-25 -107h102l-26 107q-5 25 -11 51.5t-12 51.5h-4z" unicode="" horiz-adv-x="360"/>
<glyph glyph-name="Bsmall" d="M49 0v521h133q82 0 115.5 -37t33.5 -106q0 -38 -11.5 -62t-37.5 -42q32 -14 43.5 -44t11.5 -71q0 -84 -40.5 -121.5t-125.5 -37.5h-122zM177 73q28 0 45 7.5t26 20t12 29t3 34.5q0 31 -17 52.5t-63 21.5h-58v-165h52zM258 379q0 33 -20 51t-68 18h-45v-139h48q47 0 66 21 t19 49z" unicode="" horiz-adv-x="378"/>
<glyph glyph-name="Csmall" d="M186 525q76 0 108.5 -35.5t34.5 -98.5l-76 -11q-2 35 -15.5 54.5t-51.5 19.5q-23 0 -36.5 -11t-20.5 -27t-8.5 -33t-1.5 -29v-205q0 -13 2.5 -27.5t9.5 -27t20 -21t33 -8.5q36 0 50 19t15 57l78 -11q-2 -63 -35.5 -100t-107.5 -37q-40 0 -67 13t-43 35t-23 50.5t-7 59.5 v197q0 28 5.5 59.5t21 57.5t43.5 43t72 17z" unicode="" horiz-adv-x="350"/>
<glyph glyph-name="Dsmall" d="M196 521q55 0 87.5 -17t46.5 -59q8 -25 9.5 -66t1.5 -91v-86t-1.5 -57t-4 -37.5t-7.5 -26.5q-18 -46 -55.5 -63.5t-84.5 -17.5h-139v521h147zM263 379q0 28 -17 48t-61 20h-60v-374h60q43 0 60.5 21t17.5 52v233z" unicode="" horiz-adv-x="386"/>
<glyph glyph-name="Esmall" d="M49 0v521h270v-74h-194v-146h169v-74h-169v-154h194v-73h-270z" unicode="" horiz-adv-x="334"/>
<glyph glyph-name="Fsmall" d="M49 0v521h270v-74h-194v-146h169v-74h-169v-227h-76z" unicode="" horiz-adv-x="334"/>
<glyph glyph-name="Gsmall" d="M189 -7q-44 0 -72 13.5t-44.5 35.5t-22.5 50.5t-6 59.5v197q0 28 5.5 59.5t21 57t44 42.5t74.5 17q73 0 105.5 -36t34.5 -95l-76 -15q1 34 -14 54.5t-51 20.5q-24 0 -37.5 -12t-20.5 -29t-9 -34.5t-2 -29.5v-200q0 -37 14 -60.5t55 -23.5q22 0 35.5 8.5t21 22t10.5 29.5 t3 32v63h-72v71h148v-120q0 -95 -39 -136.5t-106 -41.5z" unicode="" horiz-adv-x="378"/>
<glyph glyph-name="Hsmall" d="M263 0v230h-138v-230h-76v521h76v-220h138v220h77v-521h-77z" unicode="" horiz-adv-x="389"/>
<glyph glyph-name="Ismall" d="M49 0v521h77v-521h-77z" unicode="" horiz-adv-x="175"/>
<glyph glyph-name="Jsmall" d="M270 521v-382q0 -144 -144 -144q-38 0 -70 15t-56 50l58 49q4 -6 11.5 -13t16.5 -13.5t19.5 -10.5t19.5 -4q38 0 54 18t16 45v390h75z" unicode="" horiz-adv-x="331"/>
<glyph glyph-name="Ksmall" d="M292 0l-111 239l-54 -88v-151h-76v521h76l1 -243q37 61 72.5 121.5t72.5 121.5h81l-127 -214q35 -75 73 -153.5t73 -153.5h-81z" unicode="" horiz-adv-x="378"/>
<glyph glyph-name="Lsmall" d="M49 0v521h76v-448h179v-73h-255z" unicode="" horiz-adv-x="310"/>
<glyph glyph-name="Msmall" d="M332 222l-59 -131h-33l-60 129l-53 122v-342h-75v521h73l77 -173l55 -130l56 132l75 171h74v-521h-75v349z" unicode="" horiz-adv-x="514"/>
<glyph glyph-name="Nsmall" d="M123 0h-76v521h70l125 -259l45 -95v354h76v-521h-69l-126 257l-45 90v-347z" unicode="" horiz-adv-x="410"/>
<glyph glyph-name="Osmall" d="M334 177q0 -84 -33.5 -134t-112.5 -50q-39 0 -66.5 12.5t-45 34.5t-25 51.5t-7.5 64.5v182q0 34 6 68t22 60t44.5 42.5t73.5 16.5q46 0 74.5 -14.5t44 -39.5t20.5 -59t5 -72v-163zM258 353q0 17 -2 35t-8.5 32.5t-20.5 24t-38 9.5q-26 0 -40 -12t-21 -30t-8 -37.5 t-1 -34.5v-185q0 -15 2.5 -30.5t10 -29t21 -22t35.5 -8.5t35.5 8.5t21 23t10.5 33t3 38.5v185z" unicode="" horiz-adv-x="378"/>
<glyph glyph-name="Psmall" d="M178 521q48 0 79 -11t49 -31t25 -50t7 -67q0 -35 -7.5 -64.5t-26.5 -51t-52 -34t-84 -12.5h-43v-200h-76v521h129zM125 275h45q31 0 49.5 7t28 18.5t12.5 27t3 32.5q0 18 -3 33.5t-12.5 27.5t-27.5 19t-48 7h-47v-172z" unicode="" horiz-adv-x="360"/>
<glyph glyph-name="Qsmall" d="M334 181q0 -32 -5 -59t-13 -49l56 -40l-33 -53l-57 41q-36 -28 -94 -28q-39 0 -66.5 12t-45 34t-25 52.5t-7.5 68.5v176q0 36 6 70.5t21.5 60.5t44 42t73.5 16q46 0 74.5 -14t44.5 -38.5t21 -59t5 -75.5v-157zM258 351q0 17 -2 35t-8.5 33t-20.5 25t-38 10q-26 0 -40 -13 t-21 -32.5t-8 -41t-1 -37.5v-171q0 -15 2.5 -31.5t10 -30.5t21 -23t35.5 -9q15 0 28 5l-49 35l33 52l52 -38q4 13 5 26t1 28v178z" unicode="" horiz-adv-x="378"/>
<glyph glyph-name="Rsmall" d="M277 0l-89 219h-63v-219h-75v521h138q77 0 113.5 -37.5t36.5 -115.5q0 -45 -15 -80.5t-62 -54.5l95 -233h-79zM260 368q0 18 -3.5 32.5t-12.5 25t-25.5 16t-42.5 5.5h-51v-154h57q47 0 62.5 20.5t15.5 54.5z" unicode="" horiz-adv-x="378"/>
<glyph glyph-name="Ssmall" d="M327 148q0 -70 -33 -111.5t-115 -41.5q-77 0 -112.5 39t-35.5 96l76 15q0 -14 3.5 -27.5t12 -24.5t22 -17.5t34.5 -6.5q25 0 40 7t22 18t9 25t2 28q0 15 -2.5 26t-11 21t-25 18.5t-43.5 18.5q-44 15 -70.5 31.5t-41 34.5t-19 39t-4.5 47q0 63 37 102.5t112 39.5 q41 0 68.5 -12t44 -31t23.5 -42.5t7 -45.5l-75 -18q0 34 -16.5 54t-55.5 20q-21 0 -34.5 -6t-21 -15.5t-10 -21.5t-2.5 -23q0 -14 2.5 -23.5t12 -18t28 -18t51.5 -21.5q40 -15 64 -30t36.5 -33t16.5 -40t4 -52z" unicode="" horiz-adv-x="359"/>
<glyph glyph-name="Tsmall" d="M184 448v-448h-76v448h-105v73h286v-73h-105z" unicode="" horiz-adv-x="292"/>
<glyph glyph-name="Usmall" d="M337 520v-356q0 -36 -7 -67t-23.5 -54t-44.5 -36.5t-70 -13.5q-44 0 -72.5 13t-45 34.5t-22.5 49.5t-6 57v373h76v-369q0 -9 1.5 -24t8.5 -28.5t21 -23.5t38 -10t37.5 10t20.5 23.5t9 28.5t2 24v369h77z" unicode="" horiz-adv-x="383"/>
<glyph glyph-name="Vsmall" d="M182 142l31 160l48 219h79l-122 -522h-79l-119 522h79l47 -221l32 -158h4z" unicode="" horiz-adv-x="360"/>
<glyph glyph-name="Wsmall" d="M259 365q-5 -28 -11 -57t-11 -56l-54 -253h-67l-92 522h78l34 -223q5 -31 9.5 -63t9.5 -62l2 -1l26 126l49 223h66l49 -221q7 -30 12.5 -66.5t12.5 -66.5h4l17 134l33 220h79l-93 -522h-67l-56 250l-25 116h-5z" unicode="" horiz-adv-x="529"/>
<glyph glyph-name="Xsmall" d="M244 -1l-81 203q-20 -50 -40.5 -101t-40.5 -102h-78l114 272q-27 60 -53 125t-53 125h79l72 -181l73 181h78l-108 -250q30 -65 59.5 -136t59.5 -136h-81z" unicode="" horiz-adv-x="326"/>
<glyph glyph-name="Ysmall" d="M174 301l37 110q9 26 21 55t20 55h75l-119 -319v-203h-74v203q-14 37 -29 78l-30 82t-30 81.5t-29 77.5h80l41 -116q8 -24 17.5 -52t17.5 -52h2z" unicode="" horiz-adv-x="342"/>
<glyph glyph-name="Zsmall" d="M274 455l-172 -382h171v-73h-254v66l174 382h-165v73h246v-66z" unicode="" horiz-adv-x="293"/>
<glyph glyph-name="Scaronsmall" d="M327 148q0 -70 -33 -111.5t-115 -41.5q-77 0 -112.5 39t-35.5 96l76 15q0 -14 3.5 -27.5t12 -24.5t22 -17.5t34.5 -6.5q25 0 40 7t22 18t9 25t2 28q0 15 -2.5 26t-11 21t-25 18.5t-43.5 18.5q-44 15 -70.5 31.5t-41 34.5t-19 39t-4.5 47q0 63 37 102.5t112 39.5 q41 0 68.5 -12t44 -31t23.5 -42.5t7 -45.5l-75 -18q0 34 -16.5 54t-55.5 20q-21 0 -34.5 -6t-21 -15.5t-10 -21.5t-2.5 -23q0 -14 2.5 -23.5t12 -18t28 -18t51.5 -21.5q40 -15 64 -30t36.5 -33t16.5 -40t4 -52zM301 720l34 -30l-123 -137h-47l-130 139l34 28l116 -94z" unicode="" horiz-adv-x="359"/>
<glyph glyph-name="OEsmall" d="M238 0q-25 -5 -50 -5q-77 0 -110.5 36.5t-33.5 95.5v247q0 28 6 55.5t21.5 48.5t43.5 34t73 13q25 0 50 -5h260v-72h-195v-148h169v-72h-169v-157h195v-71h-260zM187 66q30 0 43 10v368q-15 9 -42 9q-26 0 -40 -9t-20.5 -22t-8 -27.5t-1.5 -24.5v-243q0 -9 2.5 -20 t10 -20t21 -15t35.5 -6z" unicode="" horiz-adv-x="516"/>
<glyph glyph-name="Zcaronsmall" d="M274 455l-172 -382h171v-73h-254v66l174 382h-165v73h246v-66zM278 720l34 -30l-123 -137h-47l-130 139l34 28l116 -94z" unicode="" horiz-adv-x="293"/>
<glyph glyph-name="Ydieresissmall" d="M174 301l37 110q9 26 21 55t20 55h75l-119 -319v-203h-74v203q-14 37 -29 78l-30 82t-30 81.5t-29 77.5h80l41 -116q8 -24 17.5 -52t17.5 -52h2zM61 589v80h69v-80h-69zM215 589v80h68v-80h-68z" unicode="" horiz-adv-x="342"/>
<glyph glyph-name="Agravesmall" d="M276 0l-28 112h-135l-28 -112h-75l137 521h67l139 -521h-77zM176 556l-96 160l71 25l68 -168zM178 395l-24 -103l-25 -107h102l-26 107q-5 25 -11 51.5t-12 51.5h-4z" unicode="" horiz-adv-x="360"/>
<glyph glyph-name="Aacutesmall" d="M276 0l-28 112h-135l-28 -112h-75l137 521h67l139 -521h-77zM157 573l68 168l71 -25l-96 -160zM178 395l-24 -103l-25 -107h102l-26 107q-5 25 -11 51.5t-12 51.5h-4z" unicode="" horiz-adv-x="360"/>
<glyph glyph-name="Acircumflexsmall" d="M276 0l-28 112h-135l-28 -112h-75l137 521h67l139 -521h-77zM179 646l-116 -94l-34 28l130 139h47l123 -137l-34 -30zM178 395l-24 -103l-25 -107h102l-26 107q-5 25 -11 51.5t-12 51.5h-4z" unicode="" horiz-adv-x="360"/>
<glyph glyph-name="Atildesmall" d="M276 0l-28 112h-135l-28 -112h-75l137 521h67l139 -521h-77zM317 653q-19 -35 -43 -55t-46 -20q-15 0 -29.5 6t-28 12.5t-25.5 12.5t-24 6q-28 0 -53 -36l-40 25q6 13 15.5 26t20.5 24t24 18t27 7q15 0 28 -6t26.5 -13t27.5 -13t29 -6q14 0 25.5 9.5t26.5 29.5zM178 395 l-24 -103l-25 -107h102l-26 107q-5 25 -11 51.5t-12 51.5h-4z" unicode="" horiz-adv-x="360"/>
<glyph glyph-name="Adieresissmall" d="M276 0l-28 112h-135l-28 -112h-75l137 521h67l139 -521h-77zM178 395l-24 -103l-25 -107h102l-26 107q-5 25 -11 51.5t-12 51.5h-4zM68 589v80h69v-80h-69zM222 589v80h68v-80h-68z" unicode="" horiz-adv-x="360"/>
<glyph glyph-name="Aringsmall" d="M276 0l-28 112h-135l-28 -112h-75l137 521h67l139 -521h-77zM180 542q-19 0 -35.5 7t-29 19t-19.5 28.5t-7 35.5t7 35.5t19.5 28.5t29 19t35.5 7q38 0 64 -26t26 -64t-26 -64t-64 -26zM178 395l-24 -103l-25 -107h102l-26 107q-5 25 -11 51.5t-12 51.5h-4zM180 678 q-20 0 -34 -13.5t-14 -33.5t14 -34t34 -14t33.5 14t13.5 34t-13.5 33.5t-33.5 13.5z" unicode="" horiz-adv-x="360"/>
<glyph glyph-name="AEsmall" d="M272 131h-135l-56 -131h-78l230 520h306v-72h-194v-148h169v-72h-169v-156h194v-72h-267v131zM167 203h105v245z" unicode="" horiz-adv-x="569"/>
<glyph glyph-name="Ccedillasmall" d="M186 525q76 0 108.5 -35.5t34.5 -98.5l-76 -11q-2 35 -15.5 54.5t-51.5 19.5q-23 0 -36.5 -11t-20.5 -27t-8.5 -33t-1.5 -29v-205q0 -13 2.5 -27.5t9.5 -27t20 -21t33 -8.5q36 0 50 19t15 57l78 -11q-2 -61 -34 -98t-101 -39l-12 -48q23 -2 38 -9.5t23.5 -18.5t12 -23.5 t3.5 -23.5q0 -12 -4.5 -25t-14 -24t-25.5 -18t-38 -7q-8 0 -33 2t-47 13l13 36q17 -8 31 -10t26 -2q15 0 26.5 8.5t11.5 25.5q0 19 -11.5 29.5t-40.5 8.5l-16 14l20 74q-32 4 -53 19t-34 36t-18.5 47t-5.5 54v197q0 28 5.5 59.5t21 57.5t43.5 43t72 17z" unicode="" horiz-adv-x="350"/>
<glyph glyph-name="Egravesmall" d="M49 0v521h270v-74h-194v-146h169v-74h-169v-154h194v-73h-270zM188 556l-96 160l71 25l68 -168z" unicode="" horiz-adv-x="334"/>
<glyph glyph-name="Eacutesmall" d="M49 0v521h270v-74h-194v-146h169v-74h-169v-154h194v-73h-270zM146 573l68 168l71 -25l-96 -160z" unicode="" horiz-adv-x="334"/>
<glyph glyph-name="Ecircumflexsmall" d="M49 0v521h270v-74h-194v-146h169v-74h-169v-154h194v-73h-270zM183 646l-116 -94l-34 28l130 139h47l123 -137l-34 -30z" unicode="" horiz-adv-x="334"/>
<glyph glyph-name="Edieresissmall" d="M49 0v521h270v-74h-194v-146h169v-74h-169v-154h194v-73h-270zM228 589v80h68v-80h-68zM74 589v80h69v-80h-69z" unicode="" horiz-adv-x="334"/>
<glyph glyph-name="Igravesmall" d="M49 0v521h77v-521h-77zM81 556l-96 160l71 25l68 -168z" unicode="" horiz-adv-x="175"/>
<glyph glyph-name="Iacutesmall" d="M49 0v521h77v-521h-77zM61 573l68 168l71 -25l-96 -160z" unicode="" horiz-adv-x="175"/>
<glyph glyph-name="Icircumflexsmall" d="M49 0v521h77v-521h-77zM88 646l-116 -94l-34 28l130 139h47l123 -137l-34 -30z" unicode="" horiz-adv-x="175"/>
<glyph glyph-name="Idieresissmall" d="M49 0v521h77v-521h-77zM133 589v80h68v-80h-68zM-21 589v80h69v-80h-69z" unicode="" horiz-adv-x="175"/>
<glyph glyph-name="Ethsmall" d="M196 521q55 0 87.5 -17t46.5 -59q8 -25 9.5 -66t1.5 -91v-86t-1.5 -57t-4 -37.5t-7.5 -26.5q-18 -46 -55.5 -63.5t-84.5 -17.5h-139v238h-41v62h41v221h147zM263 379q0 28 -17 48t-61 20h-60v-147h60v-62h-60v-165h60q43 0 60.5 21t17.5 52v233z" unicode="" horiz-adv-x="386"/>
<glyph glyph-name="Ntildesmall" d="M123 0h-76v521h70l125 -259l45 -95v354h76v-521h-69l-126 257l-45 90v-347zM339 653q-19 -35 -43 -55t-46 -20q-15 0 -29.5 6t-28 12.5t-25.5 12.5t-24 6q-28 0 -53 -36l-40 25q6 13 15.5 26t20.5 24t24 18t27 7q15 0 28 -6t26.5 -13t27.5 -13t29 -6q14 0 25.5 9.5 t26.5 29.5z" unicode="" horiz-adv-x="410"/>
<glyph glyph-name="Ogravesmall" d="M334 177q0 -84 -33.5 -134t-112.5 -50q-39 0 -66.5 12.5t-45 34.5t-25 51.5t-7.5 64.5v182q0 34 6 68t22 60t44.5 42.5t73.5 16.5q46 0 74.5 -14.5t44 -39.5t20.5 -59t5 -72v-163zM258 353q0 17 -2 35t-8.5 32.5t-20.5 24t-38 9.5q-26 0 -40 -12t-21 -30t-8 -37.5 t-1 -34.5v-185q0 -15 2.5 -30.5t10 -29t21 -22t35.5 -8.5t35.5 8.5t21 23t10.5 33t3 38.5v185zM190 556l-96 160l71 25l68 -168z" unicode="" horiz-adv-x="378"/>
<glyph glyph-name="Oacutesmall" d="M334 177q0 -84 -33.5 -134t-112.5 -50q-39 0 -66.5 12.5t-45 34.5t-25 51.5t-7.5 64.5v182q0 34 6 68t22 60t44.5 42.5t73.5 16.5q46 0 74.5 -14.5t44 -39.5t20.5 -59t5 -72v-163zM258 353q0 17 -2 35t-8.5 32.5t-20.5 24t-38 9.5q-26 0 -40 -12t-21 -30t-8 -37.5 t-1 -34.5v-185q0 -15 2.5 -30.5t10 -29t21 -22t35.5 -8.5t35.5 8.5t21 23t10.5 33t3 38.5v185zM167 573l68 168l71 -25l-96 -160z" unicode="" horiz-adv-x="378"/>
<glyph glyph-name="Ocircumflexsmall" d="M334 177q0 -84 -33.5 -134t-112.5 -50q-39 0 -66.5 12.5t-45 34.5t-25 51.5t-7.5 64.5v182q0 34 6 68t22 60t44.5 42.5t73.5 16.5q46 0 74.5 -14.5t44 -39.5t20.5 -59t5 -72v-163zM258 353q0 17 -2 35t-8.5 32.5t-20.5 24t-38 9.5q-26 0 -40 -12t-21 -30t-8 -37.5 t-1 -34.5v-185q0 -15 2.5 -30.5t10 -29t21 -22t35.5 -8.5t35.5 8.5t21 23t10.5 33t3 38.5v185zM189 646l-116 -94l-34 28l130 139h47l123 -137l-34 -30z" unicode="" horiz-adv-x="378"/>
<glyph glyph-name="Otildesmall" d="M334 177q0 -84 -33.5 -134t-112.5 -50q-39 0 -66.5 12.5t-45 34.5t-25 51.5t-7.5 64.5v182q0 34 6 68t22 60t44.5 42.5t73.5 16.5q46 0 74.5 -14.5t44 -39.5t20.5 -59t5 -72v-163zM258 353q0 17 -2 35t-8.5 32.5t-20.5 24t-38 9.5q-26 0 -40 -12t-21 -30t-8 -37.5 t-1 -34.5v-185q0 -15 2.5 -30.5t10 -29t21 -22t35.5 -8.5t35.5 8.5t21 23t10.5 33t3 38.5v185zM325 653q-19 -35 -43 -55t-46 -20q-15 0 -29.5 6t-28 12.5t-25.5 12.5t-24 6q-28 0 -53 -36l-40 25q6 13 15.5 26t20.5 24t24 18t27 7q15 0 28 -6t26.5 -13t27.5 -13t29 -6 q14 0 25.5 9.5t26.5 29.5z" unicode="" horiz-adv-x="378"/>
<glyph glyph-name="Odieresissmall" d="M334 177q0 -84 -33.5 -134t-112.5 -50q-39 0 -66.5 12.5t-45 34.5t-25 51.5t-7.5 64.5v182q0 34 6 68t22 60t44.5 42.5t73.5 16.5q46 0 74.5 -14.5t44 -39.5t20.5 -59t5 -72v-163zM258 353q0 17 -2 35t-8.5 32.5t-20.5 24t-38 9.5q-26 0 -40 -12t-21 -30t-8 -37.5 t-1 -34.5v-185q0 -15 2.5 -30.5t10 -29t21 -22t35.5 -8.5t35.5 8.5t21 23t10.5 33t3 38.5v185zM230 589v80h68v-80h-68zM76 589v80h69v-80h-69z" unicode="" horiz-adv-x="378"/>
<glyph glyph-name="Oslashsmall" d="M334 177q0 -84 -33.5 -134t-112.5 -50q-63 0 -97 31l-18 -36l-29 19l23 47q-12 20 -17.5 46.5t-5.5 55.5v182q0 34 6 68t22 60t44.5 42.5t73.5 16.5q32 0 54.5 -7t38.5 -19l16 32l34 -18l-23 -46q14 -25 19 -57.5t5 -69.5v-163zM258 353v8l-130 -261q8 -15 21.5 -25 t38.5 -10q22 0 35.5 8.5t21 23t10.5 33t3 38.5v185zM119 161l127 262q-7 14 -20.5 22.5t-36.5 8.5q-26 0 -40 -12t-21 -30t-8 -37.5t-1 -34.5v-179z" unicode="" horiz-adv-x="378"/>
<glyph glyph-name="Ugravesmall" d="M337 520v-356q0 -36 -7 -67t-23.5 -54t-44.5 -36.5t-70 -13.5q-44 0 -72.5 13t-45 34.5t-22.5 49.5t-6 57v373h76v-369q0 -9 1.5 -24t8.5 -28.5t21 -23.5t38 -10t37.5 10t20.5 23.5t9 28.5t2 24v369h77zM189 556l-96 160l71 25l68 -168z" unicode="" horiz-adv-x="383"/>
<glyph glyph-name="Uacutesmall" d="M337 520v-356q0 -36 -7 -67t-23.5 -54t-44.5 -36.5t-70 -13.5q-44 0 -72.5 13t-45 34.5t-22.5 49.5t-6 57v373h76v-369q0 -9 1.5 -24t8.5 -28.5t21 -23.5t38 -10t37.5 10t20.5 23.5t9 28.5t2 24v369h77zM158 573l68 168l71 -25l-96 -160z" unicode="" horiz-adv-x="383"/>
<glyph glyph-name="Ucircumflexsmall" d="M337 520v-356q0 -36 -7 -67t-23.5 -54t-44.5 -36.5t-70 -13.5q-44 0 -72.5 13t-45 34.5t-22.5 49.5t-6 57v373h76v-369q0 -9 1.5 -24t8.5 -28.5t21 -23.5t38 -10t37.5 10t20.5 23.5t9 28.5t2 24v369h77zM189 646l-116 -94l-34 28l130 139h47l123 -137l-34 -30z" unicode="" horiz-adv-x="383"/>
<glyph glyph-name="Udieresissmall" d="M337 520v-356q0 -36 -7 -67t-23.5 -54t-44.5 -36.5t-70 -13.5q-44 0 -72.5 13t-45 34.5t-22.5 49.5t-6 57v373h76v-369q0 -9 1.5 -24t8.5 -28.5t21 -23.5t38 -10t37.5 10t20.5 23.5t9 28.5t2 24v369h77zM234 589v80h68v-80h-68zM80 589v80h69v-80h-69z" unicode="" horiz-adv-x="383"/>
<glyph glyph-name="Yacutesmall" d="M174 301l37 110q9 26 21 55t20 55h75l-119 -319v-203h-74v203q-14 37 -29 78l-30 82t-30 81.5t-29 77.5h80l41 -116q8 -24 17.5 -52t17.5 -52h2zM144 573l68 168l71 -25l-96 -160z" unicode="" horiz-adv-x="342"/>
<glyph glyph-name="Thornsmall" d="M50 520h72v-97h56q48 0 78.5 -11t48.5 -31t25 -50t7 -67q0 -34 -6.5 -63t-24.5 -50.5t-50 -34t-83 -12.5h-49v-104h-74v520zM124 177h46q31 0 50 7t28.5 19t12.5 27.5t3 32.5q0 18 -3 34t-12.5 27.5t-28 18.5t-48.5 7h-48v-173z" unicode="" horiz-adv-x="360"/>
<glyph glyph-name="Amacronsmall" d="M276 0l-28 112h-135l-28 -112h-75l137 521h67l139 -521h-77zM60 588v67h239v-67h-239zM178 395l-24 -103l-25 -107h102l-26 107q-5 25 -11 51.5t-12 51.5h-4z" unicode="" horiz-adv-x="360"/>
<glyph glyph-name="Abrevesmall" d="M276 0l-28 112h-135l-28 -112h-75l137 521h67l139 -521h-77zM113 690q1 -10 6 -21t13.5 -20.5t20.5 -15.5t27 -6q16 0 28.5 6t21.5 15.5t13.5 20.5t4.5 21h63q-2 -19 -10 -40.5t-24 -39.5t-40 -30t-57 -12q-37 0 -62 12t-40.5 30t-22.5 39.5t-7 40.5h65zM178 395 l-24 -103l-25 -107h102l-26 107q-5 25 -11 51.5t-12 51.5h-4z" unicode="" horiz-adv-x="360"/>
<glyph glyph-name="Aogoneksmall" d="M242 -92q0 20 7.5 42t25.5 51l-27 111h-135l-28 -112h-75l137 521h67l139 -521h-27q-14 -23 -21.5 -41.5t-7.5 -35.5q0 -26 11.5 -35t30.5 -9q11 0 23 3t27 11l17 -48q-17 -11 -38.5 -18t-41.5 -7q-37 0 -60.5 23t-23.5 65zM178 395l-24 -103l-25 -107h102l-26 107 q-5 25 -11 51.5t-12 51.5h-4z" unicode="" horiz-adv-x="360"/>
<glyph glyph-name="Cacutesmall" d="M186 525q76 0 108.5 -35.5t34.5 -98.5l-76 -11q-2 35 -15.5 54.5t-51.5 19.5q-23 0 -36.5 -11t-20.5 -27t-8.5 -33t-1.5 -29v-205q0 -13 2.5 -27.5t9.5 -27t20 -21t33 -8.5q36 0 50 19t15 57l78 -11q-2 -63 -35.5 -100t-107.5 -37q-40 0 -67 13t-43 35t-23 50.5t-7 59.5 v197q0 28 5.5 59.5t21 57.5t43.5 43t72 17zM146 573l68 168l71 -25l-96 -160z" unicode="" horiz-adv-x="350"/>
<glyph glyph-name="Ccircumflexsmall" d="M186 525q76 0 108.5 -35.5t34.5 -98.5l-76 -11q-2 35 -15.5 54.5t-51.5 19.5q-23 0 -36.5 -11t-20.5 -27t-8.5 -33t-1.5 -29v-205q0 -13 2.5 -27.5t9.5 -27t20 -21t33 -8.5q36 0 50 19t15 57l78 -11q-2 -63 -35.5 -100t-107.5 -37q-40 0 -67 13t-43 35t-23 50.5t-7 59.5 v197q0 28 5.5 59.5t21 57.5t43.5 43t72 17zM186 646l-116 -94l-34 28l130 139h47l123 -137l-34 -30z" unicode="" horiz-adv-x="350"/>
<glyph glyph-name="Cdotaccentsmall" d="M186 525q76 0 108.5 -35.5t34.5 -98.5l-76 -11q-2 35 -15.5 54.5t-51.5 19.5q-23 0 -36.5 -11t-20.5 -27t-8.5 -33t-1.5 -29v-205q0 -13 2.5 -27.5t9.5 -27t20 -21t33 -8.5q36 0 50 19t15 57l78 -11q-2 -63 -35.5 -100t-107.5 -37q-40 0 -67 13t-43 35t-23 50.5t-7 59.5 v197q0 28 5.5 59.5t21 57.5t43.5 43t72 17zM152 602v80h68v-80h-68z" unicode="" horiz-adv-x="350"/>
<glyph glyph-name="Ccaronsmall" d="M186 525q76 0 108.5 -35.5t34.5 -98.5l-76 -11q-2 35 -15.5 54.5t-51.5 19.5q-23 0 -36.5 -11t-20.5 -27t-8.5 -33t-1.5 -29v-205q0 -13 2.5 -27.5t9.5 -27t20 -21t33 -8.5q36 0 50 19t15 57l78 -11q-2 -63 -35.5 -100t-107.5 -37q-40 0 -67 13t-43 35t-23 50.5t-7 59.5 v197q0 28 5.5 59.5t21 57.5t43.5 43t72 17zM301 720l34 -30l-123 -137h-47l-130 139l34 28l116 -94z" unicode="" horiz-adv-x="350"/>
<glyph glyph-name="Dcaronsmall" d="M196 521q55 0 87.5 -17t46.5 -59q8 -25 9.5 -66t1.5 -91v-86t-1.5 -57t-4 -37.5t-7.5 -26.5q-18 -46 -55.5 -63.5t-84.5 -17.5h-139v521h147zM263 379q0 28 -17 48t-61 20h-60v-374h60q43 0 60.5 21t17.5 52v233zM294 720l34 -30l-123 -137h-47l-130 139l34 28l116 -94z " unicode="" horiz-adv-x="386"/>
<glyph glyph-name="Dcroatsmall" d="M196 521q55 0 87.5 -17t46.5 -59q8 -25 9.5 -66t1.5 -91v-86t-1.5 -57t-4 -37.5t-7.5 -26.5q-18 -46 -55.5 -63.5t-84.5 -17.5h-139v238h-41v62h41v221h147zM263 379q0 28 -17 48t-61 20h-60v-147h60v-62h-60v-165h60q43 0 60.5 21t17.5 52v233z" unicode="" horiz-adv-x="386"/>
<glyph glyph-name="Emacronsmall" d="M49 0v521h270v-74h-194v-146h169v-74h-169v-154h194v-73h-270zM62 588v67h239v-67h-239z" unicode="" horiz-adv-x="334"/>
<glyph glyph-name="Ebrevesmall" d="M49 0v521h270v-74h-194v-146h169v-74h-169v-154h194v-73h-270zM114 690q1 -10 6 -21t13.5 -20.5t20.5 -15.5t27 -6q16 0 28.5 6t21.5 15.5t13.5 20.5t4.5 21h63q-2 -19 -10 -40.5t-24 -39.5t-40 -30t-57 -12q-37 0 -62 12t-40.5 30t-22.5 39.5t-7 40.5h65z" unicode="" horiz-adv-x="334"/>
<glyph glyph-name="Edotaccentsmall" d="M49 0v521h270v-74h-194v-146h169v-74h-169v-154h194v-73h-270zM154 602v80h68v-80h-68z" unicode="" horiz-adv-x="334"/>
<glyph glyph-name="Eogoneksmall" d="M235 -92q0 20 7 41.5t25 50.5h-218v521h270v-74h-194v-146h169v-74h-169v-154h194v-73q-14 -23 -21.5 -41.5t-7.5 -35.5q0 -26 11.5 -35t30.5 -9q11 0 23 3t27 11l17 -48q-17 -11 -38.5 -18t-41.5 -7q-37 0 -60.5 23t-23.5 65z" unicode="" horiz-adv-x="334"/>
<glyph glyph-name="Ecaronsmall" d="M49 0v521h270v-74h-194v-146h169v-74h-169v-154h194v-73h-270zM297 720l34 -30l-123 -137h-47l-130 139l34 28l116 -94z" unicode="" horiz-adv-x="334"/>
<glyph glyph-name="Gcircumflexsmall" d="M189 -7q-44 0 -72 13.5t-44.5 35.5t-22.5 50.5t-6 59.5v197q0 28 5.5 59.5t21 57t44 42.5t74.5 17q73 0 105.5 -36t34.5 -95l-76 -15q1 34 -14 54.5t-51 20.5q-24 0 -37.5 -12t-20.5 -29t-9 -34.5t-2 -29.5v-200q0 -37 14 -60.5t55 -23.5q22 0 35.5 8.5t21 22t10.5 29.5 t3 32v63h-72v71h148v-120q0 -95 -39 -136.5t-106 -41.5zM187 646l-116 -94l-34 28l130 139h47l123 -137l-34 -30z" unicode="" horiz-adv-x="378"/>
<glyph glyph-name="Gbrevesmall" d="M189 -7q-44 0 -72 13.5t-44.5 35.5t-22.5 50.5t-6 59.5v197q0 28 5.5 59.5t21 57t44 42.5t74.5 17q73 0 105.5 -36t34.5 -95l-76 -15q1 34 -14 54.5t-51 20.5q-24 0 -37.5 -12t-20.5 -29t-9 -34.5t-2 -29.5v-200q0 -37 14 -60.5t55 -23.5q22 0 35.5 8.5t21 22t10.5 29.5 t3 32v63h-72v71h148v-120q0 -95 -39 -136.5t-106 -41.5zM120 690q1 -10 6 -21t13.5 -20.5t20.5 -15.5t27 -6q16 0 28.5 6t21.5 15.5t13.5 20.5t4.5 21h63q-2 -19 -10 -40.5t-24 -39.5t-40 -30t-57 -12q-37 0 -62 12t-40.5 30t-22.5 39.5t-7 40.5h65z" unicode="" horiz-adv-x="378"/>
<glyph glyph-name="Gdotaccentsmall" d="M189 -7q-44 0 -72 13.5t-44.5 35.5t-22.5 50.5t-6 59.5v197q0 28 5.5 59.5t21 57t44 42.5t74.5 17q73 0 105.5 -36t34.5 -95l-76 -15q1 34 -14 54.5t-51 20.5q-24 0 -37.5 -12t-20.5 -29t-9 -34.5t-2 -29.5v-200q0 -37 14 -60.5t55 -23.5q22 0 35.5 8.5t21 22t10.5 29.5 t3 32v63h-72v71h148v-120q0 -95 -39 -136.5t-106 -41.5zM155 602v80h68v-80h-68z" unicode="" horiz-adv-x="378"/>
<glyph glyph-name="Gcommaaccentsmall" d="M189 -7q-44 0 -72 13.5t-44.5 35.5t-22.5 50.5t-6 59.5v197q0 28 5.5 59.5t21 57t44 42.5t74.5 17q73 0 105.5 -36t34.5 -95l-76 -15q1 34 -14 54.5t-51 20.5q-24 0 -37.5 -12t-20.5 -29t-9 -34.5t-2 -29.5v-200q0 -37 14 -60.5t55 -23.5q22 0 35.5 8.5t21 22t10.5 29.5 t3 32v63h-72v71h148v-120q0 -95 -39 -136.5t-106 -41.5zM185 -251h-44l24 89h-21v97h86v-95z" unicode="" horiz-adv-x="378"/>
<glyph glyph-name="Hcircumflexsmall" d="M263 0v230h-138v-230h-76v521h76v-220h138v220h77v-521h-77zM193 646l-116 -94l-34 28l130 139h47l123 -137l-34 -30z" unicode="" horiz-adv-x="389"/>
<glyph glyph-name="Hbarsmall" d="M263 0v230h-138v-230h-76v389h-42v58h42v74h76v-74h138v74h77v-74h42v-58h-42v-389h-77zM263 301v88h-138v-88h138z" unicode="" horiz-adv-x="389"/>
<glyph glyph-name="Itildesmall" d="M49 0v521h77v-521h-77zM225 653q-19 -35 -43 -55t-46 -20q-15 0 -29.5 6t-28 12.5t-25.5 12.5t-24 6q-28 0 -53 -36l-40 25q6 13 15.5 26t20.5 24t24 18t27 7q15 0 28 -6t26.5 -13t27.5 -13t29 -6q14 0 25.5 9.5t26.5 29.5z" unicode="" horiz-adv-x="175"/>
<glyph glyph-name="Imacronsmall" d="M49 0v521h77v-521h-77zM-30 588v67h239v-67h-239z" unicode="" horiz-adv-x="175"/>
<glyph glyph-name="Ibrevesmall" d="M49 0v521h77v-521h-77zM23 690q1 -10 6 -21t13.5 -20.5t20.5 -15.5t27 -6q16 0 28.5 6t21.5 15.5t13.5 20.5t4.5 21h63q-2 -19 -10 -40.5t-24 -39.5t-40 -30t-57 -12q-37 0 -62 12t-40.5 30t-22.5 39.5t-7 40.5h65z" unicode="" horiz-adv-x="175"/>
<glyph glyph-name="Iogoneksmall" d="M35 -92q0 20 7 41.5t25 50.5h-18v521h77v-521h-7q-14 -23 -21.5 -41.5t-7.5 -35.5q0 -26 11.5 -35t30.5 -9q11 0 23 3t27 11l17 -48q-17 -11 -38.5 -18t-41.5 -7q-37 0 -60.5 23t-23.5 65z" unicode="" horiz-adv-x="175"/>
<glyph glyph-name="Idotaccentsmall" d="M49 0v521h77v-521h-77zM53 601v80h68v-80h-68z" unicode="" horiz-adv-x="175"/>
<glyph glyph-name="IJsmall" d="M48 0v521h77v-521h-77zM431 521v-382q0 -144 -144 -144q-38 0 -70 15t-56 50l58 49q4 -6 11.5 -13t16.5 -13.5t19.5 -10.5t19.5 -4q38 0 54 18t16 45v390h75z" unicode="" horiz-adv-x="484"/>
<glyph glyph-name="Jcircumflexsmall" d="M252 521v-382q0 -144 -144 -144q-38 0 -70 15t-56 50l58 49q4 -6 11.5 -13t16.5 -13.5t19.5 -10.5t19.5 -4q38 0 54 18t16 45v390h75zM214 646l-116 -94l-34 28l130 139h47l123 -137l-34 -30z" unicode="" horiz-adv-x="313"/>
<glyph glyph-name="Kcommaaccentsmall" d="M292 0l-111 239l-54 -88v-151h-76v521h76l1 -243q37 61 72.5 121.5t72.5 121.5h81l-127 -214q35 -75 73 -153.5t73 -153.5h-81zM200 -251h-44l24 89h-21v97h86v-95z" unicode="" horiz-adv-x="378"/>
<glyph glyph-name="Lacutesmall" d="M49 0v521h76v-448h179v-73h-255zM65 573l68 168l71 -25l-96 -160z" unicode="" horiz-adv-x="310"/>
<glyph glyph-name="Lcommaaccentsmall" d="M49 0v521h76v-448h179v-73h-255zM172 -251h-44l24 89h-21v97h86v-95z" unicode="" horiz-adv-x="310"/>
<glyph glyph-name="Lcaronsmall" d="M49 0v521h76v-448h179v-73h-255zM239 334h-44l24 89h-21v97h86v-95z" unicode="" horiz-adv-x="310"/>
<glyph glyph-name="Ldotsmall" d="M49 0v521h76v-448h179v-73h-255zM194 246v80h68v-80h-68z" unicode="" horiz-adv-x="310"/>
<glyph glyph-name="Lslashsmall" d="M79 0v167l-54 -33l-25 47l79 49v291h76v-244l86 54l26 -47l-112 -70v-141h179v-73h-255z" unicode="" horiz-adv-x="339"/>
<glyph glyph-name="Nacutesmall" d="M123 0h-76v521h70l125 -259l45 -95v354h76v-521h-69l-126 257l-45 90v-347zM176 573l68 168l71 -25l-96 -160z" unicode="" horiz-adv-x="410"/>
<glyph glyph-name="Ncommaaccentsmall" d="M123 0h-76v521h70l125 -259l45 -95v354h76v-521h-69l-126 257l-45 90v-347zM204 -251h-44l24 89h-21v97h86v-95z" unicode="" horiz-adv-x="410"/>
<glyph glyph-name="Ncaronsmall" d="M123 0h-76v521h70l125 -259l45 -95v354h76v-521h-69l-126 257l-45 90v-347zM321 720l34 -30l-123 -137h-47l-130 139l34 28l116 -94z" unicode="" horiz-adv-x="410"/>
<glyph glyph-name="Engsmall" d="M364 -55q0 -57 -23.5 -81t-66.5 -24q-14 0 -27.5 2t-34.5 12l17 55q12 -4 26 -4t21.5 8.5t7.5 31.5v75l-116 237l-45 90v-347h-76v521h70l125 -259l45 -95v354h76z" unicode="" horiz-adv-x="410"/>
<glyph glyph-name="Omacronsmall" d="M334 177q0 -84 -33.5 -134t-112.5 -50q-39 0 -66.5 12.5t-45 34.5t-25 51.5t-7.5 64.5v182q0 34 6 68t22 60t44.5 42.5t73.5 16.5q46 0 74.5 -14.5t44 -39.5t20.5 -59t5 -72v-163zM258 353q0 17 -2 35t-8.5 32.5t-20.5 24t-38 9.5q-26 0 -40 -12t-21 -30t-8 -37.5 t-1 -34.5v-185q0 -15 2.5 -30.5t10 -29t21 -22t35.5 -8.5t35.5 8.5t21 23t10.5 33t3 38.5v185zM67 588v67h239v-67h-239z" unicode="" horiz-adv-x="378"/>
<glyph glyph-name="Obrevesmall" d="M334 177q0 -84 -33.5 -134t-112.5 -50q-39 0 -66.5 12.5t-45 34.5t-25 51.5t-7.5 64.5v182q0 34 6 68t22 60t44.5 42.5t73.5 16.5q46 0 74.5 -14.5t44 -39.5t20.5 -59t5 -72v-163zM258 353q0 17 -2 35t-8.5 32.5t-20.5 24t-38 9.5q-26 0 -40 -12t-21 -30t-8 -37.5 t-1 -34.5v-185q0 -15 2.5 -30.5t10 -29t21 -22t35.5 -8.5t35.5 8.5t21 23t10.5 33t3 38.5v185zM121 690q1 -10 6 -21t13.5 -20.5t20.5 -15.5t27 -6q16 0 28.5 6t21.5 15.5t13.5 20.5t4.5 21h63q-2 -19 -10 -40.5t-24 -39.5t-40 -30t-57 -12q-37 0 -62 12t-40.5 30 t-22.5 39.5t-7 40.5h65z" unicode="" horiz-adv-x="378"/>
<glyph glyph-name="Ohungarumlautsmall" d="M334 177q0 -84 -33.5 -134t-112.5 -50q-39 0 -66.5 12.5t-45 34.5t-25 51.5t-7.5 64.5v182q0 34 6 68t22 60t44.5 42.5t73.5 16.5q46 0 74.5 -14.5t44 -39.5t20.5 -59t5 -72v-163zM258 353q0 17 -2 35t-8.5 32.5t-20.5 24t-38 9.5q-26 0 -40 -12t-21 -30t-8 -37.5 t-1 -34.5v-185q0 -15 2.5 -30.5t10 -29t21 -22t35.5 -8.5t35.5 8.5t21 23t10.5 33t3 38.5v185zM116 570l68 168l71 -25l-96 -160zM218 570l68 168l71 -25l-96 -160z" unicode="" horiz-adv-x="378"/>
<glyph glyph-name="Racutesmall" d="M277 0l-89 219h-63v-219h-75v521h138q77 0 113.5 -37.5t36.5 -115.5q0 -45 -15 -80.5t-62 -54.5l95 -233h-79zM260 368q0 18 -3.5 32.5t-12.5 25t-25.5 16t-42.5 5.5h-51v-154h57q47 0 62.5 20.5t15.5 54.5zM142 573l68 168l71 -25l-96 -160z" unicode="" horiz-adv-x="378"/>
<glyph glyph-name="Rcommaaccentsmall" d="M277 0l-89 219h-63v-219h-75v521h138q77 0 113.5 -37.5t36.5 -115.5q0 -45 -15 -80.5t-62 -54.5l95 -233h-79zM260 368q0 18 -3.5 32.5t-12.5 25t-25.5 16t-42.5 5.5h-51v-154h57q47 0 62.5 20.5t15.5 54.5zM187 -251h-44l24 89h-21v97h86v-95z" unicode="" horiz-adv-x="378"/>
<glyph glyph-name="Rcaronsmall" d="M277 0l-89 219h-63v-219h-75v521h138q77 0 113.5 -37.5t36.5 -115.5q0 -45 -15 -80.5t-62 -54.5l95 -233h-79zM260 368q0 18 -3.5 32.5t-12.5 25t-25.5 16t-42.5 5.5h-51v-154h57q47 0 62.5 20.5t15.5 54.5zM302 720l34 -30l-123 -137h-47l-130 139l34 28l116 -94z" unicode="" horiz-adv-x="378"/>
<glyph glyph-name="Sacutesmall" d="M327 148q0 -70 -33 -111.5t-115 -41.5q-77 0 -112.5 39t-35.5 96l76 15q0 -14 3.5 -27.5t12 -24.5t22 -17.5t34.5 -6.5q25 0 40 7t22 18t9 25t2 28q0 15 -2.5 26t-11 21t-25 18.5t-43.5 18.5q-44 15 -70.5 31.5t-41 34.5t-19 39t-4.5 47q0 63 37 102.5t112 39.5 q41 0 68.5 -12t44 -31t23.5 -42.5t7 -45.5l-75 -18q0 34 -16.5 54t-55.5 20q-21 0 -34.5 -6t-21 -15.5t-10 -21.5t-2.5 -23q0 -14 2.5 -23.5t12 -18t28 -18t51.5 -21.5q40 -15 64 -30t36.5 -33t16.5 -40t4 -52zM153 573l68 168l71 -25l-96 -160z" unicode="" horiz-adv-x="359"/>
<glyph glyph-name="Scircumflexsmall" d="M327 148q0 -70 -33 -111.5t-115 -41.5q-77 0 -112.5 39t-35.5 96l76 15q0 -14 3.5 -27.5t12 -24.5t22 -17.5t34.5 -6.5q25 0 40 7t22 18t9 25t2 28q0 15 -2.5 26t-11 21t-25 18.5t-43.5 18.5q-44 15 -70.5 31.5t-41 34.5t-19 39t-4.5 47q0 63 37 102.5t112 39.5 q41 0 68.5 -12t44 -31t23.5 -42.5t7 -45.5l-75 -18q0 34 -16.5 54t-55.5 20q-21 0 -34.5 -6t-21 -15.5t-10 -21.5t-2.5 -23q0 -14 2.5 -23.5t12 -18t28 -18t51.5 -21.5q40 -15 64 -30t36.5 -33t16.5 -40t4 -52zM188 646l-116 -94l-34 28l130 139h47l123 -137l-34 -30z" unicode="" horiz-adv-x="359"/>
<glyph glyph-name="Scedillasmall" d="M327 148q0 -68 -31 -109t-108 -44l-13 -50q23 -2 38 -9.5t23.5 -18.5t12 -23.5t3.5 -23.5q0 -12 -4.5 -25t-14 -24t-25.5 -18t-38 -7q-8 0 -33 2t-47 13l13 36q17 -8 31 -10t26 -2q15 0 26.5 8.5t11.5 25.5q0 19 -11.5 29.5t-40.5 8.5l-16 14l21 76q-63 7 -91.5 44 t-28.5 89l76 15q0 -14 3.5 -27.5t12 -24.5t22 -17.5t34.5 -6.5q25 0 40 7t22 18t9 25t2 28q0 15 -2.5 26t-11 21t-25 18.5t-43.5 18.5q-44 15 -70.5 31.5t-41 34.5t-19 39t-4.5 47q0 63 37 102.5t112 39.5q41 0 68.5 -12t44 -31t23.5 -42.5t7 -45.5l-75 -18q0 34 -16.5 54 t-55.5 20q-21 0 -34.5 -6t-21 -15.5t-10 -21.5t-2.5 -23q0 -14 2.5 -23.5t12 -18t28 -18t51.5 -21.5q40 -15 64 -30t36.5 -33t16.5 -40t4 -52z" unicode="" horiz-adv-x="359"/>
<glyph glyph-name="Tcommaaccentsmall" d="M184 448v-448h-76v448h-105v73h286v-73h-105zM148 -251h-44l24 89h-21v97h86v-95z" unicode="" horiz-adv-x="292"/>
<glyph glyph-name="Tcaronsmall" d="M184 448v-448h-76v448h-105v73h286v-73h-105zM261 720l34 -30l-123 -137h-47l-130 139l34 28l116 -94z" unicode="" horiz-adv-x="292"/>
<glyph glyph-name="Tbarsmall" d="M184 448v-131h88v-58h-88v-259h-76v259h-83v58h83v131h-105v73h286v-73h-105z" unicode="" horiz-adv-x="292"/>
<glyph glyph-name="Utildesmall" d="M337 520v-356q0 -36 -7 -67t-23.5 -54t-44.5 -36.5t-70 -13.5q-44 0 -72.5 13t-45 34.5t-22.5 49.5t-6 57v373h76v-369q0 -9 1.5 -24t8.5 -28.5t21 -23.5t38 -10t37.5 10t20.5 23.5t9 28.5t2 24v369h77zM327 653q-19 -35 -43 -55t-46 -20q-15 0 -29.5 6t-28 12.5 t-25.5 12.5t-24 6q-28 0 -53 -36l-40 25q6 13 15.5 26t20.5 24t24 18t27 7q15 0 28 -6t26.5 -13t27.5 -13t29 -6q14 0 25.5 9.5t26.5 29.5z" unicode="" horiz-adv-x="383"/>
<glyph glyph-name="Umacronsmall" d="M337 520v-356q0 -36 -7 -67t-23.5 -54t-44.5 -36.5t-70 -13.5q-44 0 -72.5 13t-45 34.5t-22.5 49.5t-6 57v373h76v-369q0 -9 1.5 -24t8.5 -28.5t21 -23.5t38 -10t37.5 10t20.5 23.5t9 28.5t2 24v369h77zM72 588v67h239v-67h-239z" unicode="" horiz-adv-x="383"/>
<glyph glyph-name="Ubrevesmall" d="M337 520v-356q0 -36 -7 -67t-23.5 -54t-44.5 -36.5t-70 -13.5q-44 0 -72.5 13t-45 34.5t-22.5 49.5t-6 57v373h76v-369q0 -9 1.5 -24t8.5 -28.5t21 -23.5t38 -10t37.5 10t20.5 23.5t9 28.5t2 24v369h77zM125 690q1 -10 6 -21t13.5 -20.5t20.5 -15.5t27 -6q16 0 28.5 6 t21.5 15.5t13.5 20.5t4.5 21h63q-2 -19 -10 -40.5t-24 -39.5t-40 -30t-57 -12q-37 0 -62 12t-40.5 30t-22.5 39.5t-7 40.5h65z" unicode="" horiz-adv-x="383"/>
<glyph glyph-name="Uringsmall" d="M337 520v-356q0 -36 -7 -67t-23.5 -54t-44.5 -36.5t-70 -13.5q-44 0 -72.5 13t-45 34.5t-22.5 49.5t-6 57v373h76v-369q0 -9 1.5 -24t8.5 -28.5t21 -23.5t38 -10t37.5 10t20.5 23.5t9 28.5t2 24v369h77zM194 542q-19 0 -35.5 7t-29 19t-19.5 28.5t-7 35.5t7 35.5 t19.5 28.5t29 19t35.5 7q38 0 64 -26t26 -64t-26 -64t-64 -26zM194 678q-20 0 -34 -13.5t-14 -33.5t14 -34t34 -14t33.5 14t13.5 34t-13.5 33.5t-33.5 13.5z" unicode="" horiz-adv-x="383"/>
<glyph glyph-name="Uhungarumlautsmall" d="M337 520v-356q0 -36 -7 -67t-23.5 -54t-44.5 -36.5t-70 -13.5q-44 0 -72.5 13t-45 34.5t-22.5 49.5t-6 57v373h76v-369q0 -9 1.5 -24t8.5 -28.5t21 -23.5t38 -10t37.5 10t20.5 23.5t9 28.5t2 24v369h77zM113 573l68 168l71 -25l-96 -160zM215 573l68 168l71 -25l-96 -160 z" unicode="" horiz-adv-x="383"/>
<glyph glyph-name="Uogoneksmall" d="M132 -92q0 20 6.5 40.5t22.5 46.5q-35 4 -57 18.5t-35 35.5t-18 46t-5 52v373h76v-369q0 -9 1.5 -24t8.5 -28.5t21 -23.5t38 -10t37.5 10t20.5 23.5t9 28.5t2 24v369h77v-356q0 -33 -6 -62.5t-20.5 -52.5t-38.5 -37.5t-60 -17.5q-13 -21 -19 -37.5t-6 -33.5 q0 -26 11.5 -35t30.5 -9q11 0 23 3t27 11l17 -48q-17 -11 -38.5 -18t-41.5 -7q-37 0 -60.5 23t-23.5 65z" unicode="" horiz-adv-x="383"/>
<glyph glyph-name="Wcircumflexsmall" d="M259 365q-5 -28 -11 -57t-11 -56l-54 -253h-67l-92 522h78l34 -223q5 -31 9.5 -63t9.5 -62l2 -1l26 126l49 223h66l49 -221q7 -30 12.5 -66.5t12.5 -66.5h4l17 134l33 220h79l-93 -522h-67l-56 250l-25 116h-5zM261 646l-116 -94l-34 28l130 139h47l123 -137l-34 -30z " unicode="" horiz-adv-x="529"/>
<glyph glyph-name="Ycircumflexsmall" d="M174 301l37 110q9 26 21 55t20 55h75l-119 -319v-203h-74v203q-14 37 -29 78l-30 82t-30 81.5t-29 77.5h80l41 -116q8 -24 17.5 -52t17.5 -52h2zM171 646l-116 -94l-34 28l130 139h47l123 -137l-34 -30z" unicode="" horiz-adv-x="342"/>
<glyph glyph-name="Zacutesmall" d="M274 455l-172 -382h171v-73h-254v66l174 382h-165v73h246v-66zM117 573l68 168l71 -25l-96 -160z" unicode="" horiz-adv-x="293"/>
<glyph glyph-name="Zdotaccentsmall" d="M274 455l-172 -382h171v-73h-254v66l174 382h-165v73h246v-66zM120 602v80h68v-80h-68z" unicode="" horiz-adv-x="293"/>
<glyph glyph-name="AEacutesmall" d="M272 131h-135l-56 -131h-78l230 520h306v-72h-194v-148h169v-72h-169v-156h194v-72h-267v131zM167 203h105v245zM327 573l68 168l71 -25l-96 -160z" unicode="" horiz-adv-x="569"/>
<glyph glyph-name="Oslashacutesmall" d="M334 177q0 -84 -33.5 -134t-112.5 -50q-63 0 -97 31l-18 -36l-29 19l23 47q-12 20 -17.5 46.5t-5.5 55.5v182q0 34 6 68t22 60t44.5 42.5t73.5 16.5q32 0 54.5 -7t38.5 -19l16 32l34 -18l-23 -46q14 -25 19 -57.5t5 -69.5v-163zM258 353v8l-130 -261q8 -15 21.5 -25 t38.5 -10q22 0 35.5 8.5t21 23t10.5 33t3 38.5v185zM119 161l127 262q-7 14 -20.5 22.5t-36.5 8.5q-26 0 -40 -12t-21 -30t-8 -37.5t-1 -34.5v-179zM165 573l68 168l71 -25l-96 -160z" unicode="" horiz-adv-x="378"/>
<glyph glyph-name="exclamdownsmall" d="M73 393h63l5 -393h-74zM141 521v-77h-74v77h74z" unicode="" horiz-adv-x="207"/>
<glyph glyph-name="questiondownsmall" d="M36 127q0 17 2 30.5t6 26t10.5 26t15.5 30.5q13 24 29 46t19 50v56h68v-66q0 -25 -13 -46.5t-26 -42.5q-13 -20 -21 -34t-12.5 -25.5t-6 -22t-1.5 -24.5q0 -27 10 -47t43 -20q23 0 38 15.5t15 53.5l69 -7q0 -33 -9.5 -56.5t-26 -39.5t-39 -23.5t-47.5 -7.5 q-66 0 -94.5 33t-28.5 95zM187 521v-68h-68v68h68z" unicode="" horiz-adv-x="311"/>
<glyph glyph-name="Scommaaccentsmall" d="M327 148q0 -70 -33 -111.5t-115 -41.5q-77 0 -112.5 39t-35.5 96l76 15q0 -14 3.5 -27.5t12 -24.5t22 -17.5t34.5 -6.5q25 0 40 7t22 18t9 25t2 28q0 15 -2.5 26t-11 21t-25 18.5t-43.5 18.5q-44 15 -70.5 31.5t-41 34.5t-19 39t-4.5 47q0 63 37 102.5t112 39.5 q41 0 68.5 -12t44 -31t23.5 -42.5t7 -45.5l-75 -18q0 34 -16.5 54t-55.5 20q-21 0 -34.5 -6t-21 -15.5t-10 -21.5t-2.5 -23q0 -14 2.5 -23.5t12 -18t28 -18t51.5 -21.5q40 -15 64 -30t36.5 -33t16.5 -40t4 -52zM178 -251h-44l24 89h-21v97h86v-95z" unicode="" horiz-adv-x="359"/>
<glyph glyph-name="Wacutesmall" d="M259 365q-5 -28 -11 -57t-11 -56l-54 -253h-67l-92 522h78l34 -223q5 -31 9.5 -63t9.5 -62l2 -1l26 126l49 223h66l49 -221q7 -30 12.5 -66.5t12.5 -66.5h4l17 134l33 220h79l-93 -522h-67l-56 250l-25 116h-5zM243 603l68 168l71 -25l-96 -160z" unicode="" horiz-adv-x="529"/>
<glyph glyph-name="Wgravesmall" d="M259 365q-5 -28 -11 -57t-11 -56l-54 -253h-67l-92 522h78l34 -223q5 -31 9.5 -63t9.5 -62l2 -1l26 126l49 223h66l49 -221q7 -30 12.5 -66.5t12.5 -66.5h4l17 134l33 220h79l-93 -522h-67l-56 250l-25 116h-5zM261 586l-96 160l71 25l68 -168z" unicode="" horiz-adv-x="529"/>
<glyph glyph-name="Wdieresissmall" d="M259 365q-5 -28 -11 -57t-11 -56l-54 -253h-67l-92 522h78l34 -223q5 -31 9.5 -63t9.5 -62l2 -1l26 126l49 223h66l49 -221q7 -30 12.5 -66.5t12.5 -66.5h4l17 134l33 220h79l-93 -522h-67l-56 250l-25 116h-5zM151 619v80h69v-80h-69zM305 619v80h68v-80h-68z" unicode="" horiz-adv-x="547"/>
<glyph glyph-name="Ygravesmall" d="M174 301l37 110q9 26 21 55t20 55h75l-119 -319v-203h-74v203q-14 37 -29 78l-30 82t-30 81.5t-29 77.5h80l41 -116q8 -24 17.5 -52t17.5 -52h2zM170 586l-96 160l71 25l68 -168z" unicode="" horiz-adv-x="342"/>
<glyph glyph-name="Alphasmall" d="M276 0l-28 112h-135l-28 -112h-75l137 521h67l139 -521h-77zM178 395l-24 -103l-25 -107h102l-26 107q-5 25 -11 51.5t-12 51.5h-4z" unicode="" horiz-adv-x="360"/>
<glyph glyph-name="Betasmall" d="M49 0v521h133q82 0 115.5 -37t33.5 -106q0 -38 -11.5 -62t-37.5 -42q32 -14 43.5 -44t11.5 -71q0 -84 -40.5 -121.5t-125.5 -37.5h-122zM177 73q28 0 45 7.5t26 20t12 29t3 34.5q0 31 -17 52.5t-63 21.5h-58v-165h52zM258 379q0 33 -20 51t-68 18h-45v-139h48q47 0 66 21 t19 49z" unicode="" horiz-adv-x="378"/>
<glyph glyph-name="Gammasmall" d="M124 447v-447h-74v520h253v-73h-179z" unicode="" horiz-adv-x="326"/>
<glyph glyph-name="Deltasmall" d="M11 0l137 520h65l139 -520h-341zM179 388l-28 -115l-50 -200h158l-51 201v1l-28 113h-1z" unicode="" horiz-adv-x="360"/>
<glyph glyph-name="Epsilonsmall" d="M49 0v521h270v-74h-194v-146h169v-74h-169v-154h194v-73h-270z" unicode="" horiz-adv-x="334"/>
<glyph glyph-name="Zetasmall" d="M274 455l-172 -382h171v-73h-254v66l174 382h-165v73h246v-66z" unicode="" horiz-adv-x="293"/>
<glyph glyph-name="Etasmall" d="M263 0v230h-138v-230h-76v521h76v-220h138v220h77v-521h-77z" unicode="" horiz-adv-x="389"/>
<glyph glyph-name="Thetasmall" d="M137 300h103v-72h-103v72zM334 177q0 -84 -33.5 -134t-112.5 -50q-39 0 -66.5 12.5t-45 34.5t-25 51.5t-7.5 64.5v182q0 34 6 68t22 60t44.5 42.5t73.5 16.5q46 0 74.5 -14.5t44 -39.5t20.5 -59t5 -72v-163zM258 353q0 17 -2 35t-8.5 32.5t-20.5 24t-38 9.5 q-26 0 -40 -12t-21 -30t-8 -37.5t-1 -34.5v-185q0 -15 2.5 -30.5t10 -29t21 -22t35.5 -8.5t35.5 8.5t21 23t10.5 33t3 38.5v185z" unicode="" horiz-adv-x="378"/>
<glyph glyph-name="Iotasmall" d="M49 0v521h77v-521h-77z" unicode="" horiz-adv-x="175"/>
<glyph glyph-name="Kappasmall" d="M292 0l-111 239l-54 -88v-151h-76v521h76l1 -243q37 61 72.5 121.5t72.5 121.5h81l-127 -214q35 -75 73 -153.5t73 -153.5h-81z" unicode="" horiz-adv-x="378"/>
<glyph glyph-name="Lambdasmall" d="M277 0l-72 288l-26 105l-26 -105l-69 -288h-73l137 520h65l139 -520h-75z" unicode="" horiz-adv-x="360"/>
<glyph glyph-name="Musmall" d="M386 350l-55 -128l-59 -131h-31l-60 129l-55 127v-347h-74v520h72l77 -172l56 -133l57 135l75 170h73v-520h-74v350h-2z" unicode="" horiz-adv-x="514"/>
<glyph glyph-name="Nusmall" d="M123 0h-76v521h70l125 -259l45 -95v354h76v-521h-69l-126 257l-45 90v-347z" unicode="" horiz-adv-x="410"/>
<glyph glyph-name="Xismall" d="M25 0v77h280v-77h-280zM25 447v73h280v-73h-280zM49 228v72h233v-72h-233z" unicode="" horiz-adv-x="326"/>
<glyph glyph-name="Omicronsmall" d="M334 177q0 -84 -33.5 -134t-112.5 -50q-39 0 -66.5 12.5t-45 34.5t-25 51.5t-7.5 64.5v182q0 34 6 68t22 60t44.5 42.5t73.5 16.5q46 0 74.5 -14.5t44 -39.5t20.5 -59t5 -72v-163zM258 353q0 17 -2 35t-8.5 32.5t-20.5 24t-38 9.5q-26 0 -40 -12t-21 -30t-8 -37.5 t-1 -34.5v-185q0 -15 2.5 -30.5t10 -29t21 -22t35.5 -8.5t35.5 8.5t21 23t10.5 33t3 38.5v185z" unicode="" horiz-adv-x="378"/>
<glyph glyph-name="Pismall" d="M253 0v451h-129v-451h-74v520h277v-520h-74z" unicode="" horiz-adv-x="378"/>
<glyph glyph-name="Rhosmall" d="M178 521q48 0 79 -11t49 -31t25 -50t7 -67q0 -35 -7.5 -64.5t-26.5 -51t-52 -34t-84 -12.5h-43v-200h-76v521h129zM125 275h45q31 0 49.5 7t28 18.5t12.5 27t3 32.5q0 18 -3 33.5t-12.5 27.5t-27.5 19t-48 7h-47v-172z" unicode="" horiz-adv-x="360"/>
<glyph glyph-name="Sigmasmall" d="M18 0v63l86 205l-90 190v63h246v-73h-164l87 -178l-85 -197h174v-73h-254z" unicode="" horiz-adv-x="283"/>
<glyph glyph-name="Tausmall" d="M184 448v-448h-76v448h-105v73h286v-73h-105z" unicode="" horiz-adv-x="292"/>
<glyph glyph-name="Upsilonsmall" d="M174 301l37 110q9 26 21 55t20 55h75l-119 -319v-203h-74v203q-14 37 -29 78l-30 82t-30 81.5t-29 77.5h80l41 -116q8 -24 17.5 -52t17.5 -52h2z" unicode="" horiz-adv-x="342"/>
<glyph glyph-name="Phismall" d="M411 195q0 -36 -13 -64.5t-34 -48.5t-47 -31t-53 -11v-40h-73v40q-29 1 -56 12t-47 31t-32 48t-12 64v140q0 35 11.5 63.5t31 48.5t46.5 31t57 11v31h74l1 -31q66 -1 106 -42t40 -112v-140zM341 342q0 31 -19.5 56t-58.5 25v-319q35 2 56.5 25t21.5 58v155zM191 423 q-38 0 -56.5 -25t-18.5 -56v-155q0 -35 18.5 -57.5t56.5 -25.5v319z" unicode="" horiz-adv-x="450"/>
<glyph glyph-name="Chismall" d="M244 -1l-81 203q-20 -50 -40.5 -101t-40.5 -102h-78l114 272q-27 60 -53 125t-53 125h79l72 -181l73 181h78l-108 -250q30 -65 59.5 -136t59.5 -136h-81z" unicode="" horiz-adv-x="326"/>
<glyph glyph-name="Psismall" d="M404 248q0 -35 -11 -61t-30.5 -43.5t-46 -27t-56.5 -9.5v-107h-73v107q-61 1 -101.5 36.5t-40.5 104.5v272h74v-272q0 -34 18 -52t50 -20v344h73v-344q33 1 51.5 19.5t18.5 52.5v272h74v-272v0z" unicode="" horiz-adv-x="446"/>
<glyph glyph-name="Omegasmall" d="M70 74q-18 20 -21.5 47t-3.5 59v156q0 36 6 70t21.5 60.5t43.5 42.5t73 16q46 0 74.5 -14t44 -39t20.5 -59.5t5 -74.5v-136q0 -41 -4 -76t-21 -52h31v-74h-127v75q29 10 38 41t9 66v169q0 17 -2 35.5t-9 33.5t-21 25t-38 10t-38 -12.5t-21.5 -30.5t-9.5 -38t-2 -35v-171 q0 -12 2 -26.5t7 -27t14 -23t24 -15.5v-76h-126v74h31z" unicode="" horiz-adv-x="378"/>
<glyph glyph-name="Alphatonossmall" d="M276 0l-28 112h-135l-28 -112h-75l137 521h67l139 -521h-77zM150 573l68 168l71 -25l-96 -160zM178 395l-24 -103l-25 -107h102l-26 107q-5 25 -11 51.5t-12 51.5h-4z" unicode="" horiz-adv-x="360"/>
<glyph glyph-name="Epsilontonossmall" d="M49 0v521h270v-74h-194v-146h169v-74h-169v-154h194v-73h-270zM145 573l68 168l71 -25l-96 -160z" unicode="" horiz-adv-x="334"/>
<glyph glyph-name="Etatonossmall" d="M263 0v230h-138v-230h-76v521h76v-220h138v220h77v-521h-77zM157 573l68 168l71 -25l-96 -160z" unicode="" horiz-adv-x="389"/>
<glyph glyph-name="Iotatonossmall" d="M49 0v521h77v-521h-77zM66 573l68 168l71 -25l-96 -160z" unicode="" horiz-adv-x="175"/>
<glyph glyph-name="Omicrontonossmall" d="M334 177q0 -84 -33.5 -134t-112.5 -50q-39 0 -66.5 12.5t-45 34.5t-25 51.5t-7.5 64.5v182q0 34 6 68t22 60t44.5 42.5t73.5 16.5q46 0 74.5 -14.5t44 -39.5t20.5 -59t5 -72v-163zM258 353q0 17 -2 35t-8.5 32.5t-20.5 24t-38 9.5q-26 0 -40 -12t-21 -30t-8 -37.5 t-1 -34.5v-185q0 -15 2.5 -30.5t10 -29t21 -22t35.5 -8.5t35.5 8.5t21 23t10.5 33t3 38.5v185zM161 573l68 168l71 -25l-96 -160z" unicode="" horiz-adv-x="378"/>
<glyph glyph-name="Ypsilontonossmall" d="M174 301l37 110q9 26 21 55t20 55h75l-119 -319v-203h-74v203q-14 37 -29 78l-30 82t-30 81.5t-29 77.5h80l41 -116q8 -24 17.5 -52t17.5 -52h2zM144 573l68 168l71 -25l-96 -160z" unicode="" horiz-adv-x="342"/>
<glyph glyph-name="Omegatonossmall" d="M70 74q-18 20 -21.5 47t-3.5 59v156q0 36 6 70t21.5 60.5t43.5 42.5t73 16q46 0 74.5 -14t44 -39t20.5 -59.5t5 -74.5v-136q0 -41 -4 -76t-21 -52h31v-74h-127v75q29 10 38 41t9 66v169q0 17 -2 35.5t-9 33.5t-21 25t-38 10t-38 -12.5t-21.5 -30.5t-9.5 -38t-2 -35v-171 q0 -12 2 -26.5t7 -27t14 -23t24 -15.5v-76h-126v74h31zM164 573l68 168l71 -25l-96 -160z" unicode="" horiz-adv-x="378"/>
<glyph glyph-name="Iotadieresissmall" d="M49 0v521h77v-521h-77zM131 589v80h68v-80h-68zM-23 589v80h69v-80h-69z" unicode="" horiz-adv-x="175"/>
<glyph glyph-name="Ypsilondieresissmall" d="M174 301l37 110q9 26 21 55t20 55h75l-119 -319v-203h-74v203q-14 37 -29 78l-30 82t-30 81.5t-29 77.5h80l41 -116q8 -24 17.5 -52t17.5 -52h2zM60 589v80h69v-80h-69zM214 589v80h68v-80h-68z" unicode="" horiz-adv-x="342"/>
<glyph glyph-name="slashedzero" d="M331 127q0 -33 -11.5 -58t-31 -42t-45 -25.5t-53.5 -8.5t-53.5 8.5t-45 25.5t-31 42t-11.5 58v439q0 33 11.5 58.5t31 42.5t45 26t53.5 9q62 0 101.5 -35t39.5 -101v-439zM128 247l124 284v38q0 26 -17.5 42t-44.5 16t-44.5 -16t-17.5 -42v-322zM252 436l-124 -281v-31 q0 -26 17.5 -42t44.5 -16t44.5 16t17.5 42v312z" unicode="" horiz-adv-x="380"/>
<glyph glyph-name="Kjecyrillic.alt" d="M53 696h79v-308h43q18 0 32.5 9t25 24.5t16.5 35.5t8 42l5 60q5 73 37 107t88 34h19v-70h-16q-17 0 -28.5 -7t-18 -19.5t-10 -28.5t-4.5 -34l-5 -65q-4 -49 -22.5 -81.5t-46.5 -46.5q26 -11 46 -40t25 -77l8 -77q2 -17 6 -33.5t10.5 -29.5t17.5 -21t26 -8h19v-68h-27 q-108 0 -121 142l-6 65q-2 22 -8.5 42t-17 35t-25.5 24t-33 9h-43v-311h-79v696zM150 753l142 113l49 -57l-162 -92z" unicode="" horiz-adv-x="423"/>
<glyph glyph-name="Zhecyrillic.alt" d="M291 310h-33q-18 0 -33 -9t-25.5 -24t-17 -35t-8.5 -42l-6 -65q-13 -142 -121 -142h-27v68h19q15 0 26 8t17.5 21t10.5 29.5t6 33.5l8 77q5 48 25 77t46 40q-28 14 -46.5 46.5t-22.5 81.5l-5 65q-2 18 -5 34t-10 28.5t-18 19.5t-28 7h-16v70h19q56 0 88 -34t37 -107 l5 -60q1 -22 7.5 -42t17 -35.5t25 -24.5t32.5 -9h33v309h79v-308h33q18 0 32.5 9t25 24.5t16.5 35.5t8 42l5 60q5 73 37 107t88 34h19v-70h-16q-17 0 -28.5 -7t-18 -19.5t-10 -28.5t-4.5 -34l-5 -65q-4 -49 -22.5 -81.5t-46.5 -46.5q26 -11 46 -40t25 -77l8 -77 q2 -17 6 -33.5t10.5 -29.5t17.5 -21t26 -8h19v-68h-27q-108 0 -121 142l-6 65q-2 22 -8.5 42t-17 35t-25.5 24t-33 9h-33v-311h-79v310z" unicode="" horiz-adv-x="661"/>
<glyph glyph-name="Kacyrillic.alt" d="M53 696h79v-308h43q18 0 32.5 9t25 24.5t16.5 35.5t8 42l5 60q5 73 37 107t88 34h19v-70h-16q-17 0 -28.5 -7t-18 -19.5t-10 -28.5t-4.5 -34l-5 -65q-4 -49 -22.5 -81.5t-46.5 -46.5q26 -11 46 -40t25 -77l8 -77q2 -17 6 -33.5t10.5 -29.5t17.5 -21t26 -8h19v-68h-27 q-108 0 -121 142l-6 65q-2 22 -8.5 42t-17 35t-25.5 24t-33 9h-43v-311h-79v696z" unicode="" horiz-adv-x="423"/>
<glyph glyph-name="IAcyrillic.alt" d="M292 305h-44q-18 -1 -31.5 -10.5t-23.5 -24.5t-16.5 -34.5t-8.5 -40.5l-6 -60q-13 -142 -121 -142h-26v66h15q15 0 26 7.5t17.5 19.5t10.5 28t6 33l8 78q4 32 12.5 55t31.5 41q-54 25 -73.5 67.5t-19.5 102.5q0 100 42 152.5t127 52.5h153v-696h-79v305zM129 491 q0 -54 24 -85t72 -31h67v247h-60q-30 0 -50 -10t-31.5 -27.5t-16.5 -41.5t-5 -52z" unicode="" horiz-adv-x="421"/>
<glyph glyph-name="zhecyrillic.alt" d="M242 495h79v-214h20q28 0 42 22t18 49l6 41q15 105 110 105h25v-61h-20q-25 0 -33 -16.5t-11 -38.5l-6 -46q-9 -65 -46 -89q36 -17 47 -80l9 -55q4 -26 13 -41.5t30 -15.5h23v-61h-32q-47 0 -72 23.5t-34 82.5l-7 45q-5 27 -19.5 48.5t-42.5 21.5h-20v-215h-79v215h-20 q-28 0 -42.5 -21.5t-19.5 -48.5l-7 -45q-9 -59 -34 -82.5t-72 -23.5h-32v61h23q21 0 30 15.5t13 41.5l9 55q11 63 47 80q-37 24 -46 89l-6 46q-3 22 -11 38.5t-33 16.5h-20v61h25q95 0 110 -105l6 -41q4 -27 18 -49t42 -22h20v214z" unicode="" horiz-adv-x="563"/>
<glyph glyph-name="kacyrillic.alt" d="M35 495h79v-214h34q28 0 42 22t18 49l6 41q15 105 110 105h25v-61h-20q-25 0 -33 -16.5t-11 -38.5l-6 -46q-9 -65 -46 -89q36 -17 47 -80l9 -55q4 -26 13 -41.5t30 -15.5h23v-61h-32q-47 0 -72 23.5t-34 82.5l-7 45q-5 27 -19.5 48.5t-42.5 21.5h-34v-217h-79v497z" unicode="" horiz-adv-x="375"/>
<glyph glyph-name="iacyrillic.alt" d="M37 347q0 69 38 108t116 39h140v-494h-80v208h-42q-26 -2 -40 -23t-19 -47l-7 -38q-11 -58 -34.5 -82t-71.5 -24h-32v61h24q22 0 30 15.5t13 41.5l9 48q8 44 30 65q-41 20 -57.5 50.5t-16.5 71.5zM204 424q-47 0 -66.5 -22.5t-19.5 -58.5q0 -32 20.5 -50t58.5 -18h54v149 h-47z" unicode="" horiz-adv-x="371"/>
<glyph glyph-name="kjecyrillic.alt" d="M35 495h79v-214h34q28 0 42 22t18 49l6 41q15 105 110 105h25v-61h-20q-25 0 -33 -16.5t-11 -38.5l-6 -46q-9 -65 -46 -89q36 -17 47 -80l9 -55q4 -26 13 -41.5t30 -15.5h23v-61h-32q-47 0 -72 23.5t-34 82.5l-7 45q-5 27 -19.5 48.5t-42.5 21.5h-34v-217h-79v497z M136 573l68 168l71 -25l-96 -160z" unicode="" horiz-adv-x="375"/>
<glyph glyph-name="zero.numerator" d="M220 359q0 -41 -29 -62.5t-67 -21.5q-19 0 -36.5 5.5t-31 16t-21.5 26t-8 36.5v255q0 21 8 36.5t21.5 26t31 16t36.5 5.5q38 0 67 -21.5t29 -62.5v-255zM158 612q0 13 -9.5 22t-24.5 9q-16 0 -25.5 -9t-9.5 -22v-250q0 -14 9.5 -23t25.5 -9q15 0 24.5 9t9.5 23v250z" unicode="" horiz-adv-x="247"/>
<glyph glyph-name="one.numerator" d="M104 279v353q-15 -11 -32.5 -24t-32.5 -24v63l66 48h60v-416h-61z" unicode="" horiz-adv-x="210"/>
<glyph glyph-name="two.numerator" d="M126 643q-38 0 -38 -71l-62 10q-1 53 22.5 84.5t78.5 31.5q51 0 74 -25.5t23 -68.5q0 -25 -6.5 -49.5t-20.5 -48.5q-25 -45 -48 -85t-49 -85h121v-57h-192v46l116 206q10 17 13 35.5t3 35.5q0 16 -6 28.5t-29 12.5z" unicode="" horiz-adv-x="247"/>
<glyph glyph-name="three.numerator" d="M221 368q0 -50 -26.5 -71.5t-67.5 -21.5q-29 0 -48.5 8t-31 22t-16 33t-2.5 42l63 8q-3 -28 5.5 -44t30.5 -16q15 0 24 9.5t9 29.5v58q0 42 -44 42h-26v51h27q43 0 43 38v50q0 14 -7 25.5t-27 11.5q-22 0 -31 -16t-9 -43l-63 9q2 45 27.5 74.5t78.5 29.5q27 0 44.5 -7 t28 -19t14.5 -28t4 -34v-38q0 -23 -3 -41.5t-29 -33.5q23 -11 27.5 -28.5t4.5 -46.5v-53z" unicode="" horiz-adv-x="247"/>
<glyph glyph-name="four.numerator" d="M204 341v-62h-61v62h-132v51l94 303h62l-93 -300h69v113h61v-113h33v-54h-33z" unicode="" horiz-adv-x="247"/>
<glyph glyph-name="five.numerator" d="M218 366q0 -51 -26.5 -72t-67.5 -21q-29 0 -48.5 8t-31 22t-16 33t-2.5 42l63 7q-3 -27 5 -43t31 -16q31 0 31 39v106q0 29 -32 29q-28 0 -39 -22h-51v218h184v-51h-129v-107h3q21 12 48 12q40 0 59 -20.5t19 -51.5v-112z" unicode="" horiz-adv-x="247"/>
<glyph glyph-name="six.numerator" d="M124 275q-19 0 -36.5 5.5t-31 16t-21.5 26t-8 36.5v67q0 28 4.5 45.5t9.5 31.5q20 44 42.5 96t41.5 96h64q-35 -80 -51.5 -120.5t-20.5 -53.5q6 2 12 3t13 1q45 0 61.5 -24t16.5 -58v-84q0 -41 -29 -62.5t-67 -21.5zM158 443q0 14 -9.5 22t-23.5 8q-20 0 -28 -12t-8 -26 v-74q0 -14 9.5 -23.5t25.5 -9.5q15 0 24.5 9.5t9.5 23.5v82z" unicode="" horiz-adv-x="247"/>
<glyph glyph-name="seven.numerator" d="M93 279h-59l112 364h-75v-48h-56v100h195v-44z" unicode="" horiz-adv-x="224"/>
<glyph glyph-name="eight.numerator" d="M220 561q0 -22 -8.5 -37.5t-22.5 -26.5q14 -11 22.5 -26t8.5 -38v-74q0 -41 -29 -62.5t-67 -21.5q-19 0 -36.5 5.5t-31 16t-21.5 26t-8 36.5v74q0 22 8.5 37.5t23.5 26.5q-32 22 -32 64v53q0 21 8 36.5t21.5 26t31 16t36.5 5.5q38 0 67 -21.5t29 -62.5v-53zM158 440 q0 14 -9.5 23.5t-24.5 9.5q-16 0 -25.5 -9.5t-9.5 -23.5v-80q0 -14 9.5 -23t25.5 -9q15 0 24.5 9t9.5 23v80zM158 614q0 13 -9.5 22t-24.5 9q-16 0 -25.5 -9t-9.5 -22v-59q0 -12 9.5 -22t25.5 -10q15 0 24.5 10t9.5 22v59z" unicode="" horiz-adv-x="247"/>
<glyph glyph-name="nine.numerator" d="M59 279q32 72 49.5 115.5t21.5 58.5q-11 -3 -25 -3q-44 0 -61 23.5t-17 58.5v85q0 20 8 35t21.5 25.5t31 16t36.5 5.5t36.5 -5.5t30.5 -16t21 -25.5t8 -35v-69q0 -27 -4 -45t-10 -32q-20 -44 -42 -96t-41 -96h-64zM89 532q0 -13 9.5 -21.5t24.5 -8.5q20 0 27.5 13.5 t7.5 27.5v71q0 14 -9.5 22.5t-24.5 8.5q-16 0 -25.5 -8.5t-9.5 -22.5v-82z" unicode="" horiz-adv-x="247"/>
<glyph glyph-name="parenleft.numerator" d="M106 211q-35 48 -61.5 112t-26.5 139t26.5 136t62.5 110l33 -14q-30 -50 -47.5 -110.5t-17.5 -119.5q0 -63 17.5 -123t46.5 -108z" unicode="" horiz-adv-x="137"/>
<glyph glyph-name="parenright.numerator" d="M17 233q29 48 46.5 108t17.5 123q0 59 -17.5 119.5t-47.5 110.5l33 14q37 -49 63 -110t26 -136t-26.5 -137.5t-63.5 -112.5z" unicode="" horiz-adv-x="137"/>
<glyph glyph-name="comma.numerator" d="M65 213h-41l16 66h-12v67h67v-63z" unicode="" horiz-adv-x="126"/>
<glyph glyph-name="period.numerator" d="M28 279v63h67v-63h-67z" unicode="" horiz-adv-x="126"/>
<glyph glyph-name="zero.denominator" d="M220 80q0 -41 -29 -62.5t-67 -21.5q-19 0 -36.5 5.5t-31 16t-21.5 26t-8 36.5v255q0 21 8 36.5t21.5 26t31 16t36.5 5.5q38 0 67 -21.5t29 -62.5v-255zM158 333q0 13 -9.5 22t-24.5 9q-16 0 -25.5 -9t-9.5 -22v-250q0 -14 9.5 -23t25.5 -9q15 0 24.5 9t9.5 23v250z" unicode="" horiz-adv-x="247"/>
<glyph glyph-name="one.denominator" d="M104 0v353q-15 -11 -32.5 -24t-32.5 -24v63l66 48h60v-416h-61z" unicode="" horiz-adv-x="210"/>
<glyph glyph-name="two.denominator" d="M126 364q-38 0 -38 -71l-62 10q-1 53 22.5 84.5t78.5 31.5q51 0 74 -25.5t23 -68.5q0 -25 -6.5 -49.5t-20.5 -48.5q-25 -45 -48 -85t-49 -85h121v-57h-192v46l116 206q10 17 13 35.5t3 35.5q0 16 -6 28.5t-29 12.5z" unicode="" horiz-adv-x="247"/>
<glyph glyph-name="three.denominator" d="M221 89q0 -50 -26.5 -71.5t-67.5 -21.5q-29 0 -48.5 8t-31 22t-16 33t-2.5 42l63 8q-3 -28 5.5 -44t30.5 -16q15 0 24 9.5t9 29.5v58q0 42 -44 42h-26v51h27q43 0 43 38v50q0 14 -7 25.5t-27 11.5q-22 0 -31 -16t-9 -43l-63 9q2 45 27.5 74.5t78.5 29.5q27 0 44.5 -7 t28 -19t14.5 -28t4 -34v-38q0 -23 -3 -41.5t-29 -33.5q23 -11 27.5 -28.5t4.5 -46.5v-53z" unicode="" horiz-adv-x="247"/>
<glyph glyph-name="four.denominator" d="M204 62v-62h-61v62h-132v51l94 303h62l-93 -300h69v113h61v-113h33v-54h-33z" unicode="" horiz-adv-x="247"/>
<glyph glyph-name="five.denominator" d="M218 87q0 -51 -26.5 -72t-67.5 -21q-29 0 -48.5 8t-31 22t-16 33t-2.5 42l63 7q-3 -27 5 -43t31 -16q31 0 31 39v106q0 29 -32 29q-28 0 -39 -22h-51v218h184v-51h-129v-107h3q21 12 48 12q40 0 59 -20.5t19 -51.5v-112z" unicode="" horiz-adv-x="247"/>
<glyph glyph-name="six.denominator" d="M124 -4q-19 0 -36.5 5.5t-31 16t-21.5 26t-8 36.5v67q0 28 4.5 45.5t9.5 31.5q20 44 42.5 96t41.5 96h64q-35 -80 -51.5 -120.5t-20.5 -53.5q6 2 12 3t13 1q45 0 61.5 -24t16.5 -58v-84q0 -41 -29 -62.5t-67 -21.5zM158 164q0 14 -9.5 22t-23.5 8q-20 0 -28 -12t-8 -26 v-74q0 -14 9.5 -23.5t25.5 -9.5q15 0 24.5 9.5t9.5 23.5v82z" unicode="" horiz-adv-x="247"/>
<glyph glyph-name="seven.denominator" d="M93 0h-59l112 364h-75v-48h-56v100h195v-44z" unicode="" horiz-adv-x="224"/>
<glyph glyph-name="eight.denominator" d="M220 282q0 -22 -8.5 -37.5t-22.5 -26.5q14 -11 22.5 -26t8.5 -38v-74q0 -41 -29 -62.5t-67 -21.5q-19 0 -36.5 5.5t-31 16t-21.5 26t-8 36.5v74q0 22 8.5 37.5t23.5 26.5q-32 22 -32 64v53q0 21 8 36.5t21.5 26t31 16t36.5 5.5q38 0 67 -21.5t29 -62.5v-53zM158 161 q0 14 -9.5 23.5t-24.5 9.5q-16 0 -25.5 -9.5t-9.5 -23.5v-80q0 -14 9.5 -23t25.5 -9q15 0 24.5 9t9.5 23v80zM158 335q0 13 -9.5 22t-24.5 9q-16 0 -25.5 -9t-9.5 -22v-59q0 -12 9.5 -22t25.5 -10q15 0 24.5 10t9.5 22v59z" unicode="" horiz-adv-x="247"/>
<glyph glyph-name="nine.denominator" d="M59 0q32 72 49.5 115.5t21.5 58.5q-11 -3 -25 -3q-44 0 -61 23.5t-17 58.5v85q0 20 8 35t21.5 25.5t31 16t36.5 5.5t36.5 -5.5t30.5 -16t21 -25.5t8 -35v-69q0 -27 -4 -45t-10 -32q-20 -44 -42 -96t-41 -96h-64zM89 253q0 -13 9.5 -21.5t24.5 -8.5q20 0 27.5 13.5 t7.5 27.5v71q0 14 -9.5 22.5t-24.5 8.5q-16 0 -25.5 -8.5t-9.5 -22.5v-82z" unicode="" horiz-adv-x="247"/>
<glyph glyph-name="parenleft.denominator" d="M106 -68q-35 48 -61.5 112t-26.5 139t26.5 136t62.5 110l33 -14q-30 -50 -47.5 -110.5t-17.5 -119.5q0 -63 17.5 -123t46.5 -108z" unicode="" horiz-adv-x="137"/>
<glyph glyph-name="parenright.denominator" d="M17 -46q29 48 46.5 108t17.5 123q0 59 -17.5 119.5t-47.5 110.5l33 14q37 -49 63 -110t26 -136t-26.5 -137.5t-63.5 -112.5z" unicode="" horiz-adv-x="137"/>
<glyph glyph-name="comma.denominator" d="M65 -66h-41l16 66h-12v67h67v-63z" unicode="" horiz-adv-x="126"/>
<glyph glyph-name="period.denominator" d="M28 0v63h67v-63h-67z" unicode="" horiz-adv-x="126"/>
<glyph glyph-name="alpha.superior" d="M167 279v21q-12 -12 -29.5 -18.5t-31.5 -6.5q-30 0 -47 12t-26 31.5t-11.5 45t-2.5 53.5v17q0 24 0.5 46.5t2.5 48.5q3 27 13.5 43.5t23.5 24.5t27 10.5t24 2.5q23 0 35.5 -4.5t21.5 -15.5v17h65v-328h-65zM128 550q-30 0 -36 -24t-6 -80q0 -29 0.5 -50t4.5 -34.5 t12.5 -19.5t24.5 -6q17 0 28.5 11.5t11.5 28.5v129q0 20 -9.5 32.5t-30.5 12.5z" unicode="" horiz-adv-x="255"/>
<glyph glyph-name="eta.superior" d="M86 583q11 11 29 18.5t35 7.5q39 0 59.5 -24.5t20.5 -62.5v-243h-65v226q0 19 -10 31t-30 12t-30 -12.5t-10 -32.5v-224h-65v328h66v-24z" unicode="" horiz-adv-x="252"/>
<glyph glyph-name="nu.superior" d="M152 279h-72l-82 328h69l30 -136l20 -86l21 88l28 134h69z" unicode="" horiz-adv-x="232"/>
<glyph glyph-name="omicron.superior" d="M128 611q40 0 62.5 -16t33.5 -40q4 -8 6 -23t3 -32.5t1 -35.5v-33q0 -19 -1 -35t-3 -34q-3 -27 -14 -44t-26.5 -27t-33.5 -13.5t-35 -3.5q-45 0 -67 20.5t-30 44.5q-4 15 -5 45t-1 55q0 33 2.5 66.5t8.5 48.5q11 26 35 41.5t64 15.5zM127 553q-12 0 -22 -4.5t-15 -17.5 q-3 -10 -5 -38t-2 -65v-40.5t4 -30.5q6 -26 40 -26q24 0 32 15q5 11 7.5 39t2.5 55q0 26 -1 51.5t-3 37.5q-8 24 -38 24z" unicode="" horiz-adv-x="249"/>
<glyph glyph-name="rho.superior" d="M128 611q40 0 63 -16t33 -40q8 -20 9 -52.5t1 -61.5q0 -24 -1 -38.5t-2 -28.5q-2 -42 -23.5 -70.5t-66.5 -28.5q-14 0 -29.5 6t-26.5 17v-142h-67v283q0 33 2.5 66.5t8.5 48.5q11 26 35 41.5t64 15.5zM127 553q-26 0 -36 -24q-5 -12 -6.5 -38t-1.5 -63q0 -21 0.5 -39 t3.5 -28q4 -13 13.5 -21.5t26.5 -8.5q12 0 21 7t11 14q5 12 7.5 38.5t2.5 52.5t-0.5 47t-5.5 37q-6 26 -36 26z" unicode="" horiz-adv-x="251"/>
<glyph glyph-name="sigma1.superior" d="M21 445q0 32 2 63t9 46q11 26 35 41.5t63 15.5q54 0 76 -27.5t22 -70.5l-67 -9q1 24 -8.5 36.5t-25.5 12.5q-11 0 -20 -5t-14 -17q-5 -11 -6 -31.5t-1 -50.5v-31q0 -14 2.5 -25.5t9 -21.5t19 -19t33.5 -19q57 -29 57 -64q0 -22 -16 -46l-29 -46l-51 28l15 21 q5 8 8.5 14.5t3.5 14.5q0 6 -6 12t-23 14q-30 14 -47.5 26t-26.5 25.5t-11.5 31t-2.5 42.5v39z" unicode="" horiz-adv-x="228"/>
<glyph glyph-name="upsilon.superior" d="M232 607v-176q0 -19 -0.5 -36t-2.5 -34q-4 -25 -15.5 -42t-27 -27t-33 -14t-33.5 -4q-45 0 -67 20.5t-30 44.5q-4 15 -4.5 45t-0.5 55v168h64v-179q0 -20 0.5 -39t3.5 -27q8 -31 40 -31q12 0 22 7t12 14q5 11 6.5 36t1.5 52v167h64z" unicode="" horiz-adv-x="249"/>
<glyph glyph-name="greek.insteadof" d="M178 345v25h-3q-13 -15 -30.5 -22t-32.5 -7q-30 0 -47.5 12.5t-26 33.5t-11 48.5t-2.5 57.5v47t0.5 32t1 22.5t1.5 17.5q4 28 14.5 45t23.5 26.5t26.5 13t22.5 3.5q24 0 37.5 -6t24.5 -17h1v19h62v-351h-62zM134 637q-30 0 -37 -26.5t-7 -87.5q0 -62 6 -90.5t38 -28.5 q17 0 29.5 13.5t12.5 31.5v139q0 21 -10.5 35t-31.5 14zM478 0v25h-3q-13 -15 -30.5 -22t-32.5 -7q-30 0 -47.5 12.5t-26 33.5t-11 48.5t-2.5 57.5v47t0.5 32t1 22.5t1.5 17.5q4 28 14.5 45t23.5 26.5t26.5 13t22.5 3.5q24 0 37.5 -6t24.5 -17h1v19h62v-351h-62zM434 292 q-30 0 -37 -26.5t-7 -87.5q0 -62 6 -90.5t38 -28.5q17 0 29.5 13.5t12.5 31.5v139q0 21 -10.5 35t-31.5 14zM167 -17h-51l314 731h51z" unicode="" horiz-adv-x="565"/>
<glyph glyph-name="greek.careof" d="M558 112q0 -56 -24 -86t-82 -30t-81.5 28t-23.5 74v192q0 22 4 43t16 37t32.5 26t53.5 10q34 0 54.5 -8.5t31.5 -24t15 -36.5t4 -46v-179zM125 600l19 -57l18 59l33 94h66l-87 -233v-171h-62v171l-87 233h66zM496 299q0 9 -1 18t-5.5 17t-13 13t-23.5 5q-16 0 -24.5 -7 t-12.5 -17.5t-5 -21.5t-1 -19v-189q0 -15 7.5 -31.5t34.5 -16.5q26 0 35 17.5t9 38.5v193zM149 -17h-51l314 731h51z" unicode="" horiz-adv-x="583"/>
<glyph glyph-name="A.superior" d="M206 279l-22 100h-95l-22 -100h-63l102 456h61l104 -456h-65zM135 617l-35 -179h72z" unicode="" horiz-adv-x="273"/>
<glyph glyph-name="B.superior" d="M255 612q0 -35 -11 -56.5t-37 -35.5q26 -13 39 -41t13 -60q0 -78 -31.5 -109t-98.5 -31h-96v456h105q65 0 91 -32t26 -91zM196 421q0 34 -13.5 52.5t-51.5 18.5h-33v-156h36q21 0 33 7t18.5 18.5t8.5 27t2 32.5zM192 612q0 32 -14.5 49t-49.5 17h-30v-131h30q34 0 49 17 t15 48z" unicode="" horiz-adv-x="286"/>
<glyph glyph-name="D.superior" d="M148 735q44 0 70 -15t36 -50q5 -17 6.5 -40.5t1.5 -53.5v-119q0 -35 -1 -61.5t-7 -46.5q-14 -38 -44 -54t-68 -16h-109v456h115zM196 618q0 28 -12.5 43.5t-43.5 15.5h-42v-340h42q30 0 43 16t13 44v221z" unicode="" horiz-adv-x="292"/>
<glyph glyph-name="E.superior" d="M33 279v456h213v-58h-148v-137h129v-58h-129v-145h148v-58h-213z" unicode="" horiz-adv-x="253"/>
<glyph glyph-name="H.superior" d="M196 279v206h-98v-206h-65v456h65v-195h98v195h65v-456h-65z" unicode="" horiz-adv-x="295"/>
<glyph glyph-name="I.superior" d="M33 279v456h67v-456h-67z" unicode="" horiz-adv-x="132"/>
<glyph glyph-name="L.superior" d="M32 279v456h66v-398h138v-58h-204z" unicode="" horiz-adv-x="235"/>
<glyph glyph-name="M.superior" d="M291 279v289l-29 -68l-50 -113h-36l-49 113l-29 62v-283h-65v456h65l58 -138l39 -89l39 90l57 137h66v-456h-66z" unicode="" horiz-adv-x="389"/>
<glyph glyph-name="N.superior" d="M93 569l3 -290h-65v456h61l99 -228l23 -52v280h66v-456h-61l-99 229z" unicode="" horiz-adv-x="311"/>
<glyph glyph-name="O.superior" d="M257 405q0 -63 -25.5 -97t-89.5 -34q-62 0 -88 31.5t-26 84.5v219q0 25 4.5 48.5t17.5 41.5t35 29t58 11q37 0 59.5 -9.5t34.5 -27t16 -41t4 -51.5v-205zM192 618q0 11 -1.5 22.5t-6.5 20.5t-15 15t-26 6q-18 0 -28 -8.5t-14.5 -21t-5.5 -25.5t-1 -22v-216q0 -9 2 -19 t7.5 -18.5t14.5 -14t24 -5.5q30 0 40 20.5t10 45.5v220z" unicode="" horiz-adv-x="286"/>
<glyph glyph-name="R.superior" d="M205 279l-67 195h-40v-195h-65v456h109q61 0 89.5 -32.5t28.5 -99.5q0 -38 -13 -68t-46 -47l72 -209h-68zM194 603q0 33 -12 53.5t-50 20.5h-34v-145h39q35 0 46 19.5t11 51.5z" unicode="" horiz-adv-x="286"/>
<glyph glyph-name="S.superior" d="M252 407q0 -61 -25.5 -97t-91.5 -36q-61 0 -88.5 32.5t-27.5 80.5l65 12q0 -26 11 -45t40 -19q18 0 29 6t16 15.5t6.5 22.5t1.5 27q0 33 -14 49.5t-46 30.5q-31 13 -51.5 27.5t-32.5 30.5t-17 34t-5 38q0 55 28.5 89t88.5 34q33 0 55 -10t34.5 -25.5t18 -35t5.5 -37.5 l-64 -15q0 31 -12 47.5t-39 16.5q-15 0 -25 -6t-15 -15t-7 -20t-2 -22q0 -25 14 -42t56 -34q30 -11 48 -24t28.5 -29t14 -36t3.5 -45z" unicode="" horiz-adv-x="272"/>
<glyph glyph-name="T.superior" d="M144 678v-399h-67v399h-80v57h226v-57h-79z" unicode="" horiz-adv-x="221"/>
<glyph glyph-name="Alpha.superior" d="M206 279l-22 100h-95l-22 -100h-63l102 456h61l104 -456h-65zM135 617l-35 -179h72z" unicode="" horiz-adv-x="273"/>
<glyph glyph-name="Eta.superior" d="M196 279v206h-98v-206h-65v456h65v-195h98v195h65v-456h-65z" unicode="" horiz-adv-x="295"/>
<glyph glyph-name="Nu.superior" d="M93 569l3 -290h-65v456h61l99 -228l23 -52v280h66v-456h-61l-99 229z" unicode="" horiz-adv-x="311"/>
<glyph glyph-name="Omicron.superior" d="M257 405q0 -63 -25.5 -97t-89.5 -34q-62 0 -88 31.5t-26 84.5v219q0 25 4.5 48.5t17.5 41.5t35 29t58 11q37 0 59.5 -9.5t34.5 -27t16 -41t4 -51.5v-205zM192 613q0 12 -1.5 24t-6.5 22t-15 16.5t-26 6.5q-18 0 -28 -8t-14.5 -19t-5.5 -23.5t-1 -21.5v-221q0 -9 2 -19 t7.5 -18.5t14.5 -14t24 -5.5q30 0 40 20.5t10 45.5v215z" unicode="" horiz-adv-x="286"/>
<glyph glyph-name="Rho.superior" d="M135 735q38 0 62 -9.5t38 -27t19.5 -43t5.5 -58.5q0 -29 -5 -54.5t-19 -44t-39.5 -29.5t-66.5 -11h-32v-179h-65v456h102zM98 518h30q23 0 36.5 6.5t20.5 17t9 24.5t2 30t-2 31t-9 26t-20 17.5t-35 6.5h-32v-159z" unicode="" horiz-adv-x="273"/>
<glyph glyph-name="Sigma.superior" d="M7 279v51l67 186l-70 169v51h200v-59h-130l70 -161l-68 -178h137v-59h-206z" unicode="" horiz-adv-x="214"/>
<glyph glyph-name="Upsilon.superior" d="M130 560l57 175h70l-94 -264v-193h-66v193l-94 264h69z" unicode="" horiz-adv-x="259"/>
<glyph glyph-name="Egrave.superior" d="M152 751l-117 63l39 41l101 -76zM33 279v456h213v-58h-148v-137h129v-58h-129v-145h148v-58h-213z" unicode="" horiz-adv-x="253"/>
<glyph glyph-name="upwards.wideheaded.arrow" d="M606 256l-236 236v-492h-107v491l-235 -236v149l288 288l288 -289z" unicode="" horiz-adv-x="632"/>
<glyph glyph-name="downwards.wideheaded.arrow" d="M604 289l-288 -289l-288 288v149l235 -236v491h107v-492l236 236z" unicode="" horiz-adv-x="632"/>
<glyph glyph-name="leftwards.wideheaded.arrow" d="M310 59l-289 288l288 288h149l-236 -235h491v-107h-492l236 -236z" unicode="" horiz-adv-x="736"/>
<glyph glyph-name="forwardright.wideheaded.arrow" d="M480 92v344l-357 -359l-79 79l359 356h-345l109 109h419v-420z" unicode="" horiz-adv-x="588"/>
<glyph glyph-name="forwardleft.wideheadedarrow" d="M44 201v420h419l109 -109h-345l359 -356l-79 -79l-357 359v-344z" unicode="" horiz-adv-x="588"/>
<glyph glyph-name="reverse" d="M811 -2l-350 351l350 351v-702zM432 -2l-351 351l351 351v-702z" unicode="" horiz-adv-x="898"/>
<glyph glyph-name="fastforward" d="M121 701l350 -351l-350 -351v702zM501 701l350 -351l-350 -351v702z" unicode="" horiz-adv-x="898"/>
<glyph glyph-name="one.back" d="M890 -3l-348 351l348 351v-702zM513 -3l-349 351l349 351v-702zM149 -3h-70v702h70v-702z" unicode="" horiz-adv-x="1000"/>
<glyph glyph-name="one.forward" d="M908 -4h-69v702h69v-702zM825 347l-351 -351v702zM447 347l-351 -351v702z" unicode="" horiz-adv-x="1000"/>
<glyph glyph-name="pause" d="M580 0h-140v702h140v-702zM298 0h-139v702h139v-702z" unicode="" horiz-adv-x="742"/>
<glyph glyph-name="mute" d="M417 -3l-230 228h-123v241h123l230 228v-697z" unicode="" horiz-adv-x="506"/>
<glyph glyph-name="lowervolume" d="M586 582q45 -43 67 -106t22 -129q0 -67 -23 -128t-71 -103q-10 -8 -19 -8q-13 0 -23 11t-10 25q0 13 12 22q35 26 51.5 75t16.5 104q0 56 -17 108.5t-49 81.5q-11 10 -11 23t10 23.5t23 10.5q11 0 21 -10zM187 225h-123v240h123l229 227v-695z" unicode="" horiz-adv-x="713"/>
<glyph glyph-name="volume" d="M569 591q51 -48 76.5 -114t25.5 -137q0 -69 -26 -132.5t-80 -107.5q-11 -9 -23 -9q-15 0 -26 11.5t-11 26.5q0 14 14 24q40 27 58.5 79.5t18.5 110.5q0 29 -4.5 58t-14 55t-24 47.5t-34.5 36.5q-11 10 -11 23q0 14 11.5 26t26.5 12q13 0 23 -10zM186 225h-122v240h122 l230 229v-697zM693 694q73 -68 111 -163t38 -195q0 -50 -9.5 -98t-29 -92t-48 -83t-67.5 -69q-11 -9 -22 -9q-14 0 -25.5 10.5t-11.5 24.5q0 15 14 26q31 23 54.5 55t39.5 70t23.5 81t7.5 88q0 44 -7.5 87.5t-23 84t-39 75t-55.5 60.5q-6 5 -8.5 11.5t-2.5 12.5q0 14 11 24 t26 10q13 0 24 -11z" unicode="" horiz-adv-x="926"/>
<glyph glyph-name="increasevolume" d="M608 607q51 -51 76.5 -122t25.5 -146q0 -74 -26 -142t-80 -115q-11 -9 -22 -9q-15 0 -26 12.5t-11 26.5q0 16 14 26q19 15 33.5 37t24.5 48.5t14.5 57t4.5 61.5t-4.5 62t-14.5 58.5t-24.5 51t-33.5 39.5q-11 10 -11 25t11.5 27t26.5 12q12 0 22 -10zM186 225h-122v240 h122l230 229v-697zM732 718q37 -37 64.5 -81.5t46 -94t28 -102t9.5 -105.5t-9.5 -104.5t-28.5 -99t-47.5 -89t-67.5 -74.5q-11 -9 -22 -9q-14 0 -25 12t-11 26q0 15 13 27q31 24 54.5 58.5t39 75.5t23.5 87t8 94q0 47 -7.5 93.5t-23.5 89t-39.5 80t-54.5 65.5q-11 10 -11 25 q0 14 11 25.5t26 11.5q13 0 24 -11zM855 824q48 -47 84 -104t60.5 -121t36.5 -132t12 -136t-12 -135t-37 -128t-62 -114t-86 -95q-11 -9 -21 -9q-14 0 -25 12.5t-11 28.5q0 15 11 26q42 33 73.5 79t53 101t32 115.5t10.5 123.5q0 61 -10.5 122.5t-31.5 118.5t-53 106.5 t-74 88.5q-11 13 -11 25q0 15 11.5 26.5t25.5 11.5t24 -11z" unicode="" horiz-adv-x="1092"/>
<glyph glyph-name="power" d="M789 361q0 -76 -29 -143t-79 -116.5t-116.5 -78.5t-142.5 -29q-77 0 -144 29t-116.5 78.5t-78.5 116.5t-29 143q0 45 10.5 84t27.5 71t37 56t40 39q13 9 31 10.5t31 -9.5q14 -14 16 -31.5t-12 -31.5l-28 -28t-29.5 -38.5t-23 -51.5t-9.5 -67q0 -60 21.5 -112t59 -90.5 t88 -61t108.5 -22.5q57 0 107.5 22.5t87.5 61t58.5 90.5t21.5 112q0 33 -6.5 59t-17 47.5t-23 38t-23.5 30.5l-7 9q-12 15 -12 31q0 18 15 33q14 13 30.5 11t30.5 -12q18 -16 37 -39t34 -54.5t24.5 -70.5t9.5 -86zM425 760q18 0 31 -13t13 -31v-318q0 -18 -13 -31t-31 -13 q-19 0 -31.5 12.5t-12.5 31.5v318q0 18 12.5 31t31.5 13z" unicode="" horiz-adv-x="836"/>
<glyph glyph-name="telephoneline" d="M753 570l-116 115l23 23l115 -115zM655 533q0 -22 -15 -37t-36 -15q-22 0 -37 15t-15 37q0 21 15 36t37 15q21 0 36 -15t15 -36zM548 359l-115 114l23 24l116 -115zM446 323q0 -21 -14.5 -36t-36.5 -15q-21 0 -36 15t-15 36q0 22 15 37t36 15q22 0 36.5 -15t14.5 -37z M661 131q-2 -14 -11.5 -35t-26 -42t-40.5 -40t-55 -29q-63 17 -121.5 51.5t-110 77.5t-94.5 90.5t-74.5 92t-51 81t-22.5 58.5q10 31 28.5 55.5t39.5 41.5t41 26t35 11q11 -6 27.5 -20.5t32.5 -34t28.5 -44.5t15.5 -52q-14 -21 -36 -35t-40 -22q3 -9 26.5 -39t57.5 -64.5 t72 -64.5t70 -38q8 19 21.5 40.5t35.5 36.5q21 -1 45.5 -11.5t46 -26t38 -32.5t22.5 -32z" unicode="" horiz-adv-x="802"/>
<glyph glyph-name="networkline" d="M766 252q0 -28 -20 -47t-47 -19q-26 0 -46 19t-20 47t20 47t46 19q27 0 47 -19t20 -47zM583 252q0 -28 -19 -47t-47 -19t-47.5 19t-19.5 47t19.5 47t47.5 19t47 -19t19 -47zM400 252q0 -28 -19.5 -47t-47.5 -19t-47 19t-19 47t19 47t47 19t47.5 -19t19.5 -47zM757 0 l-52 52l202 201l-196 194l52 52l247 -246zM278 0l-253 253l247 246l52 -52l-195 -194l201 -201z" unicode="" horiz-adv-x="1035"/>
<glyph glyph-name="information" d="M784 352q0 -75 -28.5 -140t-77.5 -114t-114.5 -77t-138.5 -28t-138.5 28t-114.5 77t-77.5 114t-28.5 140t28.5 140t77.5 114t114.5 77t138.5 28t138.5 -28t114.5 -77t77.5 -114t28.5 -140zM724 352q0 61 -23.5 116t-64 96t-95 65t-116.5 24t-116.5 -24t-95.5 -65t-65 -96 t-24 -116q0 -62 24 -116.5t65 -96t95.5 -65.5t116.5 -24q61 0 115.5 24t95.5 65t64.5 96t23.5 117zM499 537q0 -29 -22.5 -49t-51.5 -20q-30 0 -52 20t-22 49t22 49t52 20q29 0 51.5 -20t22.5 -49zM485 84h-120v343h120v-343z" unicode="" horiz-adv-x="854"/>
<glyph glyph-name="cursor.arrow.upright" d="M800 599l-46 -16l12 -41l-46 -16l12 -42l-46 -16l12 -41l-46 -17l13 -42l-46 -16l12 -41l-46 -17l12 -41l-47 -16l13 -42l-46 -17l12 -41l-46 -16l13 -42l-43 -15l-46 154l-46 -17l13 -42l-88 -30l12 -42l-89 -31l13 -42l-93 -33l-11 42l-39 -14l-30 100l39 14l-13 41 l88 31l-11 42l88 31l-13 42l89 31l-11 37l-46 -16l-13 41l-46 -16l-12 41l-38 -13l-14 46l680 242l13 -46l-42 -15z" unicode="" horiz-adv-x="870"/>
<glyph glyph-name="cursor.arrow.upleft" d="M91 642l-42 15l13 46l680 -242l-14 -46l-38 13l-12 -41l-46 16l-13 -41l-46 16l-11 -37l89 -31l-13 -42l88 -31l-11 -42l88 -31l-13 -41l39 -14l-30 -100l-39 14l-11 -42l-93 33l13 42l-89 31l12 42l-88 30l13 42l-46 17l-46 -154l-43 15l13 42l-46 16l12 41l-46 17 l13 42l-47 16l12 41l-46 17l12 41l-46 16l13 42l-46 17l12 41l-46 16l12 42l-46 16l12 41l-46 16z" unicode="" horiz-adv-x="870"/>
<glyph glyph-name="cursoroutline.arrow.upright" d="M800 597l-46 -16l12 -41l-46 -16l12 -42l-46 -16l12 -41l-46 -17l13 -42l-46 -16l12 -41l-46 -17l12 -41l-47 -16l13 -42l-46 -17l12 -41l-46 -16l13 -42l-43 -15l-46 154l-46 -17l13 -42l-88 -30l12 -42l-89 -31l13 -42l-93 -33l-11 42l-39 -14l-30 100l39 14l-13 41 l88 31l-11 42l88 31l-13 42l89 31l-11 37l-46 -16l-13 41l-46 -16l-12 41l-38 -13l-14 46l680 242l13 -46l-42 -15zM238 444l11 -37l46 17l12 -42l46 17l14 -46l-46 -17l13 -41l-89 -31l12 -42l-88 -31l12 -42l-88 -31l27 -91l84 30l-12 41l88 31l-12 42l88 31l-12 42l92 32 l33 -111l43 15l-13 41l46 16l-12 42l46 16l-12 41l46 17l-12 41l46 16l-12 42l46 17l-13 41l46 16l-11 42l45 16l-11 39z" unicode="" horiz-adv-x="870"/>
<glyph glyph-name="cursoroutline.arrow.upleft" d="M91 640l-42 15l13 46l680 -242l-14 -46l-38 13l-12 -41l-46 16l-13 -41l-46 16l-11 -37l89 -31l-13 -42l88 -31l-11 -42l88 -31l-13 -41l39 -14l-30 -100l-39 14l-11 -42l-93 33l13 42l-89 31l12 42l-88 30l13 42l-46 17l-46 -154l-43 15l13 42l-46 16l12 41l-46 17 l13 42l-47 16l12 41l-46 17l12 41l-46 16l13 42l-46 17l12 41l-46 16l12 42l-46 16l12 41l-46 16zM141 623l-11 -39l45 -16l-11 -42l46 -16l-13 -41l46 -17l-12 -42l46 -16l-12 -41l46 -17l-12 -41l46 -16l-12 -42l46 -16l-13 -41l43 -15l33 111l92 -32l-12 -42l88 -31 l-12 -42l88 -31l-12 -41l84 -30l27 91l-88 31l12 42l-88 31l12 42l-89 31l13 41l-46 17l14 46l46 -17l12 42l46 -17l11 37z" unicode="" horiz-adv-x="870"/>
<glyph glyph-name="ship" d="M434 7q-24 -11 -47 -11q-12 0 -25 3.5t-25.5 7.5t-24.5 7.5t-21 3.5t-19.5 -4t-21.5 -8.5t-22.5 -8t-22.5 -3.5t-23.5 3.5t-25 7.5t-25 7.5t-22.5 3.5q-15 0 -24.5 -3.5t-18.5 -7.5t-19 -7.5t-24 -3.5v69q21 0 33 5q6 3 10 6q19 12 41 12q10 0 21 -4t22.5 -8.5t23.5 -8 t26 -3.5q27 0 49.5 11t41.5 11q9 0 19.5 -3.5l22.5 -7.5t25 -7.5t25 -3.5q26 0 50 11t43 11t41.5 -11t48.5 -11q14 0 27 3.5t24.5 8t22 8.5t20.5 4q21 0 41 -12q4 -3 10 -6q12 -5 33 -5v-69q-15 0 -25 3.5t-19 7.5t-18.5 7.5t-23.5 3.5q-10 0 -22 -3.5t-24.5 -7.5 t-24.5 -7.5t-22 -3.5q-12 0 -23.5 3.5t-23 8t-22 8.5t-19.5 4q-8 0 -18.5 -3t-24.5 -8zM434 108q-14 -7 -26 -9.5t-23 -2.5t-21 3.5t-20.5 8t-23 8t-28.5 3.5q-11 0 -21.5 -3.5t-22 -8t-23 -8t-23.5 -3.5q-11 0 -23 3.5t-24 7.5t-24.5 7.5t-22.5 3.5q-15 0 -25 -3t-19 -7 t-18.5 -7.5t-22.5 -4.5v67q10 0 18.5 1t13.5 3q6 2 11 4q14 8 25.5 10.5t21.5 2.5q23 0 44.5 -8.5t38.5 -8.5v159l-45 112q-2 5 -3 9t-1 8q0 16 15 21l35 14v97h47v52h90v68h99v-68h91v-52h47v-97l34 -14q16 -7 16 -21q0 -4 -1 -8t-3 -9l-45 -112v-159q17 0 38.5 9.5 t44.5 9.5q10 0 21 -2.5t25 -10.5q5 -2 11 -4q5 -2 13 -3.5t19 -2.5v-67q-14 1 -23 4.5t-18 7.5t-19 7t-25 3q-11 0 -22.5 -3.5t-24 -7.5t-24.5 -7.5t-23 -3.5q-12 0 -23.5 3.5t-23 8t-22.5 8t-21 3.5q-20 0 -41 -11zM287 598v-49h-47v-40l144 59l144 -59v40h-47v49h-194z " unicode="" horiz-adv-x="770"/>
<glyph glyph-name="train" d="M233 107l-72 -107h-62l107 156q-29 5 -51 28.5t-22 58.5v322q0 36 25.5 63t64.5 27h225q39 0 65 -27t26 -63v-322q0 -17 -6 -32t-16 -26t-22.5 -18.5t-25.5 -10.5l104 -156h-58l-77 107h-205zM302 666q-10 0 -17 6.5t-7 17.5t7 17.5t17 6.5q11 0 18 -6.5t7 -17.5 t-7 -17.5t-18 -6.5zM372 666q-13 0 -20.5 6.5t-7.5 17.5t7.5 17.5t20.5 6.5q10 0 17 -6.5t7 -17.5t-7 -17.5t-17 -6.5zM448 205q19 0 30 11t11 27t-11 29t-30 13q-16 0 -26.5 -13t-10.5 -29t10.5 -27t26.5 -11zM445 413q44 0 44 45v59q0 18 -10.5 31.5t-33.5 13.5h-218 q-22 0 -33.5 -13.5t-11.5 -31.5v-59q0 -22 13.5 -33.5t31.5 -11.5h218zM382 579q6 0 10 6t4 11v25q0 5 -4 9t-10 4h-90q-5 0 -9.5 -4t-4.5 -9v-25q0 -5 4.5 -11t9.5 -6h90zM223 205q16 0 29 11t13 27t-13 29t-29 13q-15 0 -26.5 -13t-11.5 -29t11.5 -27t26.5 -11z" unicode="" horiz-adv-x="628"/>
<glyph glyph-name="bus" d="M343 660q49 0 91 -6.5t74 -18.5t51.5 -30t22.5 -41l28 -202v-277h-45v-41q0 -21 -12.5 -31.5t-26.5 -10.5q-16 0 -28.5 10.5t-12.5 31.5v41h-291v-41q0 -21 -12.5 -31.5t-27.5 -10.5t-27.5 10.5t-12.5 31.5v41h-45v277l28 202q3 23 23.5 41t53 30t76 18.5t93.5 6.5z M523 172q16 0 27.5 11t11.5 27t-11.5 27.5t-27.5 11.5q-13 0 -24 -11.5t-11 -27.5t11 -27t24 -11zM156 172q13 0 24 11t11 27t-11 27.5t-24 11.5q-16 0 -27 -11.5t-11 -27.5t11 -27t27 -11zM450 578q8 0 12 5.5t4 11.5q0 7 -4 12t-12 5h-221q-8 0 -11.5 -5t-3.5 -12 q0 -6 3.5 -11.5t11.5 -5.5h221zM170 546q-17 0 -23 -9t-8 -21l-21 -146q0 -11 4 -19.5t17 -8.5h402q13 0 17 8.5t4 19.5l-21 146q-2 12 -8.5 21t-23.5 9h-339z" unicode="" horiz-adv-x="674"/>
<glyph glyph-name="taxi" d="M177 92v-48q0 -23 -13 -34.5t-29 -11.5q-17 0 -30.5 11.5t-13.5 34.5v48h-48v157q0 16 5.5 28.5t14 21t17.5 13t15 6.5l48 121q8 18 24 31.5t42 13.5h69v32q0 20 21 20h80q17 0 17 -20v-32h69q26 0 42 -13.5t21 -31.5l48 -121q8 -2 17.5 -6.5t18 -13t14.5 -21t6 -28.5 v-157h-48v-48q0 -23 -13.5 -34.5t-29.5 -11.5q-17 0 -30.5 11.5t-13.5 34.5v48h-320zM528 321l-31 94q-9 24 -32 24h-256q-13 0 -18 -6.5t-9 -17.5l-35 -94h381zM137 189q16 0 26.5 12t10.5 30t-10.5 30t-26.5 12q-19 0 -30.5 -12t-11.5 -30t11.5 -30t30.5 -12zM539 189 q18 0 29.5 12t11.5 30t-11.5 30t-29.5 12q-16 0 -29 -12t-13 -30t13 -30t29 -12z" unicode="" horiz-adv-x="701"/>
<glyph glyph-name="baggage" d="M237 429h84v63q0 19 13 28.5t33 9.5h93q15 0 28 -9.5t13 -28.5v-63h87v-429h-351v429zM203 0h-44q-26 0 -46 17t-20 49v302q0 26 20 43.5t46 17.5h44v-429zM471 429v67h-119v-67h119zM619 429h49q26 0 44 -17.5t18 -43.5v-302q0 -32 -19.5 -49t-42.5 -17h-49v429z" unicode="" horiz-adv-x="790"/>
<glyph glyph-name="restaurant" d="M299 482q0 -16 -14 -32t-34 -16v-392q0 -21 -12 -31.5t-27 -10.5q-14 0 -26 10.5t-12 31.5v392q-18 0 -33 14t-15 37v219q0 6 4 9t9 3q14 0 14 -16v-159h21v163q0 7 4.5 9.5t9.5 2.5t10 -2.5t5 -9.5v-163h24v163q0 12 11 12q5 0 9 -3.5t4 -12.5v-159h24v163q0 12 12 12 q4 0 8 -3.5t4 -12.5v-218zM504 42q0 -20 -12 -30.5t-26 -10.5t-26.5 10.5t-12.5 30.5v243h-42v366q0 33 19 49t41 16q23 0 41 -16t18 -49v-609z" unicode="" horiz-adv-x="592"/>
<glyph glyph-name="coffeeshop" d="M838 86q0 -41 -24 -63.5t-54 -22.5h-638q-14 0 -28.5 5.5t-26.5 16t-19.5 27t-7.5 37.5h798zM682 494q35 0 61 -11.5t43.5 -31t26 -46t8.5 -55.5q0 -28 -11 -54t-31 -46.5t-48 -32.5t-62 -12v-24q0 -27 -20 -50.5t-54 -23.5h-308q-29 0 -52 21.5t-23 52.5v313h470z M768 350q0 11 -4 26t-14 28.5t-25.5 23t-38.5 9.5h-17v-169h10q45 0 67 24.5t22 57.5z" unicode="" horiz-adv-x="880"/>
<glyph glyph-name="drink" d="M39 633h630l-275 -339v-215h151q20 0 29.5 -11.5t9.5 -27.5q0 -14 -9.5 -27t-29.5 -13h-377q-20 0 -29.5 13t-9.5 27q0 16 9.5 27.5t29.5 11.5h150v215zM400 377q17 0 32 15.5t15 32.5q0 21 -15 36t-32 15q-22 0 -37.5 -15t-15.5 -36q0 -17 15.5 -32.5t37.5 -15.5z" unicode="" horiz-adv-x="720"/>
<glyph glyph-name="toilets" d="M504 689v-689h-64v689h64zM235 584q-23 0 -39.5 16t-16.5 40t16.5 40t39.5 16q25 0 41.5 -16t16.5 -40t-16.5 -40t-41.5 -16zM228 224v-200q0 -13 -8 -19.5t-18 -6.5t-18 6.5t-8 19.5v200h-74l77 264h-12l-44 -151q-2 -11 -9 -15t-15 -4q-9 0 -17 7t-8 19q0 2 0.5 4 t0.5 4l53 164q2 6 5.5 15t11.5 17.5t21.5 14.5t35.5 6h66q22 0 36 -6t22.5 -14.5t12 -17.5t4.5 -15l52 -164q1 -3 1 -8q0 -12 -6.5 -19t-17.5 -7q-7 0 -13.5 4t-10.5 15l-44 151h-11l74 -264h-71v-200q0 -13 -8 -19.5t-17 -6.5q-11 0 -19 6.5t-8 19.5v200h-16zM750 569 q25 0 41 -7t25 -18t12.5 -24.5t3.5 -27.5v-175q0 -13 -7 -18.5t-18 -5.5q-9 0 -16.5 5.5t-7.5 18.5v160h-11v-446q0 -16 -10 -24t-22 -8t-22 8t-10 24v269h-12v-269q0 -16 -10.5 -24t-23.5 -8q-12 0 -23 8t-11 24v446h-8v-160q0 -13 -8.5 -18.5t-16.5 -5.5q-11 0 -19 5.5 t-8 18.5v175q0 30 19 53.5t63 23.5h100zM700 584q-23 0 -39 16t-16 40t16 40t39 16q25 0 40.5 -16t15.5 -40t-15.5 -40t-40.5 -16z" unicode="" horiz-adv-x="880"/>
<glyph glyph-name="fire.extinguisher" d="M191 580q-27 -2 -48.5 -12.5t-36.5 -27t-24.5 -37t-13.5 -41.5l-32 8q12 57 44.5 90.5t67.5 42.5q-6 4 -11.5 13.5t-5.5 21.5q0 25 17 39.5t37 14.5q22 0 35.5 -14t13.5 -28h22v-30h83v20l156 39v-151l-156 33v17h-83v-29q9 -1 23 -8.5t27.5 -21.5t23 -34.5t9.5 -47.5 v-409q0 -8 -5 -18t-21 -10h-182q-14 0 -19 10t-5 18v409q0 27 10 47.5t23.5 34.5t28 21.5t22.5 8.5v31z" unicode="" horiz-adv-x="543"/>
<glyph glyph-name="nosmoking" d="M415 721q75 0 142 -29t116.5 -78.5t78.5 -116t29 -141.5q0 -76 -29 -142.5t-78.5 -116t-116.5 -78t-142 -28.5q-76 0 -142.5 28.5t-116 78t-78.5 116t-29 142.5q0 75 29 141.5t78.5 116t116 78.5t142.5 29zM122 356q0 -61 23 -114.5t62.5 -93t93 -62.5t114.5 -23 q50 0 96 16t84 47l-410 411q-63 -80 -63 -181zM709 356q0 61 -23 114.5t-63 93.5t-93.5 63.5t-114.5 23.5q-48 0 -93 -16.5t-83 -44.5l411 -409q26 37 42.5 82.5t16.5 92.5zM565 285l-66 65h87v-65h-21zM352 350l65 -65h-240v65h175zM428 583q-7 -13 -7.5 -26.5t4 -24.5 t13 -18t20.5 -7q22 0 22 -9q0 -5 -4 -9.5t-4 -16.5q0 -11 7 -21t22 -10h60q27 0 43 -14.5t16 -39.5v-27h-22v27q0 20 -12 26.5t-25 6.5h-60q-23 0 -36.5 15t-13.5 34v8.5t1 8.5q-19 2 -34.5 14t-24.5 28.5t-10.5 34.5t6.5 32zM531 525q0 21 -15 37.5t-38 16.5v21 q33 0 54 -21.5t21 -53.5q0 -7 -2.5 -16t-7.5 -16h20q42 0 66 -27.5t24 -69.5v-36h-21v36q0 29 -17.5 52.5t-51.5 23.5h-36q-11 0 -11 9q0 7 7.5 15.5t7.5 28.5zM598 351h22v-66h-22v66zM633 351h20v-66h-20v66z" unicode="" horiz-adv-x="842"/>
<glyph glyph-name="escalator.up" d="M848 630q19 0 38 -8t33.5 -22.5t23.5 -35.5t9 -46t-10 -46.5t-25 -38t-33 -26t-33 -9.5h-86q-10 0 -15 -1t-10 -6l-353 -351q-23 -23 -47 -30.5t-45 -7.5h-124q-27 0 -48 11t-35 28t-21.5 37.5t-7.5 40.5q0 19 7.5 39t21 36.5t33.5 26.5t46 10h56q33 0 44 12l101 99v152 q0 31 18 46t40 15q20 0 38 -15t18 -46v-37l142 139q16 17 41.5 25.5t46.5 8.5h136zM719 572q-20 0 -32 -2t-24 -14l-364 -366q-9 -9 -21 -14t-30 -5h-81q-18 0 -34.5 -12.5t-16.5 -39.5q0 -23 17 -42t38 -19h121q18 0 30.5 6t24.5 14l356 361q16 12 28 16t37 4h77 q13 0 22 6.5t14.5 16t8 19.5t2.5 17t-2.5 16.5t-8 18t-14.5 14t-22 5.5h-126zM729 27v98l-131 -131l-38 38l132 130h-98l52 51h133v-134zM363 630q0 25 17.5 43t42.5 18t43 -18t18 -43t-18 -43t-43 -18t-42.5 18t-17.5 43z" unicode="" horiz-adv-x="983"/>
<glyph glyph-name="escalator.down" d="M835 630q20 0 39 -8t34 -22.5t24 -35.5t9 -46t-10.5 -46.5t-25.5 -38t-33 -26t-33 -9.5h-87q-9 0 -14 -1t-10 -6l-354 -351q-23 -23 -46 -30.5t-45 -7.5h-123q-27 0 -48 11t-35.5 28t-22 37.5t-7.5 40.5q0 19 7.5 39t21.5 36.5t34 26.5t45 10h56q32 0 44 12l103 101v152 q0 31 18 46t41 15q21 0 39 -15t18 -46v-37l137 137q15 17 41.5 25.5t47.5 8.5h135zM703 572q-19 0 -30 -2t-22 -14l-364 -366q-9 -9 -21 -14t-31 -5h-80q-18 0 -35.5 -12.5t-17.5 -39.5q0 -12 5 -23t13 -19.5t18.5 -13.5t21.5 -5h119q19 0 31.5 6t25.5 14l356 361 q15 12 27 16t37 4h76q13 0 22.5 6.5t14.5 16t7.5 19.5t2.5 17t-3.5 16.5t-10 18t-15 14t-18.5 5.5h-129zM600 184v-98l131 131l38 -38l-132 -130h98l-52 -51h-133v134zM355 630q0 25 17.5 43t42.5 18t43 -18t18 -43t-18 -43t-43 -18t-42.5 18t-17.5 43z" unicode="" horiz-adv-x="983"/>
<glyph glyph-name="stairs.up" d="M55 74h145v139h137v146h144v144h141v138h206v-70h-139v-145h-140v-141h-140v-143h-141v-141h-213v73zM661 32v98l-131 -131l-38 38l132 130h-98l52 51h133v-134z" unicode="" horiz-adv-x="874"/>
<glyph glyph-name="stairs.down" d="M55 74h145v139h137v146h144v144h141v138h206v-70h-139v-145h-140v-141h-140v-143h-141v-141h-213v73zM544 184v-98l131 131l38 -38l-132 -130h98l-52 -51h-133v134z" unicode="" horiz-adv-x="869"/>
<glyph glyph-name="wheelchair" d="M507 114q-31 -55 -85.5 -88.5t-121.5 -33.5q-50 0 -93.5 18.5t-75.5 50.5t-50.5 75t-18.5 93q0 72 38 129t100 86l8 -61q-42 -24 -65 -65t-23 -89q0 -37 14.5 -69.5t39 -57t57 -38.5t69.5 -14q30 0 58 10t51 27.5t40 41.5t26 53zM480 362q26 0 36 -8t19 -23l59 -142l15 6 q11 5 22 3t18 -15q5 -9 4 -20.5t-18 -18.5l-58 -23q-14 -5 -27 -4t-21 20l-57 130h-163q-34 0 -48.5 20t-20.5 61l-18 142q-2 16 2.5 28t12 20t17 12t18.5 5q25 2 42 -10t21 -38l7 -55h116q19 0 25 -10.5t6 -12.5q0 -11 -6.5 -21.5t-28.5 -10.5h-105l5 -35h126zM207 630 q0 26 17 44t43 18t44 -18t18 -44t-18 -44t-44 -18t-43 18t-17 44z" unicode="" horiz-adv-x="715"/>
<glyph glyph-name="fragile" d="M506 695l-74 -100l34 -63l-65 -116l131 116l-28 59l101 104h140q-1 -65 -23.5 -123t-62 -103t-93 -75.5t-114.5 -40.5v-272l183 -54v-27h-471v27l187 54v271q-63 9 -117 38.5t-94 75t-62.5 104t-22.5 125.5h451z" unicode="" horiz-adv-x="769"/>
<glyph glyph-name="thissideup" d="M212 108h-81v400h-95l137 202l126 -202h-87v-400zM522 108h-81v400h-95l135 202l126 -202h-85v-400zM33 74h575v-74h-575v74z" unicode="" horiz-adv-x="660"/>
<glyph glyph-name="greendot" d="M46 357q0 70 28.5 134t77 113.5t112 79t132.5 29.5q76 0 143 -26.5t117.5 -74t80 -114t29.5 -145.5q0 -80 -29.5 -146.5t-79.5 -114t-116.5 -74t-140.5 -26.5q-77 0 -142 30t-112 80.5t-73.5 116.5t-26.5 138zM228 218q14 45 37 76t49.5 51t52 30.5t43.5 14.5 q-1 -5 -1.5 -11t-0.5 -14q0 -13 1.5 -27.5t5.5 -27.5q35 15 66 39t55 49.5t40.5 50.5t21.5 42q-12 30 -32 59.5t-45.5 53t-54.5 39t-59 17.5q3 -12 3 -34q0 -11 -0.5 -21.5t-2.5 -23.5q-83 -6 -147 -39q-27 -14 -53.5 -35t-47 -51.5t-33 -71t-12.5 -92.5q0 -77 26.5 -131.5 t68 -89t92.5 -51t99 -16.5q70 0 133.5 26t112 72t77.5 108.5t29 136.5q0 58 -17 112t-47.5 98.5t-74 77t-96.5 49.5q66 -26 103.5 -64.5t56.5 -78t24 -74t5 -52.5q0 -56 -13 -99t-34.5 -75t-51 -55t-62 -38t-67.5 -24t-68 -13q-2 -9 -3 -18.5t-1 -18.5q0 -12 1 -21.5 t3 -15.5q-54 18 -89 46.5t-55 57t-28.5 50.5t-9.5 27z" unicode="" horiz-adv-x="822"/>
<glyph glyph-name="flammable" d="M66 0v698h706v-698h-706zM389 649q-2 -11 -5 -21t-3 -28q0 -5 1.5 -10t1.5 -10q0 -16 -2.5 -30.5t-6.5 -14.5q-3 0 -8 4.5t-9.5 9.5t-8.5 9.5t-6 4.5q-5 0 -13 -2q5 -11 6.5 -23t1.5 -20q0 -22 -3 -37t-6 -25.5t-6 -17.5t-3 -13q-5 -1 -6.5 3.5t-2.5 10.5t-3.5 11.5 t-9.5 5.5q-3 0 -9 -3q0 -18 -6.5 -36.5t-6.5 -39.5q0 -11 -0.5 -22t-4.5 -19q-5 0 -9.5 2.5t-8.5 2.5q0 -9 -2.5 -14.5t-2.5 -9.5v-85q0 -52 30.5 -88.5t82.5 -53.5h110q32 19 63 34q32 24 48.5 58.5t16.5 72.5q0 8 -1 17t-5 18q-2 -3 -8 -7t-6 -6q0 4 1 13.5t2 20t2 20 t1 15.5v42q0 2 -3 11.5t-7 20.5t-9.5 19.5t-9.5 8.5q-3 -2 -4 -16.5t-15 -26.5q0 20 -4 41t-14 37q-5 21 -15 39.5t-18 26.5q-5 -11 -10 -15.5t-7 -14.5q-6 10 -7.5 14.5t-6.5 15.5q-4 8 -13.5 25t-20 34t-19.5 29.5t-12 12.5zM438 377q8 -13 19.5 -36.5t11.5 -42.5 q0 -5 -1 -9.5t-1 -8.5t2 -7.5t3 -3.5q2 0 5.5 4.5t7 10.5l7 12t6.5 9q4 -8 3.5 -18.5t-0.5 -19.5t2 -15.5t10 -6.5q0 -22 -8 -47.5t-34 -48.5l-5.5 -4t-11.5 -8.5t-11 -8t-5 -4.5h-6q0 -2 1.5 -5.5t1.5 -8.5q0 -8 -5.5 -8.5t-9.5 -0.5q-19 0 -38 11t-34.5 28t-25 38.5 t-9.5 42.5q0 3 1 12t4 20t7 21.5t10 18.5q4 -4 8 -19t8.5 -31.5t10.5 -29.5t14 -13q5 0 8 11q0 8 -3 15t-3 12q0 17 -1.5 22.5t-1.5 13.5t1.5 13.5t1.5 10.5q1 0 5 -4.5t8.5 -11.5t8.5 -15t6 -15q0 1 2 1q1 0 2 -0.5t2 -0.5h2q0 2 2.5 3.5t2.5 8.5q7 4 10.5 16.5t5.5 29 t2.5 34.5t0.5 33zM282 49h269v28h-269v-28z" unicode="" horiz-adv-x="834"/>
<glyph glyph-name="recyclable.aluminum" d="M611 243v27q-8 -14 -23.5 -23.5t-32.5 -9.5q-22 0 -35.5 6t-21 16.5t-10 23.5t-2.5 27v115h51v-119q0 -15 6.5 -25t23.5 -10q14 0 27 14t13 42v98h48v-182h-44zM405 493h50v-250h-50v250zM330 328q-34 -2 -52 -10t-18 -27q0 -8 5 -14.5t22 -6.5q7 0 14.5 1.5t14 7 t10.5 15t4 25.5v9zM298 426q27 0 43 -5t24.5 -14t11.5 -21.5t3 -27.5v-58v-30t2 -27h-48q-1 2 -1 5q-1 3 -1 15q-12 -14 -27 -20t-32 -6q-29 0 -45 14.5t-16 38.5q0 18 9.5 30.5t26 20t38 11.5t44.5 5v7q0 17 -9 23t-23 6q-11 0 -19.5 -4.5t-13.5 -21.5h-51q3 25 22 42 t62 17zM749 544q59 -89 59 -200q0 -77 -26.5 -144.5t-74.5 -117t-115 -78t-148 -28.5q-54 0 -105.5 14t-94.5 43l2 -53l-67 -9l-14 176l173 17l6 -69l-66 -9q35 -21 75.5 -34t85.5 -13q63 0 118.5 24.5t96.5 66t64.5 97t23.5 117.5q0 44 -10.5 84.5t-32.5 72.5zM135 344 q0 -47 13 -87.5t34 -73.5l-50 -40q-28 45 -44 94.5t-16 106.5q0 76 29 143t79.5 117t117 79t141.5 29q57 0 107 -15.5t93 -43.5l-4 56l67 5l14 -172l-173 -17l-6 69l68 6q-35 21 -77 34t-89 13q-62 0 -117.5 -24t-97 -65t-65.5 -96t-24 -118z" unicode="" horiz-adv-x="851"/>
<glyph glyph-name="litter.disposal" d="M443 582q-24 0 -41 16.5t-17 39.5q0 25 17 42t41 17q23 0 40 -17t17 -42q0 -23 -17 -39.5t-40 -16.5zM328 418q-7 -11 -24 -11h-104q-13 0 -19.5 8t-6.5 17q0 10 7 18t21 8h89l54 77q21 30 56 30h102q29 0 50.5 -19.5t21.5 -54.5v-173q0 -14 -8 -21t-17 -7q-10 0 -18 7 t-8 21v158h-13v-444q0 -16 -10 -24t-21 -8q-13 0 -23 8.5t-10 25.5v258h-13v-258q0 -17 -10 -25.5t-23 -8.5q-12 0 -22 8t-10 24v443zM157 204v42h42v-42h-42zM191 267l-31 31l31 31l30 -31zM161 326l-30 30l30 31l31 -31zM116 0l-53 292h40l47 -251h71l49 251h42l-55 -292 h-141z" unicode="" horiz-adv-x="680"/>
<glyph glyph-name="tidyman" d="M319 384l-55 -367h-158l-50 367h263zM458 370l150 -17l-33 -357l-53 249l-137 -253zM458 384q-4 20 -8 38q-4 16 -9 33t-13 28q-5 7 -21.5 18.5t-39 25t-48 27.5t-47.5 25.5t-37 19.5t-17 9l315 -40q20 -35 36 -67q14 -27 25.5 -54.5t13.5 -42.5zM472 595q-23 0 -39.5 17 t-16.5 37q0 26 16.5 43t39.5 17q25 0 41.5 -17t16.5 -43q0 -20 -16.5 -37t-41.5 -17zM281 503q-4 -3 -12.5 -11t-16.5 -18t-13 -20t-2 -16q-13 9 -27 9q-11 0 -20 -2.5t-15 -2.5q-4 0 -11.5 3t-15 6.5t-13 6.5l-5.5 3q16 7 33 28t22 42q3 -2 8 -4q4 -2 10 -4.5t14 -4.5 q7 1 23.5 5t30.5 10z" unicode="" horiz-adv-x="670"/>
<glyph glyph-name="ozonefriendly" d="M449 721q76 0 144 -29t119 -79.5t81 -118t30 -144.5q0 -78 -30 -146.5t-81 -119t-119 -79.5t-144 -29q-77 0 -145 29t-118.5 79.5t-80 119t-29.5 146.5q0 77 29.5 144.5t80 118t118.5 79.5t145 29zM449 711q-75 0 -141 -28.5t-114.5 -78t-77 -115t-28.5 -139.5 q0 -76 28.5 -142.5t77 -116t114.5 -78t141 -28.5t141 28.5t115.5 78t78 116t28.5 142.5q0 74 -28.5 139.5t-78 115t-115.5 78t-141 28.5zM449 594q51 0 95.5 -19.5t78 -52.5t53 -77.5t19.5 -94.5q0 -51 -19.5 -96t-53 -78.5t-78 -53t-95.5 -19.5t-96 19.5t-78 53t-52 78.5 t-19 96q0 50 19 94.5t52 77.5t78 52.5t96 19.5zM449 578q-48 0 -89.5 -18t-72.5 -48.5t-49 -72t-18 -89.5t18 -90.5t49 -74t72.5 -49.5t89.5 -18q49 0 91 18t73 49.5t48.5 74t17.5 90.5t-18 89.5t-49.5 72t-73 48.5t-89.5 18zM625 389q6 -6 6 -17l-1 -16q0 -11 9 -11 q2 0 3.5 1t3.5 1v-7h10l6 3q-2 -45 -19 -83.5t-45 -66.5t-66 -44t-83 -16t-84 18t-67.5 48.5t-44.5 70.5t-16 83v13q5 3 6.5 3.5t5.5 0.5q2 0 2 -2t13 -2l2 -2q1 0 1.5 0.5t2.5 0.5q5 0 9 -6.5t9 -6.5q-5 14 -10.5 17.5t-19.5 3.5v4q0 1 1 1q0 3 -1.5 4.5t-1.5 3.5q0 1 2 5 l3 3q0 7 5.5 9.5t10.5 2.5v1q0 2 3 2l8 -8q2 -6 3 -5.5t3 0.5v13h4q0 2 -1 3.5t-1 2.5l2 1q0 7 7.5 11.5t5.5 5.5q0 1 8 8t16 10q-2 5 -2 7.5v4.5q0 4 3.5 5t8 1.5t8.5 1.5t4 5q0 3 -3.5 5t-8 3.5l-7.5 2.5l-3 1q-2 0 -3 -0.5t-5 -10.5h-2v-5h-3q0 -5 2 -5q-6 -2 -6.5 -2 h-5.5v2q0 2 -2.5 3.5t-5.5 3l-5 2.5t-1 1v13q7 0 12.5 4t10 9.5t9 9.5t10.5 4q5 0 5 -5t-4 -12q7 0 12.5 3t5.5 14h-1q-2 3 -3.5 6.5t-1.5 7.5q0 8 11 8q12 0 16 -5.5t4 -16.5q0 -3 -6 -5v-4q-1 -1 -1 -4q0 -5 4 -9.5t7 -4.5q2 0 8 8t6 10h5q4 0 8 2l6 2q7 4 10 8t4.5 7t3 5 t5.5 2v7q-6 3 -11 7q-5 3 -8.5 5.5t-5.5 4.5l2 1v-1q17 4 36 4q37 0 70.5 -13.5t50.5 -34.5l-2 -2h-2q-1 0 -2.5 0.5t-2.5 0.5q-5 0 -7.5 -0.5t-4.5 -2t-5.5 -4t-11.5 -6.5l-1 1l-2 -1q-2 2 -1.5 2.5t-1.5 0.5q0 5 0.5 6.5t2.5 4.5q-5 2 -11.5 6t-11.5 4q-4 0 -9 -3.5 t-9.5 -7.5t-7.5 -7.5t-3 -2.5q0 -5 1 -8q0 -3 1 -5q-2 -3 -7.5 -10t-7.5 -3q1 1 -3.5 7t-9.5 6q0 -4 -4 -2.5t-3 -3.5q0 -2 5.5 -3t5.5 -9q0 -2 -0.5 -2.5t-0.5 -1.5v-1l1 -2q0 -5 -9 -7.5t-14 -6.5q0 -1 1 -2q0 -1 0.5 -1.5t0.5 -1.5q0 -2 -2 -2q3 0 5 -2q1 -1 2 -1 q14 0 18 8.5t9 8.5q2 0 3 1q4 -5 6.5 -10t7.5 -5t5.5 4t5.5 4t8.5 -6.5t3.5 -8.5q5 5 9 11.5t14 6.5q5 0 6.5 -2t9.5 -2q0 -9 -3.5 -8t-20.5 -6q5 -7 10 -6.5t5 -4.5q0 -2 -1 -3l-3 -4v-3q-2 -3 -12 -3q-17 0 -25 3t-12.5 7t-8.5 7t-14 3l-2 2q-2 2 -4 2q-12 0 -18 -5 t-9 -10.5t-5 -10.5t-6 -5q-5 -3 -7.5 -9.5t-2.5 -8.5q0 -8 3.5 -14t7.5 -10v-7q3 -1 10 -1q5 0 10 0.5t7 0.5h7l9.5 -9.5t3.5 -13.5v-3q2 -4 1.5 -5t1.5 -6l2 -4q0 -8 -1.5 -17t-3.5 -20q-1 -5 2 -7t3 -5t-0.5 -7.5t1 -8.5t6 -7t15.5 -3q0 2 3 4t3 4q1 0 1.5 -0.5t1.5 -0.5 h1v1l5 5q3 0 7 6t7.5 13.5t6 13t2.5 4.5q2 9 3 17.5t3 17.5h3v3h2v5q4 3 5 3.5t1.5 1.5l1.5 3t6 10q-2 4 -9.5 5.5t-7.5 11.5q0 1 0.5 1.5t0.5 1.5q-5 2 -8 10.5t-1 8.5q-5 5 -5 7v8q2 0 2.5 2.5t5.5 0.5q6 -6 6 -8v-5q8 1 7 -1t3 -11v-3q0 -5 3.5 -7t6.5 -2q6 0 12 6t6 8 q0 4 -4 5.5t-8 2.5t-6.5 2.5t0.5 4.5v9t2 1t3 -2l5 -3h2v-2h6l6 -8q23 1 33 -5zM147 303q15 0 26.5 9t13.5 26q4 -53 26 -98.5t57.5 -79t81.5 -52.5t97 -19q53 0 98.5 19t80 52.5t56 79t25.5 98.5q4 -17 16 -26t27 -9q16 0 27.5 8.5t17.5 22.5q-4 -71 -33 -132t-76 -107 t-108.5 -72t-130.5 -26t-130.5 26t-108.5 71.5t-75.5 106.5t-30.5 131q2 -13 13.5 -21t29.5 -8zM311 293q2 -2 12 -16.5t17 -35.5l-1 -1v-2q0 -2 1.5 -7.5t3.5 -8.5q-1 0 -1 -1v-3q0 -4 5 -6q5 -11 9.5 -17.5t16.5 -6.5q2 -1 3.5 3t1.5 7q0 7 -3.5 14.5t-3.5 17.5l2 2 q0 6 1.5 9t3.5 5.5t3.5 7t1.5 13.5q1 2 2 5q2 6 2 7l3 3q-1 0 -1 1q0 2 7 4v9t-1 12t-2 11t-4 5q-1 0 -2 -1q-3 2 -7 3t-7 3q-1 0 -4 -0.5t-6 -0.5q-4 0 -4.5 2l-1 4t-2 4t-8.5 2q1 6 -10.5 11.5t-25.5 5.5v-3q-1 0 -3 0.5t-4 0.5t-2 -1l-2 -2q-5 0 -6.5 -1t-3.5 -1l7 -3 q0 -8 0.5 -7.5t0.5 -3.5q0 -2 -1 -2v-3q0 -4 -2 -8t-2 -9q1 -3 2 -5l2 -6h3l6 -10h4zM317 106q-6 3 -13 3q-12 0 -20.5 -9.5t-8.5 -22.5q0 -11 7.5 -20t20.5 -9q12 0 21 10.5t9 24.5q0 16 -16 23zM421 46q0 -12 7 -22t20 -10q12 0 20 8t8 22t-6.5 23t-20.5 9q-12 0 -20 -8 t-8 -22zM557 664q8 -3 11 -8.5t3 -11.5q0 -15 -9.5 -25.5t-21.5 -10.5q-5 0 -8 1l-23 9l23 55zM284 641q6 2 9 2q8 0 13 -5t5 -11q0 -5 -4 -8q11 0 16 -9.5t6 -10.5l-9 -6q-2 3 -6.5 10t-11.5 7q-2 0 -6 -2l-8 -6l13 -21l-10 -6l-32 51zM497 679l-10 -59l-12 2l-19 39 l-4 -37l-13 1l8 60l11 -1l21 -43l6 41zM531 88l11 -38l-36 32l-11 -4l15 -57l13 5l-13 38l34 -32l12 4l-16 56zM421 636l3 -11l-42 -8l-12 58l41 8l1 -12l-28 -5l3 -12l27 5l2 -11l-28 -5l2 -12zM597 66l-6 12l23 15l-5 8l-25 -14l-6 11l26 15l-6 9l-36 -23l32 -49l37 23 l-6 9zM359 89l-4 -10l32 -9l-41 -28l-3 -9l45 -12l4 11l-32 8l42 28l3 8zM254 544l-9 -7l-39 44l31 27l6 -8l-22 -19l9 -10l21 19l6 -8l-21 -18zM312 98q11 -5 11 -16q0 -8 -5.5 -15.5t-14.5 -7.5q-17 0 -17 16q0 7 5 15.5t16 8.5q3 0 5 -1zM646 566l10 43l11 -10l-10 -29 l29 11l9 -10l-39 -11l-15 -18l-10 10zM609 641l10 -8l-27 -37l25 -18l-7 -9l-34 24zM449 65q9 0 12 -6.5t3 -14.5q0 -18 -15 -18q-8 0 -12 6t-4 14q0 7 4 13t12 6zM539 659l-15 -35l12 -5q1 0 1.5 -0.5t2.5 -0.5q7 0 12.5 8.5t5.5 16.5q0 9 -9 12zM337 666l23 -55l-10 -6 l-24 55zM496 490q2 8 6 11.5t7 8.5q5 0 7.5 -10t2.5 -13h-5q0 -3 -5 -3v-4h-5q-7 0 -7.5 4t-0.5 6zM295 441q-8 0 -8 10q0 5 1.5 8.5t6.5 3.5q7 0 10.5 -3.5t3.5 -7.5q0 -10 -11 -11h-3zM578 428q-2 2 -8.5 5t-6.5 17q0 3 1 4t4 5q8 0 10.5 -10t2.5 -16l-2 -2q-1 -1 -1 -3z M294 618q7 3 7 8q0 6 -8 6q-3 0 -5 -1l-13 -8l8 -12zM652 352q-2 -1 -4 -1q-4 0 -4 5t3 11t5 7q10 0 10 -6q0 -5 -4 -10.5t-6 -5.5zM307 378q-1 -1 -1 -2q0 -2 2.5 -2.5t3.5 -0.5v8l-1 3q-8 0 -11.5 3.5t-7.5 3.5v-2q0 -2 -3 -2q4 -9 18 -9zM595 448q0 -4 -5 -4q-4 4 -4 7 l6 5q0 -4 1.5 -2.5t1.5 -5.5zM592 320q3 0 3 1v2h3q0 1 0.5 1.5t0.5 1.5q-6 2 -5 6t-2 2l-2 -3v-5z" unicode="" horiz-adv-x="879"/>
<glyph glyph-name="machinewash.normal" d="M116 571q23 19 57.5 32.5t79.5 13.5q51 0 95.5 -17t82.5 -38q35 -18 73.5 -33t82.5 -15q41 0 74.5 7t60 18t46.5 23.5t34 23.5l26 107l66 -11l-155 -682h-565l-150 685l66 11zM228 65h457l96 435q-21 -12 -41.5 -22t-43.5 -16.5t-50 -10t-60 -3.5q-54 0 -100.5 18.5 t-88.5 39.5q-36 19 -71 32.5t-73 13.5q-24 0 -44 -6.5t-35 -15.5t-25.5 -18.5t-15.5 -15.5z" unicode="" horiz-adv-x="918"/>
<glyph glyph-name="machinewash.permanentpress" d="M116 571q23 19 57.5 32.5t79.5 13.5q51 0 95.5 -17t82.5 -38q35 -18 73.5 -33t82.5 -15q41 0 74.5 7t60 18t46.5 23.5t34 23.5l26 107l66 -11l-155 -682h-565l-150 685l66 11zM228 65h457l96 435q-21 -12 -41.5 -22t-43.5 -16.5t-50 -10t-60 -3.5q-54 0 -100.5 18.5 t-88.5 39.5q-36 19 -71 32.5t-73 13.5q-24 0 -44 -6.5t-35 -15.5t-25.5 -18.5t-15.5 -15.5zM169 -40h570v-58h-570v58z" unicode="" horiz-adv-x="918"/>
<glyph glyph-name="machinewash.delicate" d="M116 571q23 19 57.5 32.5t79.5 13.5q51 0 95.5 -17t82.5 -38q35 -18 73.5 -33t82.5 -15q41 0 74.5 7t60 18t46.5 23.5t34 23.5l26 107l66 -11l-155 -682h-565l-150 685l66 11zM228 65h457l96 435q-21 -12 -41.5 -22t-43.5 -16.5t-50 -10t-60 -3.5q-54 0 -100.5 18.5 t-88.5 39.5q-36 19 -71 32.5t-73 13.5q-24 0 -44 -6.5t-35 -15.5t-25.5 -18.5t-15.5 -15.5zM169 -40h570v-58h-570v58zM169 -138h570v-58h-570v58z" unicode="" horiz-adv-x="918"/>
<glyph glyph-name="donotwash" d="M832 76l-17 -76h-565l-18 80l-115 -60l-21 39l126 66l-65 300l-150 77l21 39l116 -60l-44 204l66 11l26 -125q23 19 57.5 32.5t79.5 13.5q51 0 95.5 -17t82.5 -38q35 -18 73.5 -33t82.5 -15q41 0 74.5 7t60 18t46.5 23.5t34 23.5l26 107l66 -11l-43 -190l102 54l21 -39 l-136 -71l-72 -315l125 -64l-21 -39zM221 441l305 -157l320 166l11 50q-21 -12 -41.5 -22t-43.5 -16.5t-50 -10t-60 -3.5q-54 0 -100.5 18.5t-88.5 39.5q-36 19 -71 32.5t-73 13.5q-24 0 -44 -6.5t-35 -15.5t-25.5 -18.5t-15.5 -15.5zM761 65l9 43l-243 126l-233 -122 l10 -47h457zM780 153l53 241l-258 -135zM233 385l51 -228l195 102z" unicode="" horiz-adv-x="1066"/>
</font>
</defs>
</svg>
